<mxfile host="app.diagrams.net" modified="2021-10-27T14:29:21.292Z" agent="5.0 (Windows NT 10.0; Win64; x64) AppleWebKit/537.36 (KHTML, like Gecko) Chrome/94.0.4606.81 Safari/537.36" etag="98qPtgieUMCjyVc3PkiR" version="15.3.6" type="github">
  <diagram id="onzaKeIiB2C6kT-AGUYL" name="Page-1">
    <mxGraphModel dx="1527" dy="866" grid="1" gridSize="10" guides="1" tooltips="1" connect="1" arrows="1" fold="1" page="1" pageScale="1" pageWidth="827" pageHeight="1169" math="0" shadow="0">
      <root>
        <mxCell id="0" />
        <mxCell id="1" parent="0" />
        <mxCell id="2je93HJne1XDMkjmb065-6" value="" style="shape=image;verticalLabelPosition=bottom;labelBackgroundColor=#ffffff;verticalAlign=top;aspect=fixed;imageAspect=0;image=data:image/png,iVBORw0KGgoAAAANSUhEUgAAAu4AAAFDCAYAAABld4tnAAAgAElEQVR4AeydiZ9UxdX3+UfeJzIzPfvCIu5LNHGPCmJEQSWicVfivouConFP3I0L4oIbRqO4K4oKgqC4AO4+7iAxcYlPTGI87+dbQ8309Ny+fetU9/RMzyk+TffcW3VPnbV+99yquiP++c9/yr/+9S/RFNp99dVX8t///lfTXGJo/+c//5Hvv/9efvrpJzVtrqEp//d//yd/+9vfVLTpL+21tP/97387uWn6jZ6Q2Y8//qhpLt999518/fXXqraeby1tbOWHH35Q0YZvZK61lb///e+Odw1x+I21U3SuKTE+gsywceSuKTF2ip7+8Y9/qO0U2jG28te//lUdE6GrlZm3U741Bdpavonl8B1DWzuOYKfoW+ufyFvrI7TFzjV80198uxqxPJY28iauaQq0iafaWF4OH9HaCuMX45im+FiusRXoYWsxPqIdR5AVNk57TcG+tTEt1k5jxhH0REyLiYlavqGNj2htJSmWNzZ2Cp+mpi4ZEWNMBtzDbxp80KtGsMeIcF5twDXgHh72fLDXDjT4pxaUYGPaYI+tGHAP13c5QEk5g31WDgy4h98sVROUxNI24J7VM3rr+Viu9c8YrBUTy7EVA+69esz6i5g4mIB7c/Mo4WPA3TLuWW3Y1TPgHiQuV9kHewPu2WWHrCzjnl1evmZSlsafK/VtwN2Aeykb8efxT8u4e2lk/zbgnl1WvqZl3L0kRFpaxjjgDni3jHuvXDL/ImhxB6sBYz7oWcY9s7hdRYKe9pEXGRJ0ptEXxG2qTJiuqB0TcNGTAfdwmRtwD5cZcYVYrsmiYqc80apGLI+lbRn3cFvxSRiNrUDNgHu4zGPGEfRUS1NlPHBvbRtjwD3clMSBQAPuYZJjoInJ0hhwD5M3tWMerxL0sHHkrikxAdeAe3j2Fx0ZcA+3VAPu4TKLjeXYqTauEJdikjA2xz1c34wjWn3F3mDGjCO1BtyZItPSMkraO0YbcA83YwPuGpnFBnsCh2XcwyRvwD1MXtT2wZ6pI5pSDlBCHzTFgHu41Ay4h8ssNpaXw0fog6YYcA+XmgH3cJn5G8xyxvLGpg5pamyX9nbLuIdrRAy4a4QWG+wNuIdL3YB7uMwMuOtvGrQ3O9gpUze0YIzYQGZOUwy4h0stNpYbcA+XeUwsR188PbVdZcLkPtgWp7Z1jJG21i5pa7U57mGa3FDb5riHiy022BtwD5d5TLAHwNpUmXCZlwOUlDNLk5UDW5wafsNCTLM57lktrLdeOXwE2WuKZdzDpcY4wvirKdX0EZ+Ewd40ZbAB95bW0dLS3CWtLQbcNfq0Oe4KqRlw1w00MdlEA+7hhuqDvTZ7XA5QYsA9TG8xPkJbblA1Mq8mKImlbYtTw2yM2rY4NVxmsXZqc9x7ZV5f3+b2cW9tsTnuvVIJ+GUZ9wBhbahqwN2Ae1arwVZsV5ms0uqtx01DTHbJXsDUK8ssv6oJSmJpG3DPouG+dQy495VHlr9i7dSAe6+UGxraJZfrkBbbDtLenNprFqV/2T7upWVUWMMHewKYpsRkEy3jHi5xy7iHTxlBytwwaJ9SYKc2xz3MVmMBkQH3MHlT28dyzdMZ2hPLY3xE+zI9bMXmuIfre7BNlWH/dt6c2tzYKSNwYD4+WxPyDZBbv369M8iQdr4udDFG/3fIN1lv6Ie0ya8LXa6Rfyzr72+++cbtD4ojZm3j69EGvrW06bdWX9BGZpp+03/2M//qq6+Cefa8028tbfjW2oqXue9H6Dc8w3toO+rHyrwcPqKROW3IwH777bcqvrFvrb6QW4ydxtgK/f7yyy/VsQV9xfhnjI/E0KYtfMfEJa2+oVmtWI59Y+caH/F2GiOzGFtBZlraFsu7n06FxPShHsvBLSH8+rrYmNa3y+EjWtroq5ZieVvbWMk1tHe/ORWhoBjuLkI/tAW4o5zQttSPoe2dKIY219D02wd7LW0/OGto02fkpmnrnUjbbxb2cOeupe0HKU17eI7hO4Y2wB3eNf1G1jG04Vlrp95HtP0G0AAONO3LYacxfGtjGjQJ9uhMw3c17TSGNm3hWytz5B0jcw/ctTLX9hu62Lk2JtJeS5t2yF3Dc2xcAcQR1zS0aRMb06rFN+NXTCyPtdMYH9HGJGzFJ2E0+o6102r6SEwsR1fVslPoFtIm497c1CUAeHtzavgTFDdAEQA00x9og0HweFhTYud8YQw88tMUHJCgpymeby1tggcBSFN4tInMNfqCnr05NVzqMXaKnhiktLYC7RhbYZBjgNMU6GKrmuLtVPsoHtpavuEXvmNoa2VmU2XCrQUfIZZrxxH8i7imKbGxvBw+oo3ljF+MY5piU2XCpRZrpzHjCLHM35SH91zcGDCYYrmb394y2oC7NugBAg24h7lCbLA34B4mb2pj3wzumkGOoIeNawNXTMClvwbcw/VtwD1cZtg3dq65YakmKImlbcA93FYMuIfLLNZOY8aRWgPuLuPePEpabFcZXdbbgLvOgZGbNotqwD1c5tUE7uG97dtCA6T6XkH/F6BmOJZq8l1NfWtvTrERgEm1Sgxt5K19OlMtfstBl6dC2jEI+jEyj+1/DG1sXNseeWl9BJoxT4YMuPdaDYAd8N7WblNleqUS8MuAe4CwNlTFgQ24h8uNgEnw0pSBBu5r1qyR++67T+6991656667ZN68ee43f4d+7rjjDrn77ruD28XSvueee2TOnDmu/1n6TB9vuukm14a28Kzlm/Z33nmn8J2FdmGdGNroC76z0qYe9W+55RbXBtpco7BPWf5Ghug7S92kOjG0aXvrrbdm5hv6c+fOldtvv931t1p2Sj9iaNMWPpLkWewYPNOmmnbqaRfrY6nj+borVZfz0Lv55pudnWPfsf5ZLR/BxkN9DN6feOIJNz1We5NnwF2/S1ehzJuauly2vb1jY5vjrgFEBtzDpWbAXZeZGyrAncVuRxxxhHR2dkp7a/uw+XS0d0hra6s0Nze7b34Ph097e7u0tbVJS0uLtLW0DSt9wzuf4aBnzyO67ujocHy3tw1P/8bWvTyGwzc2vs0228iTTz6pfkphwL28wL2xqat7VxmAgXZREe1Yma59zBlDOyabCOyENtfQFAPu4VIz4F7bwJ3V+xMmTHCD+8QDJ8o+0/ap+c+kaZNkpz13klGjRskOO+wg06ZNGzaf8ePHy5jRY2TLbbYU5DBc9L3b3rs5fY8bN04OOuigYaPvAw44QMaOHet4Hz9l/LDR9y577SKjR4+W7bbbbljpG9uGZ3TOUwItxjPgXj7g3tzcJc2t3Xu5264y4RjUdpVRyMyAe+0D97322ku6urpk8T8Xy5vyprxe4/9Wy2q58qErpaW1RWafP1vhFUO3CY/Qx4waI5MPmyzvyDs1ruluS35L3pI7l9/pbk633377oas8Rc9Z/7D55ptLZ0enPLnuSVklq2pe5/j3Tc/dJJ1dnXLySScrpDa0m8yYMUPGjBnjpiwacA/TJfIiwauVW9JGA62to6W5pVMacq02VSZMHd21LeMeLjUD7sMHuD/792flFXlFltf4v5WyUi6//3IH3GfNnBXuFEO4xYIFCxxw3/e3+8ob8kaNa7rbkoHvty6+1QF3spHEtOFS2FbPA/dHPn5EXpVXa17n+Pf1T17vgPsJx5+gBmFD0Uaw7TPPPNOA+yDa2re5qVMaG9ukMddmwF3jVAbcw6VmwF03yA+VOe5MlfEZdwPu4f4x1FoYcDfgPhxuzA24W8ZdE5srkXFvYapMU4cwZcamyii0YsA9XGgG3A2419pAbxn3MWIZ9/BYOBRbWMbdMu4au2Xct+0gwyWXNFWmpXmUNDV2SkODTZUJl6iIzXFXSM2AuwH3cgN3gPMKWdHnkT1TdF4r+FepaTsG3CsP3NFvFn0ydcPXK7SJctmdTZXpnuNeqakySb7rdcq5tPOV0LlNlbGpMjzx1pRKZNwbG5kq0ymNuU7LuGuUYhn3cKkZcDfgXi4AxYDKgP7whw/LC9+/0APcGbyf+eszcsfLd8gti26RW57v/jz15VP9AH45+mLAvbLAHX0+/93zcterd/Xo8ubnbhaAYz5QwxYe++wxt5Dw9mW3y4v/92Kf8+XQNdcw4F454I4+n/7r03Lri7fKzYtu7tH3nBfnyLwV82Th3xbKE2uf6HMO/2bNwbxX5smibxeVXecG3A24DybgzguY2trGSnPzGAPu4RDUMu4amRlwN+BeDgDFYPrA2w/I787/new6cVe5f839PQthybpecs8lssuEXeTkS06W0644zX3+/Pafe+qUow/+GgbcKwvc0SfAbOfxOzt9n37F6XLKpafI7Utv7wFpZGEBekeeeaSccskpcurlpzoA//J/Xu6p4/UV+23AvXLAHT0++O6DctbVZzkd4rvo+9BTD5XtdtrO3bzNf3N+zznOn/GHM2TqsVNlx1/tKI989EjZfdyAuwH3wQTcm5pHSXPLaGls7JIRbPPEHCQ/pybkm7YsSoO5kHa+Lu3JXvu/Q75p991336lpw7OWNi+bYc5ftfhGbiGy8nXpb4zM/v73v7t9+/31Qr5jacNzDN+01eqLdxV8/fXXapnH0Kat1k69j4ToyddFVtj4t99+W5Jv3ofwySefuH3c2Q6yUotTycpd88g1ctFdF8nsubMdcAfEM+hzjn/n3HCOnHzpyW6nE7ZzY1vKSu2AYcC98sD9qoevksNOO0yW/bhM1sgatw0hcgeEo/f7Vt0n046bJtycoW90vfCrhbLsv8t6nsTEAnbf3oB75YA7MkZ3+CtbTfIPfV9818XOp5f/Z7mgd477Onyf9ofT3M5O2ILXU7m+Dbh3A3feLszbu/3YEPLtx/2YMSxm3AefgnlC+uzrghFjaMeM+9AuxOUNTZ1S19De/QImD8ZgMPSzbt06+fzzz4Xv0LbUh/bf/vY3VVtABWBKQ9fT5hqa9mvXrpUvvvgiim8tbUAkctP0e/369U5mWtrwzEdDO1bmMbYC31qZ0W94Rucavsthp+h8oGnj01n5pn+rV6+WPffcU7pGVQ64MyAv+WGJrPjPCpm/Zr5MmDJB/vxWdzbdA/czrznTAfeXfyp/xrUQEBhwrzxw/8ODf5DDTj1MXvjHC/0yqi//92U5/sLj5aoFV7m95AF1bE1ZCRCH7g24Vxa45/uXvymbeMBEefyzx/vpFN+74ekb5OATDq5YomC4A/ezzjrLvXxq7ty5DsBqxiDagNO0mCMG73h8qh27Y2h7zMG3Rm7g4kJsXN/YIQ1NHdLU3CkjuBPirujHH38M/visHBk3TXt/F6Zpy1tbuaOJoc01NLShi1K1tLmT0tLmbhC5afpNf+k7d8+a9jxpAABr2kIbvrW04TmGb2hr9YUDkXnW8A2/MbTL4SOafiMrbJy+l2rPNChA/kBtB8mAevdrd8v4yeP7APflPy13QO6sa87qeTlMpbLtgAwD7pUH7hfefqGbBsONGaDc6xNg9+gnj8r+R+zv5jjPnjNbTrr4JLnsvstk6Y9Lyz5NxoD7wO7jjr5PveJUOeOqM/rpknPL/rNMjjzrSDl/zvk9NpEP/Mvxe7gDd7+PO29OLTUGFDvvMUe18A7AWYsbwLfath7vaDEHtAtxeWNTu7Q0d9p2kAhVU1AmYA7AElr8XG8tbYAgCtUUVjp7IKZpzyMn7p41xfONg2sKPHPToil+hbdGX9DjZgXeNQV+kbmWNnyjc03xwUNDG5lh41ltjaxCtYE7Gdjjzj/OzXkF0PFh/rMHe+UYzPOvYcC9ssAdcH7B3Atkux23c7rkLa0Ac3SA7Oevni+/3PWX8pvpv5Gbnr3JfSYdMklmXD9DuIkD4OXrK/a3ZdwHJuOOvy74aIHsf+T+cs/r9/TLtmMX975xr7MJFqhX0r9tH3fbx10z9nrMwbem+Ok6+W3b2kZLa8soaW4eZYtT8wWT9bcB96yS6q1nwD38Jg/pGXDvD7cAbYUZd19r6X+WumkVL37zotuZYuc9d5brHruu7CAOegbcKwvckTFz29k56IVvXpD5q+a7pywzb5wpK39a6Raubr3d1vKHB/7gsvHMeWZXmb2n7i0PvPNA2QGdAfeBAe7ccM26eZYcesqh3VPjCm7AVvy0Qk68+ET3dI2b9XLfoPlYgn8bcDfg3otisv+qBHCvr2t1W0G2t4014J5dFb01Dbj3yiLrLwPuBtz9gBj7nQbcuTYDOf+oN+O6GS5zV4ktAg24Vx645+sT4Hz1gqtlz/32lIV/X+h2GiHj7ncNIvP6+OePy96/2VtueOYGA+5Zg3OGesxR3nzzygN3sulsAcq6BnSNj+XHC/yaLV+5OWMbyEpl26EJbQPuBtwzuEe/KpUD7h3S1mbbQfYTeJYDBtyzSKlvHQPuBtzzB+CY3wyoSRl3BvX8gRygd/n8y93bPSu1z/Pl918uLa0tMmvmrL4GX+N/LViwQMaMqjxwR5/oFXtBn7e9dJuM32+8A+hPfPGE2/qTLSOxCeo+9uljMvnwyXLnijv72EKMvfm2lnEfGOCOb6PDpBc9oecbF94oTJt6/h/P99iG11E5vw2423aQWaeKFob7SgB33pza3NQlra0G3AvlnelvA+6ZxNSnkgF3A+7lGlSLAfeX/vWSPLXuKQfi2Eruxe9flIOOO0jO+dM5fbJ25eyHAfd93TSVcsk0/zps6fjk2icdOGOrR6ZInHDhCXLMzGNk6b+XilvTMPs4mT5rugPpb8lb8se//FEOP+1wWfTNon5zo/OvrfltwL3ywJ2br9m3zpapx0yVxf9c3EeH7gbup+Vu1yjsgJ2jNHrM2saAuwH3wQTcW1tGO+De1GRz3PuAy6x/GHDPKqneegbcDbhnHTBL1WNA5W2au03cTe5f3f0CJh6x84bUg48/WI6ddaycftnpbjeS0/9wuiz6uvxvVaSP9MOAe2WAOyDtpX+/JEfPOFqOOOMIOePyM+TYmcfKcbOPk8c/6d4ekDpPffGUHHX2Ue4cL19icfKf11TmhVsG3CsP3Jf/d7nTMVPc8p+e4W/4OGCeRedX3H9Fv/Ol4kboeQPuBtwHE3BvbGRHmVHu7akj6Bhb9WgK7dgyTrtyNoZ2zI4Z8Apt7c4uBtzDrcWAuwH30IGzWH0AG/t63//W/e719r4e2wDyJlV2kuHDHFiysgz4vk45vw24V36qzEPvP+QWGaPP25be5vSN3L0eAXfMiWa6DHX8Exd/vpzfBtwrD9zJorOjzNPrn+43DQa/Z7Eyaxp4yRt/l1O/hdcy4G7AfTAB91yuQxoaOqS1xRanhiNQEbe3p20HGSY6A+4G3AsHxpi/GbQZWAsHb469tuFf0vkYmoVtub5l3CuTcfeyBph7ffKddBPGMV8n6by/Vuy3AffKA3d0hM7T9IjfpZ2P1bNvDx1bnGqLU8OQTnftSsxxb2rslMbGLmnK2VQZjU4MuCukZsDdgLsfEGvl24B75TPug8lWDLgPDHAfLDo34G4Z98GUcWdRanvbOGlpHG3bQSowqAF3hdAMuBtwHywDcrn6YcDdgLsiFA7JJgO1HWS5fLMc1zHgbsB9MAH3zs5NpKmRnWUMuKuCqM1xDxebAXcD7uUYTAfTNQy4G3APj4RDs4UB9xPUa/mGosYZr88804D7YALuLEzN5TqlvX2cZdw1TmXAPVxqBtyHD3Bn5wfeYsnUglr+xxaFVz50pdvHffb5s8OdYgi3eOKJJ9w+7uyn/Y68U9N69jbMdpN3Lr9TOjo6ZPvttx/C2gvv+j/+8Y+eFzA9ue5JWSWral7n+PdNz90knV2dcvJJJ4cLbYi3mDFjhowZY3PcNWqsxBz3+vp2acx1SFNTlwF3jVIMuIdLzYB7bQP3devWyYQJExyomXjgRNln2j41/5k0bZLstOdOMmrUKNlhhx1k2rRpw+Yzfvx4GTN6jGy5zZaCHIaLvnfbezen73Hjxg0bXWPXBxxwgIwdO1ZGjxot46eMHzb63nWvXWX06NGy3XbbyUEHHTSsdA7P6Pyuu+5SP21g3P/+++/VO/j9+9//djsAhiMOcX3mSdEPP/ygae52WxxMGXf2b881tAvbQo7gTpoPHQz9fPfdd/Lll1+6Od+hbakPXZSqaQt4hr6mLW2gyzU07b/55hvBILTtY/im31p9eZlp+/33v//dbf+pkRlt0JeWNjzH8K1tS7/Z8hTeNXzHypx+V8NH6Dc2jq2X4pvgShw47LDDHHBva20TPu2t7e7b/x3yHds2tn3Wvra3tUtra6s0NzdLS0uL+83fA/HhhgFQ0dnZOSD08nlqa2tzNFuaW6S1pdXpeqBkXqgb6A4UbfTd3t79yZfHQP2GNjpH9/weKLrQ8XyXQ94Dpa9YW6mmfyPzrq6uHn0PpK6hhY9vvfXW8thjj/WA2FJjQdL5mHE/Fu8wLmlxYjkwRznxDpn2hvq2buDuASyDb+iHtuvXr3dKDW1L/Rja3EUhWA1dT5traNpjCIAa9rEPbU8bDyJD21Ifx0Bumraetpbvr7/+WtgGU0ObNvCtpR1jK55vbb8B7vCuaQ+/2IvGVqAH3+hcSxuZa2jTBhun76Vo8z4EPm+++abce++9cs8997gszZ133ul+83fo54477pC77747uJ2nPW/ePFVbaM6ZM0eytqf+TTfd5Nrwm3ZavmlPW75LyYs6EydOlK222krOPfdcVx/aWftdeH3awXcW2rSl3i233CI333yz+x1Dm4we+i7sU9a/kRnXyFo/vx5tb7311sx803bu3Lly2223OXr0W0ubdqG28sc//tFlf3nCc80116h4hofbb7/d8ZEvi1K/4dnLKqudJl0TWwnl218Hu9O25RroDt799Up9Qw8b5+P7ndVHCq9Nv7lG4fG0v0855RQ3RWm//faL4hu9hfoYfALaGf8AoKXGgWLnY8b9WLwDPtXiJXjWtvWYQzP2IkfoFtJuaGiX+pGtUl/fZlNlNM9QUKjt4x4mOZsqU9tTZcKsoXRt7UvdSl+5dA0C5mAvy5Ytky222EI222wzWblyZVm6W02+q6lvwIG2ENcGsnAjzTQlMrEAMW1B3iQVhlsBSP34449qtgda308++aTLuP/yl7+U119/Xd1vbFzbd2xF6yPQJK5oX3YJiNXSpt8kn7R2jq3E0AYnauMafS7sd0Njm5sqw4uY7M2pClcw4B4uNBwYuWmDJg5UaMhZe4HzQFsbuJgmw4CpKfBL4NLShm+Cl6YQLLW0kRk3p9rAFRNwkRVZGq2tQDvGVvzTNI3MoauVmbfTUsGepz+//e1v3aNssq7etqCt5ZtBCr5L0S4mE+hyDU3BTtG35yP0GjE+QlvsXMM3/a0GKHn00UeFOfa77LKLfPjhh6HicvWRN3FNU+A7JpaXw0e0toLvxMZyja0gZ2wt1EfwDZ6oMQ3vtNNOU8UWZIWNY6uaQh+0Ma1aPgKf6KmWgHtza6c0N3cJu8sYcFdYsgH3cKHFBnsChxaU4MAG3MN0hswMuIfJjNrlACWlgAGZVjKue+21l3z66ac9nYS21kcMuP+3R45Zf1QLlHz77bdy7LHHSlNTk5x66qkqQGbAPauWe+v5JEwp/+xt0feXBrhzhVWrVsnPf/5zd7P2yCOP9L1ohr8MuOueLBETtTcsHnNobSUpljc1dUpb22hpb9/YgHsGu+9XxYB7P5GUPGDAXfdIncBhGfeS5tWnQi1n3N955x2XaWWhIOsJ8ktSsM8/n/bbgPvQAe7o8d133xWmT2y66aby1FNPpak28ZwB90SxpB6sFnBn7PzTn/7kFsAz150sckgx4F4bwL21ZYzLtgPgLeMe4gEb6hpwDxeaAXcD7lmtBlsBWNhUmf4SmzVrlpsiQ8a1UD4G3PvLq9QRboyH2lQZz9MNN9zgwBxbNbJ7Rkgx4B4ire661QLuUMdGJ0+e7HyfxfAhxYB7bQD3xoZR0pjr6t5VRvv4BsMhS8OKY+3jgBjaMfN36Tu0uYamGHAPl5oBdwPuWa3GgHty9vell15yGdZtt91WWJxaWAy4F0qk9N9DGbh/8sknMmnSJDf/+Yorrggahw24l7aNwhrVBO7ERHaf2Xjjjd2TljVr1hR2r+jfBtxrA7jX17W7xaktNsfdgHtRb084waIeFvdoigF3A+5Z7caAe3/gToJk6tSpLsN60UUXJSYdDLhntbDeekMVuOMjJJ4WLlzotgTlZTmrV6/uZazELwPuJQSUcLqawJ3kKIuJTzrpJBcDTj/99MzrWQy41wZwzzV0SHNzpzQ121SZBPcsfcgy7qVlVFjDgLsB90KbKPa3Aff+wJ09v3npDhnWL774IlF0BtwTxZJ6cCgDd/rOZ+bMmW6h6vTp0zMvVDXgnmoWiSerCdy5SWPtzltvvSXbb7+929t90aJFif0sPGjAvTaAOxn31pbR0tLaZXPcC408y98G3LNIqW8dA+4G3PtaRPG/DLj3Be4sSN11113dmysLF6TmS9GAe740sv0eysDdb/X6v//7v/KrX/1KxowZ414klYVzA+5ZpNS3TrWBO/qmD0yLYntI5rwz971UMeBeG8A9l+uSpqYOaW0z4F7K5hPPG3BPFEvqQQPuBtxTDSTvpAH3XuDOI3L2cW5sbJQjjjgiNaNqwD3PiDL+HOrA3a/Tmj9/vtsidMKECUWfyOSLxIB7vjSy/R4MwJ2erl27Vthdprm52b3JtlTvDbjXBnBvbx8nTc0d0tTcbhn3UkafdN6Ae5JU0o8ZcDfgnm4hvWcNuPcC9+XLl7sFqcxhZj/ntGLAPU06yedqBbiz/oiXcgHmzjzzzH47DhVyb8C9UCKl/x4MwJ3YSFmwYIFbqMpLuD7++OPUzhtwrw3g3to6RlpaR0lLq81xTzX4YicNuBeTTPHjBtwNuBe3jr5nDLh3A3cWpE6bNs1l29kGkl280ooB9zTpJJ+rFeAOd6+88orssMMO7kbvxRdfTMFPICAAACAASURBVGZ4w1ED7qniSTw5mID7N998I4cffriLDdyoYcfFigH32gDu7CbTPVXG3pxazNZTjxtwTxVP4kkD7gbcEw0j4eBwB+7wT/FvSB0/fnymV9sbcE8wphKHagm4YzdXXXWVtLa2OlDHLiTFigH3YpIpfnwwAXd6+dprrwlbw2611VaSdqOGXTAXnjnymsJ0rLQbg7RrQhu6fkpXWt2kcyzI1dJmmiEvqyIuaspge3NqGxn35lHuJUwjAKEIBsGGfDBi2q5fv96tdg5p6+tqadMeZRB8/LVCvzEmrhHaDr55LIlBYFSh7alPvzW0aYuukJuGLv2FNgapac9dPoOBpi20kblWZvAcw7cPHpq+E/TgXdMWWcfaqcY/6WuMj6AnbJy+Y/OhvEM7RuYxdhrjI+iLl9lgaxq+Y+0UvhnsPvzwQ9lrr72ks7NT7rvvPjfulNKBljZ8IjP41sYGaGvt1PuINjbExHLkHRPLtbTRJfKK9ZH8cQSgwo5DEydOdFNmAPHINMmOv/32WwfmStlUsfP0O8ZWtHzDj7YtvDB+xcbyGDvV+khSLCcoXHrppU7XhxxyiOMNGyjUGf3l6R24JckWCusX/l2OWJ5vp4XXT/s7xkfgG3yqjeWxtLFTra0kxfKmplGSaxwlLFIdQeDi4yuGfOP869atc44U0s7XjaGNUDBEvv31Qr5j2rKXOYOchnZsv2NkhnzQWYic8usCYBnk8o9l/V1NvmNpwzMBPyuv+fXQV4yt0V5jZ/TB853fn6y/aUvQY5DL2ia/XiztWJkht/z+ZP1NO3xbyzfttbSRGW3hfcaMGW5AZt4yMZaBrxQPMbShCd/avsfQ9rbCdykek87H2Ap6xs6rQdvrO4mnLMeS+AYEPfbYYzJu3Dg3bYYX9QAeCq9HPBuOsRwAyzhWKI8sf8faabl9hBsndpxiQTK7zPBG1aQ4Qb+xcXBLFj4L63i+C49n+du35TtL/cI6sTIjdmoxTyztJP8s5K/Y30m0Gxo6pL6+QxrqNyxORdlkeUI/tMP5uYsLbUt97mi0tAlGGAN3mBraCIxraNpClwCgoU2bGNo4K3LT9Bs90XeCu6Y9DoDza9p6vrW04TmGb2Su0Re8MsjBu4Zv+I2xU3hG5xraMT6CrfgBTkObPiNzTVv0RODS2kqsjxDTtHGJdjF2Cs9LliyRzTbbTLbZZhthcSolixyhG9PvasZy9K31T+xM6yO0xc41Yxj9xbe140iMnabR5rqnnHKK29udF/Yk+RGggriWxa4K60AbuSVdt7Bu0t/YaYyPQFtrK4xfsbFcYyvIIcY/02L5Qw89JGPHjpXdd99dPvroo37xAllh4/hYkj5KHYM2Mi9VL+l8mp0m1S88FuMj6ImYprW12FiOzGJspbDfuVyHNDayJaRtB+mMPPQ/FIIjYGShhTa0J+hpCk6EQjXFOxHGpCkEewKfpni+tbR90NPQhm8feDTtGeDgXVPgl8FdYyvQg290rinYmJa2D/ZaW4uxU2TFIKO1FWgTdDUFvgn2DBia4oO9pi1tiCts+8g85UsuucQBlKzXgraWb/iFb/jXFOhqZYadelChoR3jI7RF5hq+sVP8qxqxvBRtdiDabbfd3BaRALvCgryJa5oCbQ9KNO1jfAQ9xcRyxq/YWK6xFeSErcX4SLFYzlOjI4880j2hu+CCC/qNF+gLG6e9pmDf2nGglJ2W6k/MOIKeiGkxMVHLt7dTra3Q58J+NzZ2uvntzc22OLWU3SSeJ3AYcE8UTdGDscEeByo05KLECk54J6IPmmLAPVxqMQEXPQ1H4I6d3nDDDW5eOy/Uef/994MEnxTss17AgHv4DUs1QUkW2rxtt6urS6ZMmSKfffZZH1Mw4N5HHJn+8EkYLRirFHCn84sXL3ZvU91yyy3lueee68MPtmLAvY9IMv1BTBxMwJ1MO6C92TLuuqy3AfdMdt+nEsEjJktjwL2PODP9YRn3TGLqU4lBuVoZ908++UT23HNPB9z//Oc/9+lXlj8MuGeRUt86xJVazLjDJVNC9t13X5eJveiii/o8GTDg3tcOsvw1mIE7/WehKnPdjz766D6ZfQPuuqevgw245xrahax7Y67DXsCUxWEL6xhwL5RI6b8NuOuy/QALsteaYsA9XGrVAu74B4+5GXiZKkOMCS0G3EMl1j19oVaBO9JgjQRZWD5+vQTHDbiH28pgB+7Mb+fGv729Xe6+++4eBg241xBwd/PcDbj3GHfIDwPuIdLqrmvA3YB7VqvBVobbVBkWpI4ePVq22GILWbRoUVZR9alnwL2PODL9UcsZdwSAL1188cVuzQSZWD/P2YB7JvPoU2mwA3c6e+edd7rpUbxRNX+hqk2V6aPKTH8Mtox7U1OnNNS3SS63YVcZOqgptPO7q2jaEzS1tGOyifQV2lxDUwy4h0vNgLsB96xWM9yAO2AKUOUXpGrjkgH3rBbWW6/WgTucfvDBB7L33ntLW1ubzJkzxzFvwL3XBrL+GgrAnYWqRx11lIsl7ONPIZ4acM+q5d56gw24Nzd3SUNDuwDgR8SAZwPu4WDMA1jt4Byz6I9pAIAEApCm2K4y4VLzwR69awr+aVNlwiSHvACxmjLQU2WwC96QOmrUKLcLyNtvv63ptmtjwD1cdMMBuCOVBQsWyMYbb+y2DHzvvfdcTLFdZcLsxcdyYoSmxGCtkETlCy+84HSd/0ZVA+7hGhtswL2psUty9R22HaQWPFvGPdwJ/A2L9qaBoBcDxtCZFjzbrjLh+o65wURPw2WqDCBqjz32kI6ODpk7d64DVFpgYMA93E6HC3An/k2fPt0tVD3nnHNcBpbsrKbExnLsFLlrCr4RE8trcTvIQjkio/POO69noSrJOvj206QK65f6G5yk1Re2Al0t1ooZR5BDLW0H2do8VhpzG96cikK001Us4x6eRfVBr1qGbBn3UmGq/3kD7v1lUupITMAdTsCdvdqZwsDjbWIxoMaAeynr6nseuWFvmkLbWl6cmi+TN954Q7bddlv3sp6//OUv7uY4/3zW334M0yZhDLhnlXRvPfACYzeyz1I+/vhj93SFdTMPP/xwz9u7s7QtrGPAvVAipf/2N5jljOWtrRtLLtcldXU2x720BhJqWMY9QSglDsUGew9qSpBJPO2dKGvQK7yIAfdCiZT+24B7aRmxy8cmm2zidvzg8TYFOy9nsC/di+4aJGHsBUxZpdVdj3hSrWyiljZz3Ds7O2W//faTTz/9NIzhDbVjY7kB93CxhwJ3KNx4440uKcCLuFavXq1+Ym3APVxfHnOUM5Y3NY6ShoZOqa+3XWXCNSLiHtWRpdEAQR/0cAZNiQFEGJFl3MOlbsA9XGYxdoqP1PpUGaYpHHrooW7qwuzZs92g6mNDOYN9Vs0ZcA+ft4y+hhpw//LLL+XAAw9M3Ns9q614O7WMe1aJddfjplw7u0ED3Nk4hK1leaLHVrMkHDXFgHu41CoB3BvqO13GvaVlrC1ODVeJAXeNzGKDvWXcw6WuCfaeCoGHm1PkrikG3NOlxlSFMWPGuH2XP/zwQ1e5EsE+vRe9Zw24Dw/gjsYXLlwom266qWy33XaycuXKXiPI+Cs2llvGPaOg86ppY/nzzz/vnuqh61deeSXvitl/GnDPLitfsxKxPJfrlMbGLmlpHt0N3HEknDH0Qzvu6rjzDm1LfX8HqmnrDRkBadpz9wm40Lb18yJD23uF0v/QttT3gEjTFj35DJGmvd9VRtPW8x1jK9iLhjY00bfWVnzGXUM71k7hWWunMbSRGTaO3DR8AwS1+kJPZNy1PhJDG779giYN3x6UFGtLYH///ffd/FMyYSxIpVDf2ynfxdqnHYe2NpZ74K6lHRvL0bfWP2N8BPvGzjV809+YeBoTy2NoY28zZsyQXC4np512Ws/NeZpt5Z+DNnLTyIzrlPKRfFqFv6EZE8tZpMkbZQuvm+VvH0+1fMf6CLam8ZETTzzRPWHJ38c/C7++DnaqHQdi7BT6gzmWe/kkfXs71dpKUixvbmJHmQ5pauyQEYAxgiaKCf3gADx6w6BC21If2tq2tItpH8M3zr9+/XpV32P7ja60+oqlzQAHqNHo2tPWtKVNNfmGZ8C7pu+eb7417WPsNIY2bbFxpnRo+k37atmp51vTb/pMTCO2aduX4vv888+XpqYmOeyww5yMGdCh5fvNd6VoF7sudgbfpfqe1l7b72ryjX1j5xq+y9Fv5F5MpqWO01Yjc8DQq6++Kr/85S/dfHe2I/XgrBRNznu+s9RNqoOsNfLOp63hm/bEcp+QSOpb2jHPt5Z2NfhG18xvZ547T/h40scNSBqfhec834XHs/zt22pl5ttnoVVYh7axsVzrn77fWr6TbAXA3tY6WhpzHTLCXxjHDfn4u0+CHsYR0tbXhbbPlvhjWb+5I0GoWesX1ouhzaBOANDyjVK0fNOOvhfyk/VvaCO7rPXz63HDQtDLPxbyG9pameGUWr6hCe2QvubXhWcG+PxjWX9X006hreUbmWHj+Bi+npVfXy/WTqGrtdMY2vDtkxEavtPslMzMihUrhP2Vt956a+FtqRzzMvN2yrc/FvLtB66QNtT1Azl8x9DWxrRq+Qh8Y2fDLZZ7fd92220907XYhYTsaFbbGaqxnATMcIrl6JrP1Vdf7bacnTRpkqxdu9Y9Lcmq65h4Co1qxnKfYEUGWfn19WL4rkQszzW0SXMT20HaC5jcY+rQ/xggAXMMuqGFNrTHkDQFo8KgNMU/tuLxjabggIB3TfF8a2nDMwO8psA3MtfoC3p+qoyGNvxyw6GlDd/oXFOwMS1tZIaNa20txk6RFcBAayvQjrEVD+Q0ModuMZlxwz9t2jQ3RYG9tAv16u2Ub02BtpZvBhr4jqHNNTQFO0Xf1fARdIWda/imv/hXNWJ5LG34ZlcZpk/w9Ofcc891N21Z9Adt4qnWP9N8pBR97yNaW2H8YhzTFB/LNbYCPWQe4yPaWA5tpuexk1BLS4uwBW2I7rDvYjGtlBxj7TRmHEFPxLSYmKjl29up1laSYnljU4d7c2pdfZstTi1leEnnDbgnSSX9WGywx4G0DuidSBvsDbin6zbpbEzARU+1CNzvuecel+EcP368G0gL5ebttJzBvpBGsb8NuIffLFUTlMTSxr/4LFu2TLbZZhvZYost5JlnnilmHn2OQ9uAex+RZPqjWsDdx1P2c99ss81kp512kpA3NBtwz6TePpUqEcubmjukuaVTck22j3sfYWf9w4B7Vkn11osN9gbce2WZ9RcBV5ulIfBYxj2rpHvrFcsmfvbZZ/LrX/9a2tvbZd68eb0N8n5VItjnXT71pwH34QfcSUhQrrrqKpeJZetAngqVKrGxvJiPlKLLee8j9EFThmPGHVkRy9HtySef7Baqsig5a/bfgHu4pXk75VtTEjPuzHFvGy0trV2WcdcI1YB7uNRig70B93CZG3APlxmBttxTZbgmC1Kbm5vdVBnm2CaVSgT7JDpJxwy4hw+wxLShOlWGbLsH7sx55qaSXY5uuOGGJPPocyw2lhtw7yPOTH/ExHIP3PHxNWvWyPbbb+/muy9YsCAzbcZfTammj/hYjr1pCvLS8l2JWN7Y2CktzaPczjIj6FjWO69C5mnHdpB0UlNiaMcYMn2FNtfQFAPu4VKLDfboS+uA3onog6bYVJlwqdlUmV6Zvfzyy+7tqExJ4Hex4u1UG0+TsjTFaBUeJ5bbHPdCqaT/XU1QEks7H7jD5RNPPOGmUQDq3nrrrVTGY2O5AfdU8SaejME76IuMO7iFcsstt7jdhKZOndpz85ZIdMNBaDP+akqsncaMI8TRWprj3tDQLk1NXdLasmEfdwPuYSZpwD1MXtSODfYG3MNlHhPsCXo2VSZc5oWghL+POeYYl22fNWtWarLAgLvuxprYwACvKbTFzjU3S9UEJbG0C4E7GODMM890C1VPP/301MWLsbG80EdC9OZ9hD5oynCeKsPTIcrnn38u++yzj4tJ1157bUkxGnAvKaJ+FbydauIKF8NH+OSXXK5D+JB5t4x7vmQy/jbgnlFQedVig70B9zxhZvxpwD2joPKqEWjLNVUGm2eP7M7OTtl1111LLgirRLDPYy31p2Xcw58ao99amCrjDWPVqlXyi1/8QkaPHi3333+/P9zvOzaWG3DvJ9KSB2JiOfri5tQDd4g9+uijTs877rijvPnmm6n0DbiniifxZCVieX19mzQ08fZUA+6JQi910IB7KQn1Px8b7A2495dpqSMxwZ7AYxn3UhLufz4flKxbt0723Xdf6erqkjvvvLN/5YIjlQj2BSSK/mnA3YA7xsGbfLnRnDx5svP/JIOJjeX5PpJ0/bRj3kfog6ZYxr1XaieddJK0tra6rUDTtoc04N4rs6y/vJ3yrSn4CJ/8slFdm9TlOqWlZYxl3PMFk/W3AfeskuqtFxvsDbj3yjLrLwPuWSXVW49AG5tx9wH30ksvdQv+mEuaZbeOSgT7Xs7SfxlwDx9giWm1lHHHQvy7BgB0v//97xONJjaWG3BPFGvqwZhYjr4KM+4Qe+WVV9zam7Fjx8qTTz5ZlL4B96KiKXqiErG8oaFDGuqZ5z7KgHtRyaecMOCeIpwip2KDvQH3IoJNORwT7Ak8lnFPEW6RU4AS5M7+2AyIm2++uTz77LNFavc9XIlg35dC8b8MuBtw99bxwgsvOEC3ySabuLf7+uP+OzaWG3D3ksz+HRPLiwF3qDPHnZu0/fffv+gTFgPu2fXka1Yiljc3j3IvYGKeu81x95IO+DbgHiCsDVVjg70B93CZxwR7A+66t4CySJLtHo8//niXbSdrmXXhZCWCfVarMeBuwN3bCtMmLrvsMgfopk+f3u9pUWwsN+DuJZ39OyaWpwF3FqryRlWm891+++2JHTLgniiW1IOViOWNDa2Sy7VJLmcvYEoVfrGTBtyLSab48dhgb8C9uGyLnYkJ9gbcdcAduTGfnQV+O+ywQ8mt9fJ1V4lgn3/9tN8G3A2459vHRx99JCxcBNDddttt+aeidwgz4N5HnJn+iInlacAd4vPnz3frGnbZZRe3z3thhwy4F0qk9N+ViOX1dS3SUN8quYa2uIw7mST2cccwNAUwxoChKWQF8ldJh14D2mkLMtKuR1umEWgLwF9LuxxOhFFpynfffScs7tEW+NbSjgHu/qZB2++YfdzhN9ZO0bmmxPiID/YMspoSY6fQY7s6ra1AW9tv+GaOe9YseaFsPvjgAxk/frx7wcmcOXMKT6f+7e2Ub02BZy3f8AvfMbRjYjn61hZig9ZHkBexXMs3vl2NWI6sYmjT1r+AqZjc2XlkzJgxbkck7Dq/xMRyZI7ONMX7iKYtbWIWp/pYrrUVeI7xkZhxBBtHZ8XK7373u56FqoV1sG+tvrhWjJ3GjCPoKWa9ErrS8u3tVGsrSbGcXWXq61qloa5dRhAw+aDU0A8LWb788kunmNC21AcIamljDLTX0PW0uYamPc6/fv36KL61tGmnlVks3zg/jqCRWSztGFvxtLX9hmcf+EKvEWun6DrGVrQ+Ak1snGkfoTxTn35radOe2BLDt9ZHoElMg34I3wR4gi0LUjs6OuSQQw5xIIHjIdeJkRk8a/mOjeUxtJF5qLzzZRoTG7Dv4RjLAe1psRy7Ra7HHXecA3Ts7Y7MvT1zTuuf2EqMnce0rXYs1/onso7hGxsHt+T7jf9N3Fq6dKlsu+22bk3O4sWL3Q2GPx9LO8ZWYmjTVhPLPd+xMS1GX0m0c/Wd0lDXIXUbtckIAhcfgEnoByfgdcmh7Xx96GJM/u+QbwKPtt/QoS3XCKHp68I3W73xtMEfC/mO4Rt5afn2MtPyjRPAdwiv+XVjZE7bWL7z+xLyG54JfCFtfN1YmcOz1kdibAXbxre1fMfQRnYxthJD2/PtB3ivx1LfBOmFCxfKFltsIePGjZOHHnrIgdEQXyuHrWh9xMfymJimpQ3fAPdSMi52PsZHsG/sPIbvavhnrK3Ad1os5/repn/+85/37O2OnmJpo68YW9G2xX7gmXGsmC2lHS8H31pbiaUN38ViGn3i3MyZM91LmdjClqlSvq+edpps0s6hL66RVqfYOfoQo298uxjfxWj647G0Y/imbSHfzU1d0tgAeM+bKkNKP/TDowQCHo9SQttSn7t3rqFpyyMU7qh4fKVpD22uoWnLHRnK1dCmDe21tHmkTd81/faP+rT6IpBjzFra8K2lDc9kBmJoa/QFPYIOvGtow2+snaJzDe0YH0FW2LjW1mLtlIyD1lagHWMrBPrQuIR9HHnkke7Nk+edd17P1I0QvfnYoLVTeNbyDb/wHUM7VGZeNtgp+tbSxka1PkLbmFiOb1czlmtpI2/imtdB0refMnHTTTf1bGuKjVBiYjk2qo0rsT7C+FXNWB7jI9pxBJlh47RP0jPHKJ999lnPQtV58+a5Y5zDxmL0VS0fYfzAXmNiYgzf+Ig2piXF8sbGUdKYG+W2hLRdZZx5hv2HQnAEb/AhrWlDe5xBUzwg0rTFiHAiDFpTPHDXtPV8a2njQBizpvhgr9EX9Dxw19CGXx8wNe3hG51rCjampe2DPfQ1JcZO0ZMH7lraMbbigXsI7Ycfflg23nhj2W233WT16tUhTXvqejvlW1N8sNe0zQfumvbQ5hqagp2ib61/xvgIbT1wD+07/fWgJLQt9WN9JIa2B+5Z+k1yjp1HeDHTNddc48YP5KaN5diKNq54H9HaigfuWfgurONjudY/4TnGR7SxHFl54F7IU+HffqEq63Tee+89d9oD98K6Wf6upo+gJw/cs/S1sA66irVTra0kxfL6+g5hugzz3A24F2orw98G3DMIqaAKDozctMEeB8KYNSU22BtwD5d6LCgZSsCdx8p77723mwt8/fXXq2+0vJ2WM9hn1ZwB9/CbpWqCkljaIcAdG+JdBEwBYx70ypUrXeJJG8sNuGf1yt56MUkYbCUrcGeM/s1vfuOeHDJ1Bh3z0QLYWDuNGUeIo7UE3Bs2LE414K7Mehtw7w0oWX/hwAbcs0qrtx4Bk+ClKTHBnqBHsNcG7JiAi60MJeDOglReYsKAh8y0WTUD7rrddGJ8hLboTHOzVE1QEks7FLhDj3cSYOfs7U57jcyIYwbcw6N5TCxHd1mBOz1btWqVu0Hbcsst5dVXX3Wd1Y4DsXYaM45gn7UE3AHsI0e2yMiNmi3jHu5C3fP7cASMMrTQBgCLI2pKrCHzuE2bKbGpMuEaQ9baR5xQiwElMcGeoIeNawN2jJ3iI0MFuL/55puy3XbbuTdNLlq0KCo7hcyJDTGASPtUyjLulnEvFd3efvtt2X333d2UmTvuuEM1/kHDgHspSfc/HxPLiachwJ3YPXv2bLdQ9YgjjnDrGLXJCGjHTOmKGUdqDbjX1bVJQ0OHkHm3qTL9faTkEcu4lxRRvwr+hkV70wCA1IISD4jog6bYVJlwqcUEXPQ0FIA7fTz88MMll8vJGWec4eyTAVZ7s+Pt1IB7mL3F3NzSFlCjkXk1QUksbWyXuBZaeLkYL2WaMGGC23kktD31DbiHS20ggTu9Y377nnvu6W7S5s6dq040xtppzDiCT9dSxn2jkS3SmOuQ5qZOA+7hLmQZd43McGCbKhMuuRhQEhPsCXqWcU/X11/+8hcZO3asy0L6F9SUA5RoQCQ9hbb25tYy7pZxT7f27rPE8GOOOcZNmbn44otVT2/L4SOMJ5pii1OzS42FqqNGjXLrdz788MPsDfNqGnAPjyuILymWNzS0Sy7XIa0tXQbc82ws80/LuGcWVU9FA+66gcaAe48JZf5BlkYLYH2WptSj4S+++EKmTJnitsnLf0NqOUCJAffMqnYVY3zEMu5hsqb2smXL3NSw0aNHu0WroVcoh48YcM8udWQVMlXGX5k9+6dNmyYtLS1y0UUXqbLuBtzLB9ybmrqkpWWUtLaOMuDujTTk24B7iLS66xpwN+Ce1WqwlcE+VYZsIwPaXnvt5d5t4HkrBygx4O6lme3bgHs2OeXX0k6V4RrY51VXXeWy7gC7Uje5+XT5XQ4fIUZoimXcw6TGTRrb3PJiuRUrVoQ1FnHrIGyOe7DYimTcW6W5uVPaWkcbcA8XqU2V0cjMgLtuoIkBJTZVJtxSs2TcX3/99Z5dF5YsWdKHSDlAiQH3PiIt+UeMj1jGvaR4EyswdcJvgcoLmkJsthw+YsA9US2JB5GVJuPOxViTduGFF7qbtN/97nfBTzKhbcA9US2pB/ERPvmlrq5Fcrl2aWq0Oe75csn82zLumUXVU9GAuwH3HmMo8QNbGawZdwah448/3u24cPbZZ/cLruUAJSEgKF+UScE+/3zab5vjHv5Iu5qgJJZ2TMYd2iQF7r//frfGY6eddpI33ngjzbz6nCuHj9AHTbGMe7jU2B5y5513dvPd77rrrqALxNqpLU7tFXd9Xbt7+VJDg+0q0yuVgF8G3AOEtaEqDozcbFeZMNnFZBMt4x4ma2qXyrgDVsaMGSM77rijvPPOO/0IlAOUGHDvJ9bUAzE+Yhn3VNEmniSWIzdi+YwZM9yUsbPOOivzlJly+IgB90TVJB5EVtqMOxckHvFUpa2tTfbZZx/5/PPPE+kkHYS2ZdyTJJN+LCkJUwdwr2+Txgab454uvSJnDbgXEUzKYRzYgHuKgIqcigElBtyLCDXlcBpw//LLL2Xy5MnS0dEht912W+JVygFKDLgnirbowRgfMeBeVKxFT/hYTgX2dv/FL37hfOLhhx8u2ib/RDl8hD5oimXcw6VGPAL4H3TQQQ68X3311ZkvYsA9/Ekewk0C7rlcp+RyXZJr2DBVhkoIOPRDu6+++srdeYe2pT5Bk0e0mrY8QuFODqPStAdEcg1tWwxZQ5s2MbSRF3LT9JsMib/71bRnlTmBT9PW8w2Y1LSHZ62dwjcy3ixKWAAAIABJREFU1+iLvvp93DX99uBZS7taPoLMsHHkpuHbP+LUtEVWPMrX2kqsj/i9f/P7Tp8uv/xyN3Dtv//+Lu7ln/e/sdEY/0TeyN5fL+Q7xkfoN3zH0NbGcvSMvmN8JDaWa/imv8RTLe0YO/W0tT7Cy/SIayH25etCO99O2eebvd2Z87527VoH6nzdpO9y+IjWVhi/GMeS+lXqmI/lGlvh2jGx3NPW8E0bn3EvxWPSeeybzxNPPOGeNm622WbyyiuvlNQz14J2tXwEPRHTtPG4HHaqtRVo88nXR3PzKGls7JK6ulYZgQMTNBFu6AcHIAulbQ9tPqF0qQ9N6Gva0iaGb5x//fr1UXxXQ2bwHSMzbtJwhBiZa9siL63MvL61tNG1D3yh1yiHncb4SExb+MbWQ3mmPnxradM+tq22Pf1et25dHz9h0Fq6dKnbWWHTTTeVBQsWuIEsSS7V5hv6Sf0qdYy4AN/a9shbK/Ny6Fvb76Ecy2PkTTzDv0vZRbHznjbggqkTBx98sFvAyM0txwD2xdqiK62+Ym2F8YtxrFjfSh2PGT+r5SPIGl1zo1aKv6TzXl/0/5xzznFTo1io+s0336Tq2V8LmWn1HSMzaIJP6afvS8g37b2dh7TzdWPbFsqMhalk3OvrO2QERHAy7uhCP7TDIMgchLb1d5DcDWnaEhxgjEFV0x6+uYamLQohAGho04Z+a2kjL/qu6benrdUXgxwBvxq0Y+zU863RF7zCM86v4RtZx9ppNXyEfmPj9F3DdzXtNIY2fBPT8mMi1zvppJMcMJk1a5bL4JBJSpIL7fLbJtUpdgza2DnfxeqkHY+hTduhHMu1PoJ9Y+camfu4Us1YrqVNPCtXLCf1+swzz8jmm2/u9ndfuHChy8YWs1VsLXYMi4nljGPF+pZ2HBvBXjS2wnXhWWun6Fk7jiArbBwAncZfsXPQpu+UNWvWyC677OK2iOQFdJRi7TheTR9BT8Q0ra2hq9hYrrXTpFheV98iI+tauoE7nYNBTaEdd68MYpoSQxujQCE8StAU70CatgiVoKehTRtvDBraGAJ91xT/2IrHN5rCDQtBT1M831ra8EwA0RT4RuYafUHPT5XR0IbfWDtF55oS4yPIDBvX2lqMnaInBimtrUA7xlY8kPMy5w2CLEjdfvvt5c033/SHE7+hq5WZt1O+NQXaWr6J5fAdQ1s7jmCn6Fvrn8hb6yO0xc41fNNfDwo0+or1kRjayJu4pinwTTwt9E+y7a2trXLUUUel+kA5fERrK4xfjGOa4mO5xlagh63F+Ih2HEFW2DjtNQX/9DEN3q+99lo3ZXDSpEny6aefpl6ymj5CX4lpMTHR853KZMJJaOMjWltJiuX1DS2y0chmqauzXWUSRF76EAox4F5aTvk1igX7/Dppv3EgrQN6J9IGewPuaZpJPhcLSgYLcGfO7r777usAyQ033JDMbN7RcoCScgb7vK6l/jTgHn6zVE1QEku7EsAdELf77ru7harz5s0ram/l8BFtLDfgXlQtRU/kA3cqYTtTp06V9vZ2uf7664u240SsncaMI8TRWgLuucY2GVnXJAD4ETF3gQR7y7in2m2/kxgywB9n0JRYQ+auuzBTkrUflnHPKqneej5Lox1o8E90rinYmDZLQ9CzjLvIjTfe6EA7AxUDVqlSDlBiwL2UlPuej/ER2lrGva88S/3lx7CkcYTtUlmousMOO8j777+feKly+Ig2nhpwT1RJ6sFC4E7lp556yk2X2WabbeTdd98t2h49MQZVC+/UFHDPdUhdfZvbEtKAe1GTK37CMu7FZVPsTFqwL9Ym/zgDLAFfUwBC6Ewb7C3jHi71mBtM9FTtjDs2s3LlSmFgGjt2rDzyyCOZhFAOUGLAPZOoeyoZcO8RReYflci4QxyQduqpp7qpFBdccEEiYCuHj2hjuQH3zCbSUzEJuKPn0047TZqamtwL6Rhfkwp6MuCeJJn0Y/hIId5paOgQtoRkP3cD7unySzxrwD1RLKkHcWDklpSlSW244aQB9yxS6lvHMu595ZHlL0AzGVgW75188sluYDr33HMzz00tBygx4J5FU711DLj3yiLrr0oBd+i/+uqrsvXWW8u4cePkscce69elcviIAfd+Yi16AFkR0wDQmpIE3LkOb1TlrbnstMXi5KRiwD18Ch5yTALugPbGxjG2OFX7+MaAe5KLph8z4K5fRG1TZdJtq/As8irMVhTWKfY3oJndFx544AHZZJNN3MDES2aylnKAEgPuWaXdXc+Ae5i8qF1J4M71//SnP7kpZlOmTHHTafN7WA4fMeCeL9H035UC7lC95ppr3PaQTCX84osv+nXEgHv5gHt9XZs0NPASpg0vYNKudLY57uFgzANY7U1DzBQEAAF33dqst81x7xeXSh6wOe4lRdSvAj5SrakydOaNN96QX//6125Auu6664KmWJUDlBhw72cSqQcMuKeKJ/FkpYE7N78HHHBA4gLGcvgIMUJTbKpMuNSKZdy5Etstsni/paVFkmKlAffyAfeRG7W4FzA15Dpsqky4GYub8sGjJ03woA0ZewPuYZK3qTJh8qI2NsaNmsZOAY/YOHLXlJgbTPpbTeB+2WWXOcAB8GDKTEgpBygx4B4i8e5t9rRPpbBv7Fwjc+y0WvN3Y2lXGrijQV5UxjaqrBNhvYgv5fARTUyDvgF3r4Xs32nAnaswTYZpUTvvvLN7GVf+lWPtNGYcwadraXHqz/6nURoa2qWuvtWAe76RZf1tU2WySqq3Hg5sc9x75ZH1V0w20YB7Vin31lu9erVsu+22wmu9n3766d4TGX+VA5RoQCTdgzYfTbHtIMMzY9UEJbG0BwK4Y8cXXXSRmzJz4oknuvgfa6dck3EE/jXFgHu41EoBd25ejz/+eMnlcu5FdYUzOPiba2iKAfdeqY3cqLn7BUwNto97r1QCfhlwDxDWhqoG3HUDjQH3cFsj2GcBsEz9Aqj7wt9HH320W5DKzhiAm9BiwD1UYt1PhpC1FozF+Ihl3MP1FRLLP/jgA5eJZWeme++91xHzYKzYdpFpPTLgHj6OoK9KLE7N19OKFSvkF7/4hVsX9OSTT/ac4kZp2bJlmeJxT6O8H95W8g5l/omt1FLGfSMH3JukIWcZ98xGkF/RgHu+NLL9Dgn2SVdkgM0CxpLaxgZ72w4ySarpx2ICLrYCkNOuxcgK3HnEy9tQmZtJRogBhwWpO+64o7z11lvpDBY5a8C9iGBSDiN7A+4pAko4hY/ETNNB3uV+c2pCN92hu+66y2Xd99hjD/emTUDk+eefL/vtt1/wVLTYWG4Z92JaKn68VMbdt2ShKm/OPfzww92NAm+ZPvTQQwW9I3dNiRlHag2419e3OtDemLOMu8aW3KM6gg/BM7TQBuBfrUdHBHstILLFqaHaFidrZK6xFajFZBOxMS1tgh42Dn1NiQm4yGoggPvs2bPdoqrRo0e7NwECJHgbIAOQ1kcMuIdbiwH3cJnhI0MFuOMTxx13nHR2dsoJJ5wgBx54oPMz5kUX20awmEQMuOswR6Uz7uhr3bp1svfee7sXcB122GEuA9/R0eHmv7PgX1NixpFaA+5k2hsb26Sp0fZx19iSAXeF1PwNixYQWcY9XOgG3IvLjHmXAPVRo0a5BXS87ZHfPNJ/6KGH1G+rNeBeXObFzhhwLyaZ4seHEnCHi7vvvtu9aRPwjq9xs9zW1ibnnXdecSYTzhhwH7zAnZ2EePdFvo5ZnExMffjhhxO0WfqQAfdeGTU1djjQniPjzl07GWAEFPLxoIDtgBgEQ9r6ulratGeAJAMcQ5tr+L6EfGOgzJ3S0KYN2UQtbQAscgvpr68LbWSmpc3jLu7c/fVCvmP5jrEVT5vvkD77ul999ZV7pOv/DvlG1uhbSxu+fdY9hC51aaelTX+xcewllK6nXS07he+0mMbNI/NreS27B+4ACT4MNLxU5MILL5SPP/7YPRkL4R+eY/jW6os+wrOWNm2J5drYQPs0mafJEJqxsVzrI8g7NpZradNOqy/kSd+1+mK3JOJaml6KnfPxNAttxgumou25557Ot/AvPvga0yoOPvhgN2UHnyxGL/+4p62Np/SHcSz/mll/l8NOY3xEGxt8LAe3ZOU1vx58F7NTcCB2/Pjjj8shhxwim2++eY9+va6JsVdeeaXbuSn/ull+x/gIfH/55Zeu7/QzC738OuiqGN/59ZJ+x9opdAtpN+Y6pL6uVerqWmQExsAHAYV+CLYIBgZD21I/hjZMYYgaup4219C0x/EZ5LR8Izctbdpp9UV/oa3tN0GPYK+RmZe5lnaMrXi+tf2GZ+aDatp72jF8x9gK+tb2GxtngNe0j7FT6MXYaSlbIdA+++yzssUWW/QAdz/I8E1GkH2JWaCKrzNwZZVBKdqlrqPVF9eNoU1bP8iV6mPS+Rja+Ea1Yjn2HRPL4TvGP2mfJM9Sx2LjCvGMG5ZSdIqdL+WfHjSxmwzTz/ApD9j9N9Modt99d3n99dfdDXIxWvnH4VsrM65DLGccy79m1t+xMo+1FW1soN/YOLEsK6/59dJiObGUhak///nPe6Yd5sdSfpOBnz59emYdZ6WdXy/pN3wT07RyQ18xthbbtrA9L2ACuG/0sybbDrL3QUT2XxgEzs9ju9Dip4xwB6gpOApGqin0FyfUTlfBAXB+TfF8a2nDMwBKU2Ifr9ri1HCpx9gptkLQ0toKtEvZyu23394HSHgwQSaQgYbskWaBqgf54RITF0+ILZq4Aj1ol+K7WL98Vi6GNtfQFGIh+kbvmkJsQOeaQtuhGMuRFbFcO44g70ovTsUeHnzwQdluu+0EkO6faHlgRyZ2q622cjfRWXUXG8sZvxjHNIV4hMy1PoKtxfgItDU+QhtsnPaago3R92KFmMNUKMA7sbNQz+h+4sSJ7ua82DWKHY8ZR9ATN6cxMTGN72J95ri3U62tJMXy+pHtUrdRm9SPtF1l0mRf9JwH7lonor024MYaMs6rBUQG3IuaRNETPthrbIWLEji0oAQb0wZ7Ao7PTBVlLuVEjJ0iq0oD97POOsuBCQ8iGGwAEj479NFHH6VwV/wUAXcwBfviPe17xoC7LgmDf1UjluMjMbQHArh7C3vhhRdkn3326QHv+cAOUAfoy1o8INLGUwPuWSXdW68UcPc1n3rqKbdLl79J83r2N2jPP/+8r5r5O2YcwVZqEbgD3kcwyGjvAmnHoyftXUUM7RhQgtVAWxtwDbhn9rueigRa5Ka9aUBf2jvn2GBvGfceNWb+ERNwKw3cuQH1r2P3mXYe5W+88cYyc+ZM+eyzz9R2asA9s4n0VCQOD9WMewx4jvWRGNoDCdxR9Jo1a9x8dm6M82+WWaB6xhlnZMYgsbHcgHuP22X+kRW4ez2TXfcLkAHvfJguddVVV2Wm6SvG+EitAfeRG7VJQ0OnkHk34O4tJODbgHuAsDZUNeA+8NMAYm5uCXq1mnFfsmSJezuqH1z4Zmu6m2++2d3Qc6OmTWYYcA+PDQbcw2VGPB1KwB0O165dKzzpYlGqB3R8M5WGOdhZigH38HEEW6nkVJlCvb399ttuqiFg3SdG0Dk7zgDEQ4oB915pNdS3S11du9SNtIx7r1QCfhlwDxDWhqoG3MMDLqLjSUNosPPaMeDuJdH3e86cOW4rOkADGcCtt95a7rvvvp75o36Xkb6tsv1lwD2bnPJrGXDPl0a230MRuMMZmf4LLrjAveiMKRUAOwDe4sWLMzFuwD18HBlo4I4iP/30Uzn22GNdfGWqDLrmKSc3byHFgHuvtBpznTJyJLvKGHDvlUrALwPuAcLaUNWAe3jARXQG3MNtjWBfbFoVIHHGjBku6wdo33XXXYU5uL74x6uWcfcSyfaNvLUyM+CeTcb5tYYqcIcH/POmm25yN8wAOvzwiiuuyGev6G8D7uHjSDWAOwrkJu2iiy5ya4fQM2+kfu2114rqNumEAfdeqTQ0kHEHuNtUmV6pBPwy4B4grA1VDbiHB1xEZ8A93NbSgDuPjNk7uqmpSSZNmiQrV67sQ8CAe/giTQRowL2PGWX6IwaUDGXgzg0evLOYcY899nDbCLJdYJb1Twbcw8eRagF3nIA1BVdffXXPuobQN+XG+IiP5cWSOKWcFDtl/NUUb6d8awp9Luw3mfaf/azFfWyOu0Kq1QTudDdLgCvGFo6gLRgS8yq1hcyatsCz1gmgGUObzEGhE4XwESPzGF3TxxjaLOKMoR/TVpu99XopZis8wuVlMIceeqh7nOvr53+ztzeDnaZAN4bvGDuFdjG+S/ECv/CtLdDVygyaMfqOkTdttdsD0u8Y/6KtFhgg62rNcYfvctnp6tWrZf/99w/aLjCGNjLTxnJshfZaH0PXWjuHZ2hrfIw2MXPc0XeMj9H3O+64w703g2mKoSWGNjFNq6/BBtyZJjNyZJv7GHAPtSIRtzsKjqB1IoB/YfDhBSTvvPOO2zua/aOLfd588033wopi59OOs7KfDCPBMq1esXOvvvqqLF++XNWWa/KYrJA2f7/xxhtu1wEWtRSjzUs6qFfsfNpx+IZ2Wp20cy+//LLAe1qdYufgD5kXnqdP8MT5Unyj88L2Wf5etWpVIu0sbekffNPHLPUL6xSzU44jD/qWxjfyLrSVQhrF/i5Gm/oPPPCAHH744cLWZO+9914/3uB76dKlopU5NpokM68Lvov129sp38XqpB2HttZH4Be+tbThOUlm6JBzXLeYvpGJ1r+QRzHaabLy52iLnWv59rbsr5f//e6776YC88EG3AE4vC04n4div5NiebG6hce9j2APyOjpp5924H3BggVFbcRfAz3FxHLGryRboy+MwWmlVoA7i++L+aKXc/43/omf5B8L+e39n7en8mQlJEalxfJSfcBWiGmeHn9//vnnmXHbYATuTJNhyowB9zRPLXKu3Bl3AsLll1/u5vxtueWW7qUUvJgi6ePOb5l8Lql+/jHa+k/+8ay/Y9pCw/W9gK/NNtvMPUbjLZZp/agE7TR6+ediaBdry6uhWRwJ//m0+v3eMllu/eoVyNWfT5K5P1fq27WNsLWtEtqyewvzHTfZZJNUvovJrVSfOZ/WFjtjMeo222xTlH5a+1L0i7WFX+bywn/qNRJkllo/X++01bYvh50l0PZ2zncxPorJrFj9wuMx7WPa0g/aF/bHH2e3lPnz5xcZRbqz9YMp485NyF577eUyo0k85R8rxnd+nWK/C2Xu/bFkLNxg6+Wknd/HP/7xj6mgbqgDd2yNzznnnJMaI/Nlwu9CfRWeL/W3b7/tttsKcSBEf75tKRrFzue3h/bUqVMl6zs6BhtwryPj3tAmuZwB96JBNe1EuYE7zuT3lR63yTjZZNNNhs1nzNgxDsCyh/amm246bD5jx451fPM9XPQ9btNx4vVdLV0DDvgMNH2v72Hn32OGp38Tz7hBPf/884sOJYMt487OSn77voH2j2r5JXz6ZMJhhx2WOpVlqAN3gCjbbk6YMMHt5DPQOoZeNWKv55NtfwH4ZOGzlMEG3OvrW6WuvkUacvbm1Cz661enEsCdO8HWllaZv2q+LPthmSz5YUnNf5b+sFQOOOYAyTXk5NZbb3VzD5l/OBw+Z599tjTUNcgx5xwjr/zwSs3r+qUfXpKnvnxK9j14X+ns6HSPXoeDnuGRePHb3/5Wmhub5dbFt8rLP7xc8/omfsHnfofuJ/V19XLDDTcMC7/2Ns1cXoDC7Nmz+40f/sBgBO5szXjiiScOK10tXLjQPQFkCh36K1ZqBbj7FyR98cUXw0bPxODJkycPceDeIiPrmiTXaNtBFvPR1OOVBO5/ee8v8pq8JiuGwb+VslKmTp/qgPudd96ZKvNaO3nuuedK/ch6mT5ruqySVTWv7VflVVn07SLZ77f7OeDOHMvhUlgLQzYP4H7n8jvldXm95vVN/ILPyYdPlrqRdXLLLbcMF3U7PlmMN1SBOy/KGU7lxRdfHJbAnbnuw6UQg6dMmTKkgfvIkS1SX0fGfRgDd8B34QLRrEYcC9wLdwNgqozPuD/47oMCoF0+DP4B5jxwZ6AbTiUfuL8pb9a8tl+RV+S5b57rAe4sLBouhUV/Hrjf8fId7sZ8OPg3CQgP3Hkr7XAqt99++6AG7uykUwjcmCpDxn24AXfe48AalOGWcWeDjeFSiMGhwJ2nL2AzTYEeOJFvTfFP7vLb1m3ULI25Dmmob5MRODAfiIR+WIW9bt06t01RaFvqs80eH21b6Gva0gaetbQJeMwVA4Br6OfTxjBwIOa4M1XGgHu+qdbubwPuBtxrHbwbcO+SWbNmuTGCOF84VjD+aMdexh7aascgxhzeEOz7BMDgqWdbW9uwBe5MZ2Pf8SRdIadYmeeP+17uWb9jbQW8Al765JNP3AJkngYNR+DOYlV2FGOaWinZo69q+WcSbbaDzDV0SkNdh4yg8xgq87dCP7TD+RFCaFvqQ5s7C01bFg5gzGTNNe2hzTU0baH71VdfqWjTXwJAPm2uN1gy7klTdCoFMCzj3j1VptIZ93ydJumy1PmkNqHHLOPePVVmIDPuXq+FuvLH+S48V86/Dbh3ucWpxcYYxj7GoWLn044njSNp9QvPAeIYw/xxUiT33HPPsAbuPBVjbPYyKfwG5zBWVwvv0DcN3qENugavrV27dlgDdxanLlmyxO0eVKjfwr/9DVzh8Sx/YyPoS2sr0OaTTyuX65L6+g6pB7hzEhCpKbTDILSPA2Jo+8Cl2UsdXqHNNTSFYMvdqoY2bWifT5u+DCRwZyoOg/bS/yztO3D/tFxe+tdL8vy3z7tpDUxteOEfL8jyn8o5nPdey4B7ZYE7Ol7232Wy6JtFTp+L/7lYkHk+YANQv/h/L8pzXz/nvvm7V0Pl+2XAfWCBu9P9j8vkpX+/1KNPjqGHF75/wel78Q+L3d/l03LfKxlwH5qLU22qTDIqAEQBxoYa3gFzgFfAa2Te/eLU4ZhxH8q7yjQ2jup+AdNGw3iO+3AE7gzcALf5r8+XEy86Uc68+sweEMfxhV8tlP2P2F/2mLSHHHDkATLl8Cly6uWnCjuC5IO9vsOz/i8D7pUD7g6gffeCzLhuhkw+bLJMPnSym2984zM3yvIfu3WG/O9eebf8ZvpvZL9D9pOJUyfK7cturwiYM+A+cMDd6f4fL8i046fJ1GOnOqDOsRX/XSE3LrzR+fW+h+wr+x+1v9z35n0VW1NjwN2AezIEHlxHbY774NJHJXrDzVboHHdudMCJmgI9ErTam7ykOe5k290LmOo7LeOuUcpQzLgDvMmqXnTnRXLujefKrhN2lRMvPrEHpJGFf+zTx+SAow6Qe9+8V5i+wa4QlVwoa8C9ssD9kU8ekeufvN7pGH0Cynfec2eZu2Su0+sjHz8iBx5zoNy18i5ZI2vkpudukn2m7SMPvf+Qu8HT35L1b2nAfeCAOz57xZ+vcIsjpxwxxQF3js15YY7bnvGhDx5yOxn96ek/CQD+ybVPVuTG3IC7AXfN+DrQbQy4D7TEB55erQB3su6tLaMNuGtMaKgCd6ZKzH9zvrz835fl+AuOd1l3ABUwi4GdAX3/I/eX+9++vwfQ94dg5TtiwL1ywN1rCRlz08a/ZT8uc1nYS+6+xO1scuHtF8ox5x4jL//0stP3kn8ukanHTHU3drTz1yjHtwH3gQHu6O2Rjx6RQ0891D098xn3FT+tcFuPnnvDuT3bzRIHpp0wTS6ff3lFbtANuBtw14yvA93GgPtAS3zg6dUGcG+XxlyXtDR3GXDXmNBQBO6AL8AbgykD9rEzj+0H3B945wH3aP2xzx5zGVgy7uUAbcWuYcC98sDdyx7gvORfS5x+r3zwSjf3+aDfHSSX3XdZz7x37OOE358gR555pJsbz9++fey3AffKA3f0xbqV484/TmbPne2ervFE5cXvX3S6Z+rMxXdf3KNvdMJ0uTOv6p0yF6vn/PYG3A24a8bXgW5jwH2gJT7w9GoDuLe67SCbGm2qjMqChipwZ1BlcCfzmgTc570yT3b/9e5yzMxj5NTLTpUrH7rSLUwtJ4DLH9gNuA8McEd/gKhrH7tWdt1rV+ElX89/97xMPGCiXPPoNT1Ajnozb5zpsvKA/HLq3YB75YE7T82uffxa+e3Jv5UXv3tRLpp3kRxw9AFuqgy6nH7edDnt8tOcvvE9buCPnnG0nHHlGWXVtfdxA+4G3FUD7AA3MuA+wAKvArlaAO519a3S0EDW3XaVUZlQLQJ3BnZ2kLnntXtkzvNz3Nxo5r+yOBWg7wfjcn4bcK88cAcw8+8PD/xBtt5uaznvlvMccGOnmYkHTnTz2jmP/vl37p/OlUNOPMRlaPm7XPqGhr2AqVkqtR0koH3+qvndU93W3O+emF1818Vy4LEHytJ/L3XrVW569ibZbeJuTueLv14sf/zLH51NnHGVAXfVQJDSaLC/gIltDe0FTN0KNOCeYsg1cqoWgHtjrlNyDWwH2WpTZTR2WYvAHYAGUCNLxr835A2348SOu+8ocxbPcWCvXCDOX8eAe2WBO2D5he9ekONmHyfb77S9mxbDMf6x5eekgyfJFfdf0SfjzsJlplqwjaQBd0106N+GQaOSb05Fnyww3X2f3eXQUw6VuS/MlbnPz5XpM6fL+CnjhUWoC/+60M1jn/PiHLcgGd3PvGmmnHLZKc4uAP7eL8v1bRl3y7j394bBd8SA++DTSbl7VBPAvbFL6ka2Cy9isn3cFRZSq8A9f8AGtJEhZYD/w4N/qMjiNQPulQPu6G/J90vk6HOOdlnWu169y2Vd0THneIpy1Iyj5Pd3/N7p1h876eKT5OxrzxYWM+bbQ+xvwKVl3CuTcUe2j3/2uMy6eZab9nLaFafJGVec4bYA3eFXO7inZkyPoh4+B6Bm/Qo6P/H3JwpT5DgXq+PC9gbcDbgrhtcBb2LAfcBFPuC5wT7NAAAgAElEQVQEawO4d0p9fZvUGXAffi9g8gCtcI47gy5gjvM+437vG/fKLhN2cZn3SgzsBtwrB9yR7Q1P3yDj9xsvD3/4sJs6gV75R3aV85fee6kcduphsuw/y9z2n098/oRbvMq2kZwvBGIxf2M/BtwrA9zRC/Jly89Vssp9vy1vy6X3XCpTp09161TQuZ/yBmjnidody+6Qky46SdhtKka3xdpia5MPnyx1I+vk5ptvHvDBupoEbapMt/R5+Q/7YfPyIgpvkvQvH+Q3n6QC0KId7f1vvguvl9Q29JgB91CJ9a+Pfgv1ha5K6SvfHrALrkHJv15/auFHagG4N9S3uWkyIzeyjHu4BYi4jfWH6ptTPXA/4owj3GI1D8g5zt7Pp1x6invMzv7fvJjn/DnnVyQbx2BvwL1ywB29slvIPgftI7c8f4tbt8D3zYtudnOheRvu4v9b7LaDPPnSk+XW52510yZm3TKr7NNkPLA04F454F4IngHqrGeYdMgkN10KX2O710vvu1TmLJzjFiVPnzVd7l99f9lv0nxfDLhbxv1///d/Zccdd5RHH33UgTimjF166aVu3D3zzDPl1FNPTQTvjz/+uEyYMEE+/vhjWbFihYwfP15Wrlwpf/3rX2WfffaRuXPnqsbupEYG3JOkEnbsvvvuk7333lu++uorWbRokey5557y7rvvyieffCJ77LGH/PnPf+53QUD6scceKxdccIE7d/XVV8tvfvMb+e6772T+/PlO55999lm/dpoDtQDcR45skbq6bvBuU2UUVjCUp8owqLKbBC/b4YUsAHaO8X3/mvsd2Dv1ilPl5EtO7nlRj6/jB+RyfRtwrxxwR2fMZ2bHEKZO+M8pl5/iFiWSfQXcL/p2kZx383kCeL/6kavdsUroG1oG3AcOuCNvFppfteAqeelfL3XffP+0XK5/4nq3Dew5fzpHnlr3VEWmwPn4YMDdgPvXX38tPH0AxJF9ffjhh2Xx4sVu1H3mmWfkqaee6snG5w/F7733ntx9993yzTffyOeffy533XWXrF27Vr7//nu599575bXXXsuvHvXbgHuU+Fzj1atXyz333OOSmh999JHTFyAe/c2bN0/eeuutfkTIqnND9/zzz7tzy5YtkwceeMBl3desWeOu8e233/ZrpzlQC8DdgfZ6W5za88gu1BCGOnBnYGVQ5Z8fZPkGSPvH7TxyLzyfX7ccvw24Vw64ox/056dOoFev2/z9+QHpScfLod/8axhwr/x2kPny5jdZ93xdcyzfJtBJYZty/g0tmyozu+jwwjQB7SvVAcGAWD/tpCiRIidsV5lewRhw75VFrf6qCeA+sk1y9Z3ClJkR3NFoP2wntW7dOndXpb1GNdvxSEZDn2kyMXzn0+X3l19+Kfvvv7+0trTKg+8+WNEsWDkH5thrGXCvLHCP1U852xtwH3jgXk79aa5lwL1Lzj33XDfG5Md8zZiT1Cbmmkw5Ydzx12XaApnxtrY2Ofnkk2sVvyXy5YH7IYcc4qbixMjVy7Pc3/RJ2y+y3h6vfPjhh24KSldXl4BjhkvxwH3LLbeUZ5991j0ZKLeOKn29kRu1SK6+Q3IN7TKCR1koFhAe+sH5v/jiC2cAoW2pD13oa9r69jFttbTXr1/vHtth+Br6+XzTB2RowP2O4RJDHJ8M6PUjDbgPB6UzaFRyO0gNqB6INgbcu+Scc85xY0SxsUY79saOf4B2wJwfv8jeM28c4H7KKacMB7fs4dED94MPPtiN68V0FSvz/HHfyz3rN33S2go4hWlGfDMFifUCwxm4P/300+4mqJTskXmaLZRqr9UX102iTaadHWXqRjbbdpA93hvwgyCHE/C4MrTQhqk2+Y84eVw6depUy7iHCnMI1zfg3n/O4xBWZ2rXDbjbrjJJBmJTZZKkMvDHPHA//PDD5YcffijaAeZkM/bjz5rCOO93TQltD16AthZzgFfgjaTjxIkThy1w32qrrWTp0qWZxI+utFPZsBFwntZW0FWhLfLiJbLudSNbDLhn0mBBpUrOcX/s08eErdz8nORa/n5L3pKDjj9IGuob3IKjAjHX9J/nn3++1G1UJ8dfcLy8L+/XvL7XyBpZ+uNSmXL4FOns6BQWMA2ncuSRR0pTrknYYvUdeafm9U3cgs/9j9pfRm400k3DGE76ZqEeWc3Zs4feHPfTTz99OKlKli9fLptssonUOnAHiOYD90JgWOtKP+CAA2SoA3dAe2Ou3YC7xlgrAdwPPPBAaW9vd2+5PPe6c2XGdTNq/nPOdefIzuN3do9njzrqKLnuuuuGzWe//fZzT1jGTx4vs66bNSx0fdofTpMddttBRnWNEm5chou+r732WvnVr34lHe0dctTZR8lw8W/45M3LrN0BFA0XfcMn8WyoAXd2axk1apTLyA4nXZ1xxhkyZsyYYQPc99prL+ns7JQrrrhi2PgkMXiHHXaQrbfeeshm3BtzzG/vEL5tO0gFci83cOdOmIGtta1VmhqaJFeXG5yf+pzk+JSxf22tbdLR0SFNTU1SV1c3IJ/6+npHr7m5WRobG4W/02hzvlSdtPZJ51paWhzfgJpyyrOs1yqzrhvrG6W1tdXdoDY0NJSUeZLcYo5hY8i9GrQ9340Njen6LrPMQ+wB/YTUz1I3q3+X27+8neDf+Dm6L0aj2HF/Dc039EjE+D3Lk4aZwTZVZsGCBTJu3DgnLw3PsW3wS+RWSl8xdNB1ob6xEfxz+vTpfaawFuqsFqbKMH968uTJjt9COcTIdbC2zecRu/r5z38ur776aqFqE/8ebFNlcrlOyeU6hP3cDbgnqiz9YLmBO9TY2/bss88WXkqR9uExJp+0OsXOkVnghRd8F6uTdpy2LFxKq5N27rTTTuvXlh0MjjnmGOHcWWed1e+8v14M31wjnzZ0Jk2aJJtuuql7mUcpedBHePd9Cfn2Mi9sQ3+OPvpot4NDpfguRruwL8X+hm+trRXT1/HHH+9uUk888cRUfcfYKbTz9Q1/yJgXt+y+++7upR/FeOZ4JfiGX27OTzjhhFQ7Kux3Wj8LzxWTeWG9pL9pC99J57Ico99co7Au8QI7R5/F7DzWTtP4njZtmrCTxK9//et+faOvsXwXs1N4Ou+88xL3r/ajy2AD7uy7fdVVVyXqsVCvlbBTxgF0tfnmmwtPoGfMmJFoMzG0scekWM7Yu2TJEq+axO+hDtzBLZQnn3wy0RcKdez/xpaTfNufL/VdzEdKteM8dGP0nR/Luc6cOXPcwtREBRccHJTAvbFTNtrIFqcWqCrbn5UA7tkod9fSLFDx1yf4aEvMQANN7UIN2sbwXEibO27e5pbL5Xre2pYmE/QN79oSI/NYvmNoaxdDeTnF9D1/8ba/Xsw3feGtfICCl19+OfVSbOsVU2L4jvGRmD7TNpbvGPox+k6TNwM1O6UwPYCt8AoLbbFzbYnxr5h46vutlVvSPu4hMoi10ySdsdMNuy95ffEEIKnE0GaxoTaWo+uhvDg1xs6T9JWkm6RjMT7C9WJox8S0wQbcybSTcXf7uMesdIYx7tK1jhRDO2aVNcYAbW3QqyZwjwn26Ann1ToS+8iyTZGm4HzITUsbfWkX08A37Sm8PptBnMdmDBJJg3khfzxehHdN8cFeG3zot3agifERZMZOBF5uobzH2CmyAlhobQXahbbyzjvvyC677CK/+MUvUrOg8M02t8Q2TYGuVmbQxkf41hRoF/Kd9TrwC98xtLUyw07RdyV8BDDI/txMkSLjVghe0BV2ruGb/nI97TgS6yMxtGOAO3zHxPI0H+Etqax/YX3AxhtvLBdeeKHbttLbsfcRra0wfsXGco2t0H9sLcZH0LeGb9pg44W272Va6hv71sY0aMfYaYyPoCdiWkxM1PLt7VRrK0mxHODuPpZx/08pm008b8A9USypB3HgmGCPA2kdEOcBBL7xxhsu084gzjy/Tz75JLXP/qQBdy+J7N8xARdbKTdwf+KJJ2Ts2LGy5557pmaWfbDXDrBpoKSU9CoR7EvR9OdrFbjD3yuvvOIWpbGW5sYbb+wDfogrBty9FWT7jo3lWXzk/vvvd4sJSbDsu+++LuHie8c4Qh80xYB7uNQMuIfLrBKxvK6uVX72syYZacDdgHuISQ7VjDs8Mnj7RTlsC/X+++9nZt2Ae2ZR9VQcbMCdKRNMjWLOc1ox4K7P9mtvdiqZcfe6vu2229zCSxanvfTSS/6wyyQacO8RR6YfAwHc6ciqVavEbaPa1CS//OUv5eabb3ZPH7EzA+6ZVOUqISvLuGeXl6+JnQ2mjDtz28m4A+BtcarXUsC3ZdwDhLWhamywj8m4A9J5My07FrBIjcx7SDHgHiKt7rqDDbhfcsklDrjz4qu0YsC9NoE78YNFcsQAbtw//fRTZwaWcU/zhuRzsbE8S8bdU2YqLjvzsDaFJyZMd1qzZo0/HfxtGfdgkbmpYFoAi63YVJlwmeMjfPLLyJHdwB3wbsA9XzIZfxtwzyiovGqxwV4L3HnRDwM102OY204WJ7QYcA+VmLjMWEywL+dUGTInDPjYAHtVpxUD7rUJ3NH5Bx984PYoxw5mzZrlps9hG5ZxT/OI/udiY3kIcPfUn3nmmZ5pjqxVefbZZ1XrEgy4e4lm/7apMtll5WtWYqrMyI0aZeRGTcIbVA24e0kHfBtwDxDWhqqxwV4D3JnDfsQRR7g9a5nbvGzZsvCOi4gB93CxDaaMO4M1C5F56Uippy0G3GsXuGPFAMAttthCNttsM3nwwQddNtGAe5h/x8ZyDXCnhzw5ZTvH0aNHO/1deeWVwuLjkGLAPURa3XUNuIfLrBLAfaONmuR//l9OeHuqAfdwnbhFlgR7Alho8UEPZ9CUGECEMfHYSrtbx1Ca47527Vr39kIeje+0006ycOFCjbhdGwPu4aKLsVN8pJwZ9y+++MJNkeJ119hFWjHgXtvAHf1edtll7unLjjvuKCtXrnSLlTkeWrDTak0DiKU9WHeVKaUD+s1bXbfZZhv3givejfD222+XatZz3oB7jygy/zDgnllUPRWJJyR4NXGFiyRNlQGw123UKj/7n2YZwcWpBIHQD+3YbgfFhralfgxtgIEHoVraXEPTFroAdwBwaHvawLeWNo92vUGE0kZPfqAJbUt99kQFxGraer5jbIWseynaGD1ZmOOOO87tBwxof+6559w2XKXaFjsPz/Be7HzacS9zja1wXXSNztNoFDsX4yP0GxvX2lqMnSIrBmitrUDb2woAh4F9++23lwkTJvRsX1tMZtD0W4gVq5N2HLpamUGbtlq+oe35Tutj0rnYWA5d7TiCnfobtaS+lToW4iPYA/OmeSkUb8tk8SPT6Sil6BSex06Jp9WI5bG0ScL4Jw2FfJX6G9qxdqr1EfSHrfH0dMqUKe4GjFfZ33PPPT0LCdP6X45YrvVPeI7xES3eQV/YPD6WJpti57Bvrb5i7TRmHPGxPCYmavmuRCyvG9kmDfUd8rP/aZERODAKpYOhH8AMIAmDCm1LfehqaUOTvmvoetrafnPXvn79ehXfvt9a2uWQmZY2gR5Qo5H5QPCNk5NRPemkk9ygzA4SjzzyiAO+MbYCzwT8avAd45/YipZv9IWNf/PNN2q+tb6NnOm31k7zfYQAunTpUvd4nf28GcAI5MV0Sdt169a5G7ViddKOx8o8hu8YWyGWw7dWZ/kyT5NP0jkfG5LOZTkG7RBbAYgA/AB8gHf2Cqd9ml0U60eMzKtpKzGxHFnE2GmsrdAev2bqDG9XHTVqlNvzfebMmW4dgwdNSTojlvuERNL5tGPeTkNsLf96sXxrZU5/ieXglvz+ZP1Ne/qetX5hPW2/uU6szMCnxLbCPmX5G9r0PUvdwjrlsJVC2vV1HdLQ0CkbjWyPy7gT6HAEHKXY3VracZitxh0ofYK2NlOCUgAA3E2m8Zd0zt+BAjKTzpc6FnsHSt+1fOMAMRn3GNroK+3OmYwZfeP1zLx5b7vttpPHHnvMydjLXKMv9EGgh/dSukk6j6wJAFra8B1jK8hcQxufxsahn8RXqWMxdkp/kZnWTqHtbYUMHTdv7AfN67NLXRO+GeR8+1J8Fp6nnVZm0EZf2ngK7Zh+w3cM7ZhYXg0f4c2czJdmCpV/3X2hPtP+9nYa459aW/G0S9lzsf4DCohrxc6nHYd2TCwvh4/QBwrXevTRR1285yZs7733djfq7mTCU5SYjDuyjvFPdF0NH0FWlnHXzSjR+mclYjmgva6+Q0aOtMWp3r+DvlEmQQ9QEFpoQ3sUqykED4KVphCMPZDTtCfYc9euKZ5vH3BDr/H/2TsPNyuK7O/v37EwM+QsKiAqUUVFRIKCkhEwYFYQQZCoIpIURQwoORgQEEQBRaLkYFhzznHXXd3d3+smz/t8zniGnp4buqvvBO6tnqen+3ZXdaVvnfrWqVNVpBmhl+4gT++++25dMqxjx46ycePGMqekm/cu5cVHEPak3eWwRs41bNJNmbscJjxcwibPwLgr1pLglPgakXNJN2EHsXL//ffrMoAPPvhg1s+RbpQRkDGXg3Bd88xwytXlIOxguuN8g/SS7iRhu+YZOKW8XXBKGl3rCHVz8uTJam7Ru3fvyBuyWb4SXyNy9izONWkdSRI2+Y1cczlIN/LUVZbnoo6EsfLGG2/IjTfeqB10RlrZaIv8CR/exj2cI9l/Uz9dZVp11hGT5Ulkomu6K0OW16vXXBo0OEm4+smp2XFbwQVCyxP3CtmS8UFSYU8FSlcBKY+ZM2fqNtmsFrF27dpycbFKFBb25Rxl+OGJe4bMSfMqKSnJJXFnAhuTlLGDzXaYsHclobkgJcTB5SDsdHUk2/cKkbiTJ59++qnuzMkSkZD4OA11dZKSpGHnG3GnLBkVZc13FDeUJyNsH330UTnoe+JeLjsi/fDEPVI2lXNknCOXsrx+/ea6+VKD+l7jXi6zo/7wxD1qTh13V1nEHYL4yCOP6FJ/bNKxcuXKCpogq0SeuB8vj2x35Fk+aNwhpGbLvHv37mzJVo2z17hnzaYKDugwuHZ2qkvjTiKQCZjUYS7Tpk0befrppyukLd2DpOQ5aefWa9wrlgxYeuWVV+Siiy5S7TvLAPPbDk/cLSeiXz1xj55X5tI4Ry6Je8NGzaVe/SbSoL5fDtLyOdbVE/dY2aWOK4O4803MH9hRj0Z32bJlKSNmlQj3LofXuMfPtaSkJFcad1YMOf3003VVmffeey9rQsCKJ+5Zs6mCgxOVuKNhh8yZHGFuzNGjRyukL9UDT9xL7cxT5U2mZ2AlzshG8FtRZTkjKeyUe/LJJ0vr1q0FczmbmJ7U7NGVjJHmJJ1bOmoubRh+UMKkMh0K5m26e0/c0+VM+ueGU1esUEc4gwekvW49NmBq4k1lghkT9d4T96g5ddwdwoN8c7WLROiFgbxw4UIlZa1atZIlS5aktQW3SuQi9EiBJ+7HyzHqXU0h7nv37tVVJ4YNG6aTTrPFH6x44p4tlyq+p24mISV01FzrJ7IBvLkc+KV+Q2rGjBmjE9tHjBgRieQQ3yRa76R1JEnY+WgqEy5/8od2gc4YCxawGR/ygDJ3OWy+kisZI9wkdYT0uNQR/HjiHr/EKStXrBjncMVKKuIOacdMplHDFp64xy9OUQLqbdzj5RzCI5fEnSFtVoRgKTDsGjNVEKtELkKPVHriHq+scZ2UlORK445dO6tNTJw4MSNGLIVgxRN3y43o1xOZuCPLOd5++23p3r27mligoUXTmOlAniQhz0nrSJKwC4G4W9kdPnxYBg8erHbv5557rpJ5FwWSJ+6Wo9Gv1VlHTJaHFX5RY1/TiHtJcSOpW6ep1PU7p2YWzOkK2Gvc0+VM+ue5IO5UJL4DGTvttNPURIYh7kyknRh54h7fRIg8g9C4ahySkpJcEfeHHnpIG2zmQUQ5TNi7asZoJFzzzHDK1eVIpaWJ+h3SS4clSdiueQZBpryp2y4H+Q3eXA78gnNLN0tEtm3bVpgvE7SNTvXt6iQlScMuJOJO2bGe99SpU7VsMZ+ZNm1a7FWEPHFPVQsyP0uK0yTtCHUamZYvxL1unSZSv14zKSlp7DXumWGX+q0n7qnzJdNTKnBSjTvfWL9+va4agF37nDlzIi3TSAUmbPy7HF7jHj/XkghcyikXxJ3v0EDTUEeddGjC3pWEeuIeHys1ibgTlxkzZqjWvU+fPvLhhx+mTRD4SqL1TlpHkoRdaMSdQqROo/RhucgWLVroakKYzkQ9PHGPmlPH3VVnHTFZni/EvaSkidRv0EJXlvHLQR7HWOQ7T9wjZ1WZQypwEuJOg/r8889Lp06dVOjGWbrNE/f4HRby7ETWuNNIQ4zY2h4NajbtqQHVhL0n7pYj0a40jq55VpOIO6lFOzto0CAl72PHjk2rza9OUpI07EIk7pQtnZ0DBw6ovTtLRnbu3FkWLVoUSQHkiXs0WRB0lRSnSTq3JsvzhbgXFTWROnWaSXGxn5waxFjke0/cI2dVmcOkxH3r1q26Mgj2ymxz/fPPP5d9O9uNJ+6FR9wR+IyU9O/fXxtnNmiJcpiwdyWhXuMeJZfLu6lpxJ3YHTt2TLCHbtmypdpEg4vwUZ2kJGnYhUrcaTeoo5yY0bHvB7sqs3kTK9FkOjxxz5Q7qd8lxakn7sfzFVMZ7NtLSvxykMdzJcadJ+4xMut3p0mI+549e7QRRUMybtw4JWRxYuCJe+ERd8r83XfflfPPP18uvPBC+eyzzyJBxhP3igQ1SsZBhFw7OzWRuEPSFi9erGZWmFYcPHiwQjZUJylJGnahEvfgOu6U8fbt2+Wyyy5T8s7uuc8991xak0pP3CtUgawPkuLUE/fjWVznd+LuJ6dmWTXgeJaVv/PEvXx+RPnlStyPHDki3bp1050vR48erWvxRgkv6MYT98Ij7pQ/jTKTmGmYabCjHJ64e+JuOKEzMn78eCV1LBHJOuDBozpJSdKwPXE/XpIff/yxYBLFvCnkBSsK/fjjj8cd/H7niXuFLMn6IClOPXE/nsUQ9zp10br7yanHcyXGnSfuMTLrd6cuxJ2NUNgBj+3q2bY+21Bmulh54l6YxH3VqlXSqFEjueqqq9JBo8JzT9w9cQ+CApnD7puYU0yfPr3cPhTVSUqShu2Je7CUS5evXbp0qS58wJrvQ4cOlXfeeaecI0/cy2VHpB9JceqJ+/FsZjUZSHs9dk6lAjNhw+y+ol4ZFsUvE3lYUiuqv6A7/EOCg8+i3uOPHdCiug+7cw2bdGMnR4/cNd3E29Uv6Sbu4fRE+U2YScLGZhitU5SwUrmJGjZD59gk9+3bt0zbRQOa6ptRnpFu1zzj+6SZtEcJK+ymunBKPKy8w3GK8hu/YPyXX35RE4gofoJukuCU74AVvhH8ZtR74s45c+ZMJe4sA0ejG8U/YSLTCJ+6HsVP0A2y1BVrxBm/XIPfjHpP2ElluWueu4ZN2giT/I6azrA78swl3pQv4aaT5bynI8f8mvbt2+skZybIgyXDRhKcEmdXrJAHScJmBMqWygvnZ5TfSXHqmm7qhitWKDMm3KeS5byDJO7atUtJOx21Cy64QJYvX67Yok0ynLrWT1ecUh5J0o1fyhreYriNUsbmpjpxmlSe5pMsL6nfVIrrNpFiNO6AqbqEfRIgWyUycMW9Jgk7F8Sd+MeNM+6TVCKr/K6CJxfEPVuaaSjZmr5fv35KutB8fPDBBypwKLNs/lO9J72ufvkeQi+VsE8VVviZ5Xn4edTfSXCapI4QbyPuUeMadJcEp3yHxtkVp/inzG655RbdfOmpp55SAhaMX7p74o2wJ99dGrkkDQ1xSoJT/FanLHcJmzRXZx2hY5qOuBM3yBxXOoFMjMdsD/M95BTPk5Dn6qwjyLMTkbhbnrvKhkxKGOo75frNN9/omu+tW7fWDf6YV8UcGcg7GHcNu7pleXBiLvkY9UyCU6vbfCNqeEF3ScLGbz7J8jp1m0pxSWMpKmno13E/PhAR/Q5A0HNnGCjugR/8IwRcjqRDRwgeNEYuB41UVFvh8Pct3dnCxt5w4MCBStpZko3fHCYsw9+N8hthTJ67lBffp5Ej7S4H6SXPXcMm3ZS5y2ENjUvY5NmJuhwkcf/yyy9lwIABuioIHcGoB34hNDTiLgeNDmXmchhOuboc1uC5+CW9pDtJ2K55Bk4hNS44Ja1J6gh+wXm2dEP4rr76ah0BvOmmm1SeEDZ1uzpkOXmVJGzyG7nmchA28jSbLE/37VzUEVesBCenposfzynTjRs3akcN7Tujv9u2bVPymclfpndgLUkdcW1HyCswjn+Xg7xwlWlJcZqU71jn1CXdlJVruitDltfBVKZOY6lX1y8H6VKeKrQ8cY+XdVGE/ddffy1XXHGFYGN46aWX6qogFgoVCIHvclglchX2nrjHz/UkApdygli4EgP8Y5/atWtXNXFAqxr1ACueuEfNrePuqJtJSElNJ+6k9E9/+pOcd955utIMO/GCsyTkOWkdSRK2J+7HsZvp7s033xQ6akxcZQ+Rhx9+uMIk5Uz+g+88cQ/mRrT7JHXEZLkrb6iJxL2kuJFw+g2YouGnnCuvcS+XHZF+0Mhl0tIwPDly5EidiMpksNdee63cdz1xL5cdkX6gKXHV0iD0TlSNO1hjR0TskukAxhHcJuxdSShh1SQtTSSg/L6rpNe4Z88tJjyfcsopuv43y9RSxzhdjiSkJGmnwRP36CWGicncuXOlVatWuvkfa75/8skn0T/wu0tP3GNnmY42J5Gn+aRxZ2KqrizjibubwPXEPX4FzETcGYa+9dZblbSziszrr79eIQBP3CtkSdYHhUrcId8vvPCCnHrqqcISonE09564u5vpuHZ2wOmJoHGnwpHGO++8U9hTYvDgwU4EziquJ+6WE9Gv1E/aX9oTlyOqqUyqb+/YsUP69OmjZpzdu3dXU5o4ssUT9wL6dXUAACAASURBVFS5mvlZkjpisjyO4iYYm5qmcS+p00g3YKpbv7nXuAcLKuq9J+5Rc+q4u3TEHY0wQ5GYx3Tp0kVYAjLV4Yl7qlzJ/KyQifuKFSuUXKEpi3OYsHcloV7jHie3S92eSMSdGH/xxRe6RCTknfW/kWEuRxJS4jXuVU/cKeMPP/xQRo0apUoBFAPz5s2T77//PlLxe+IeKZvKOUpSR0yW5w9xb6gTU0u8jbvXuJerJVl+5HpyKrbjEydO1NUa2F6cpbjSHZ64p8uZ9M8LlbiT7nvuuUc7gyznFucwYe+Je5xcEzVHcs2zE424kzP79u3TNb/btGkj69evj5dZv7tOQko8ca964o52HRLI6NDTTz8tHTp0UNMZNng7duxYVgx44p41iyo4SFJHTJbnC3EvrtNQapc0kJI6flWZCkCJ8sBr3KPkUnk3YY07wm/atGlK2jt37qxrJZf3Uf6XJ+7l8yPKr0Il7gj7K6+8Um1SX3zxxShZVebGhL0rCfUa97KsjHxzIhJ3ErdgwQIlbsivt99+O3J6zWESUuKJe/UQ9+DoyoEDB+Tyyy/XlYbOOeccWb16tZrxWPmGr564h3Mk++8kdcRkeb4Q97r1G0ud+k2kXn2/qkx25KRw4Yl7ikzJ8siIO84g7diJ2iQvltnKdnjini2HKr4vVOJO/WRFmdNPP11oXOMcJuw9cY+Ta4WncSd3mPiGmR/ru1933XWxl1dMQko8ca8+4o6MsINFFWjLTjvtNDWfYQT5888/t9flrp64l8uOSD+S1BGT5flD3JtISb3GUqeuX1UmEnjCjjxxD+dI9t80NCa4HnjgAV1ei1U/Nm3alN2zX8c9Uh6FHRUqcWeXXUj7+eefr5t3hfMl028T9p64Z8qliu9oHF3z7ETVuJML7PDMDpstWrSQhx56KOt68MGcS0JKPHGvGcSd8gT7GzZs0KVCGzduLJjO7Ny5M1jUem/tX4UXER4kkeVgxa/jHiGTQ06QZ5SZy0E7Ak8MdvLifAdMhTscdeo0leI6jaROncZ+cmqczDS3nrhbTsS72rJaJ598shIr7ASjHlSgMJCj+rVKhABzOfw67vFzLSkpYVQmzooNwRhu375dR3OGDRumWtHgu2z3nrgf1yZmy6vge+pmoRF35AnpXrdunbDL5plnnikvv/xyMFsy3ietI5htQOhcDuqX34ApXs4hj8jzdGTs/fffl+uvv17n1rRt21Y7csE89sQ9Xn7jOkkdMVnuyhtqGnEvrttEte1163lTmfhIEtGelN+AKV7WUQnmz5+vhB2hxnrIcYiZJ+7x8hvXSbQ0CL0TdR33RYsWqd3p+PHjYxMbE/auJJRGoiZpaaKihvT6ddyj5lapO4g7ZU09mz59uo4issNmOlOJ8NeTkBLC9sQ9nKPZfydZDjIbcSd0vs8mTe3atdONujChevfddzViSTu3lLeL8gk/XuOeHRthFzWNuJfUaaoTU2sX1fMa93BhRfntNe5Rcqm8m6VLl6pWCm07xCoOaedLnriXz88ovwqVuDPpuVGjRtpRjJJPQTeeuHuNexAPme6NPOPmq6++koEDByru2JMCjXa2wxP3bDlU8T31k/bXhcDytcom7oRB3Bh5YfM35FDPnj11VCaTtr5iSss/SSLLPXF323G9phH3+vWbSt16jaWouL4n7uWrR7RfnrhHyydcQdBZU9sm7yxcuDDtUGOmr3rinil3Ur9LIuxPVI07wvaWW25RbdfatWtTZ0yGp564e+KeAR7lXhlxp55xHD58WFhdhPW9WWEk2+GJe7Ycqvj+RCDuFuuvv/5abrjhBl3dCoXVvffeK9999529jnVNIss9cc8P4l4X+/a6jaSkpKH8ARLKEA4VIu4JmWJ4FVDF9WsV0DVsGmh6sBBD17D5hotftCns9ukSNn6IN0LbJWziTJm5+LXK7xr2L7/8onaRUcMmrWvWrNGt52nMZs2aJawFH9V/0B1pBm/BZ1HvLd0u5UUYDDOS9qjhBd2R19WF0yR1hDwD46YlCqYpyn0SnFJO1LG4OKWBQh6xRBv2xrt379bGMUp8zQ3p5huuWMNfkvqJX+Jg8YlzJewk8U4iywnXVZZTzpS3a/0kz1xlOfgG5y55Tnzxb2EDNhQTTFRliUhb0ShdGSatI4Qdt45YXJDDyDX7Hedq6XYNO2kdId2uWMHmPKksj4oV8AA2MQs966yzdEO4oUOH6h4AvENeRc138to13eQVGKeORQ0v6C4XOLU6EvxulPskYSeV5cizmiTLi/5YV2rVqiO1a9eTP1CBKVBAEeckQVQAdg1z8U9YrmHjlzAJP06cg24JO/g7zj2V/4cffnBON/F2zTP8ucbd/LqGjaCncc+WV9aQPvPMM0raacjYEAf/VIZs/lO9t7inehflWRKskGbiHiWcsBvinaS8k9aRJFgB4wwth9MU5XfS8nJJN0L+gw8+0F0t2dCLtbV5FiW+5oZwkWlMpAbH9jzqNRfpjhpW2J1LnvGNoCx3xYtr2ISfizzjG+H8iPIbfCeR5cF0Q0h//PFHGTNmjLC6CB1IfqeTeUnSbX5d0408I25R8iiVmyTy1OKe6rtRniUJGwJblbKcskcGscrMoEGDdO4NJB7TUbAHIY8iZ5LkGX4pa3hLlPwNu0kSNt9K0v4lCRu/1O18keV1ihtKcVEDKSr6fQMmwBWl9xN0Q28RQQWpce39nqhaGgCBAHBJN34AM5U5mJ9R7/FHRY/qPujOwnbVlFABqfzBb6a737Jli2qdGCJk4hYNHDiLqq0If/dE1tKAFxeskAeUtStWcqGlAatxNENWbklxSp7FxSlaLHYwPPvss4VJgjRWceMOPvEH3uL6Je25wGmSOkL4VgZRr6STukm6k4Tt0o4QR8q5OuoI6aZ+5UrjTlo4PvnkE+ndu7dqWFFYkC+psJS0jlA349YRwwTyOKosNz92tXYkCVZc2zDCJN2u8hSyTDtmaYlzdcUpZc+Bmczdd98t7LbbvHlzNen77LPP9F22eBC2a7rJKzor1LFs4aR6nxSnLrLc4kHdccUK6Yaf5ossr1+3qdSr21RKSvxykFpp4v4DSFQEq5Bx/FtjgQByOajAANHloDJY5Xfxj7BH8GU72FCpS5cuKpwmTZqkghI/5BuVyeUgzVRil4N0E7ZLeREeDRxpdzlIL3nuGjbppsxdDmvkXMImz8C4K9aS4JT4GpGLm26WgmQ+xVVXXaVlHtc/6UbY01i5HGDUNc8Mp1xdDsJ2rSOkl3QnCds1z8Ap5e2CU/IpSR3BLzh3STfxpW6nkuXsT8FeApwvvPBCyuJMWkfShZ0ysNBD8hu55nKQ7iSyPBd1xBUrtF9JZbkLVshnypuwN27cKN27d9f2sX///oKSK9uRRJaTV2AcvLgchO0q0zLVkShxSVJHKCdkWhKZ6JpuwqaOuGIllSyvW6eJEneufyBirgIXf2grXCOXJOwkQAYwhJ1K4EYBEwXiiXvqnMKumA1J2E2QXeTIJ46kwp7ycq2AVolchb0n7qnLOtPTJAKXcnIl7sypaNq0qYwbN86JCIIVT9wzlWzqd9RN13YEOZxvxB0czZs3T+Vgr169xDSrwdxLWkc8cQ/mZrT76iTuQc6BGd/VV1+t8yHo3C1YsCCjUiwJ30GeeuIeDR9BV8gzyszlMM7B1eVIRdzrlDSWOsWNxRN3R623J+6pociqCtgWY9POyh506uzwxN1t8ycEBw28y5FE2CNwEPaugispKXEh7mAMstSwYUOZO3euS5apEsIT9/hZ54l7xTyj/jAZkY4kq4uENZ5J64gn7hXzPNuT6ibuwc4tJjsQ9jPOOEO17xB5NnFKdSSR5Z64u43U1zTiXq9OU6nribvXuKcSEJmeZTKVOXTokK5Xi6b95ptv1gl+wW954u6JexAPme7Bigtxh8jQYQSDaN5dDjosnrjHzzlP3FPn2RtvvCHdunWTli1bypIlS8o58sS9XHZE+mGaTGSEy1GTiLvFf+vWrdKvXz+duNq1a1dZv359hdFlT9wtt6JfTZYjm1yOGkfcsW8vbqSnN5VxKFGvcS+faWgJ+vTpoyspoDVgM5Lw4Ym7W0PjNe5hJKX//c0332jnkQnRjP64HCbsg5qxON+hkXAdpTBSwtXlIOwkjRQdliRhu+YZpCTfTGWC5bdy5UrdV4DVRF599dWyV564l2VF5BurI/lE3Ek8bSY7PZ900km6UeGUKVN0srhljCfulhPRr2AFmZZEJtYkWc7E1OKiRoLJjCfu0XFQ5tIT97KskA8//FB69Oih2oLhw4fLt99+e/xl4M4Td0/cA3DIeAtWXDTu77zzjrRt21aHntPhMGPAIt5UJkGnwRP31OgCz2PHjlWTmSFDhugSdbj0xD11fmV6mq/EnTRDEtm4i1Wx2HGV5SP37t2r2QGGGFHkGvfAj7dxj5tronN2ahJxL918qZG3cacX63J44l6aayx7RkOEacKIESPko48+SpudCA/yza8qkzaLUr5AcNDAuxxJtDQ0kCeajTsTo0855RRdCpK1e10O09K4klCvcY+f6/mucSdH0KiyRCnLAKJNBSek25UYGJFzbcPoGPtVZeJh1VYIQ0a4HJR1FLkCWWcPALDCTrzsPI6JD5jxxD16zpsszxeNe0mdhlJc0sATd1eh54m7yJdffqlkvUmTJnLppZfqxjeZqpQn7vE1JeSnJ+6ZUFX+3bPPPqsTo2+77TbV2Jd/G+2XCfsoDWyqL3rinipXMj8rBOJODrz00ku6oy+mXM8995xmiiup8MTdTZ7WRBv3VLWDhR3YA4CFHlBG3HjjjfL555+ncpr1GVjxGves2VTBAW2Aa8eadgSe6NrJQy6EZQPrt7P5kl9VxmvcK4A10wMmp6KpYWdJ1slmtQRIeyZNu33PE3e3hsYTd0NQ9utDDz2k8ywefvhh51EKT9zdtIk0Mq6dnUIh7iD4scceUzLGOt5Hjx51btg9cXeTpycKcQcraPg3bNig83YwnWFTr82bN8cetfbEPT8mp0LcOT1x98Q9OxsKuKBx/vjjj3VpM0j7xRdfrDtVBpykvfXE3a2h8cQ9LaQqvGCzLzRUrMrgapLlibsn7hWAleaBC3lGk4rSAyLGRH6UIC6HS9jBcLypTDA3ot1XlalMODYs/nDttdfqykStW7eW+fPnl1tqOew+/NsT9/wg7rVq1Zfi4kZ6+smpYZRH+F2opjJM+Bs5cqSSI5Y4Y6mzqIcn7p64x8FK3Mmp4OuKK67QiansnuqJe9TcLnWHttyvKhMvz1zJM5sxIT9ZQYTRIZfDNWwLyxN3y4no1+oi7sSQuvnggw+qqRW273T6ora/YMWbykQvZ3NZ00xlatduUErcixr5VWWskOJcC5G4M9kP22E07Qzz7t+/P06W+Z1THVYDIIO9xj0azGhUIUNsAIYJgifu0fLNXHniHn+kIQl5Zj4G2lN2zXz55ZetGCJfk4RNIJ64R87qMofVSdyJBG0B8yQwT2VuGbIu1ZrvZRH+/cYT9/zQuGPfjsa9qKhBMuLOahcM/QEMlwMgJrGLDO9EFycOhJ10cmqc8IJuIf6uYediCbG4EyawC8QMgdVjWKoquBZxMF3Z7pNM1qC8wpM1soVn78EnYbserL6Afb/LQV4nxWnSVWVc4m3Cnnx3OZLglPAgFnFw+sMPP6g2CvMt5lzE8RtMH+lGu+Wa52DUNc8Mp1xdDsJ2rSOkl3QnCTuJLKe8XQ/y27W88Is20jXd1G0XWY48mj59uq4c0r9/f53sHzf9hO3aQU1C3IlnElmeizoSN6/MfRIbd5PlrlgBa0nqiLVhjNiw5vupp55atuZ7tomr1aVxJ99d6wh+k7QjlBMyzTXP8VeTZHnt2vXVxp1lIf+AJpWtd7nGPQHDd999p0sVxfWb1D1xdo23he3qn84Kton2HZera9guYQX9xAkXsgrwp02bpvZ1HTp0kE2bNjmnO07YwTjbfRL/SfxS1uSDxSPuNUnYccMKuidc17Bp4Eg3dTz4zTj3rmETRpy4Q0LYfZDVF1hGjYaNxiJOXM0t6UamuaY7SZotDq7XOHkWDoPOaRJZniTdSeIdTkfc35QzOKfc4/rFvWvcka3sgYH2FNOHcePGaTx4HjUeSfIceZakDUsSdhK/ludR8yjs7scff9SNjcLPo/5OGveo4WRyh2zDbPXxxx+XTp06qfZ94MCBqo1HFnKG/Sdpw0hzknQn9R9OS9TfSduwJGmOGsd07lLlWfHvE1PRuv8BBwgLlxNhDyBcv+Hqj7hawlzindQ/wh4NX9L4J4l7Er9R4k3lR7ijFULTjoB45plntIHjnUv4ScosiV8rb5c444eyprPm4r86450kbPySbrBeXekmDlHCRity//33awM2ZswYXZ86CUaRaTbKEiX8oJskec53oqY5GKbdJwnbGjnX8F39WZqry39SWZ4kz8HtK6+8Ip07d1bFyOLFi1XDaOWZ7ZokbOQZ9TtbGOneJwk7iV/ig/908cr2HOKeD7Ic8g5+jhw5ohs10fnD7OqRRx5RUo923vKC/DpRZLnFOXh1LW/8JZHlxME17Fz4DYfNajLsmqrEncJPMpRAJaiuoSPA63qQbpchTsKjUiDwXQ/8u4addOiIPIsyvEr+sLwew3EdO3ZUTTt+6SG6HqQ7Stipvk98XM0AwCdhux5G4lz8m12ki1/8kG5XMwAw5lpHyDMwTvguRxKcEh7EOw5WRo0aJfXq1ZM5c+ZodF1lWtLh1VyYAbjKU8J2rSPkFx31JGG75jk4pbxdjyR1BL/g3DXd1C9XWQ6+ybMlS5aonD3//PPl7bffjpwNScImv5FrrkcSWZ6LOuIabzqokCqXw2S5K1bAWpI6kk6Wf/311zJ37tyyVWduuukmYXPE4AHG0/kPukt1D75d2wG+lwSnSdoRygmZlkQmuqabsKkjrlhJJcsh7Xb6VWVSITXLMwrEVdhbgboK+yRANhu9KIRo0aJFaj/Xpk0b1bSbXwSfy2HpjhJ2qu9TgVwrIHFPUolyQdxdKzDpTkrcXcImz6qLuBPfTMSd9zS+lCn1iOvQoUPV5IBJfxyuOCPdCHvXBjYJKTGccnU5Ugn7qN8hvaQ7SdiueUYZUt4uOCV9SeoIfsG5S7qJb1JSQt1GpkK2WCJy+PDhqiUMlhsmNWEZkDTsJMSdsKlzrnUsF3XEFSu5IO4uWDGcJqkjYC1duqlD69atk4suukhxxFyfLVu2lOG6uoh7Upwm5TvVRdzBCHXEFSupZHnduk2lpKSpbsLkiXtQQka8p0DygbiTDraJD2peEAArV64Udvdr27atrFq1qixXIEueuJdlR6QbGrdMAjfbR5KQEsrSNWwETk0l7uTZE088IWeddZYMGTJEbrnlFr0HrwsWLNBl0iA7jA6la+jS5Tvp9sQ9Xe6kf05Dk4SUFCpxp35zoCFlgx1MHubNm6fPwC94hoSFJx8mJUSeuKfHcro3JstdyRhlnaSORJHl7733nlxzzTW6ZDOrFj3wwAMqxylv/LsctCOG07j+k+LUE/fjOV5S0kRq1WootWolXFUGEGIqU5OBfDzZ5e8AIoB0OfKFuL/11ltqXzlx4sQybfaaNWsELftpp50maN2DgsYT9/hoMWEfl0BaSOA0rG2zd9mu+Uzc165dqyNCLVu21CFiTLpatWqlnc127drJBRdcIKtXr44tmzxxd9f2B2VFNmwG34PTQifu5Mfzzz+vWD7jjDN0kx22uYd80SENLxmZlBB54h5EYLR7k+U1ne+giFu4cKHOS2P5ZtZ8Zy5FuH7yDA6Q7fDEPVsOVXwPRnKtcYewQ9yLi5skWw7SE/f4y7YhcClQ105D0h4ovW4EEMeMGTN0ExBIDyvHLFu2TFg5BjLExiDhOHriXrGCZntiwt4T92w5dfw9eQWxMJwef3P8bseOHdK+fXsdGQK/wRP8Mpn6wIEDxz1EvPPE3RP3iFDR0RzkaVhORvWfSpbPnj1bV0dixJMNmsA1VxYJCB6euMdve8m/fDWVCWKDe/ABMe/Tp480btxYl3F+6qmnypRAEHZk5OjRo3UCZth/8Lcn7sHciHZfKcT9j/WETZjq1GnmiXu0Yijv6kTXuJOa1157Tc0LaCBoHFhKjyvadpvgVz7VonbF3lQmnCuZf3vinjl/Ur2NQtzfeecdufDCC8tp29G4g2GIO5uFuYxUeOLuiXsqTKZ6lpQ8h4k7o9f33ntvmTw2PEPcL7nkknLmMknD9hr3VCWa+ZnJcmSEy1EVpjLheH3zzTdyxx13aPsOntiPBdLOaA5mWbT/mNOAp3SHJ+7pcib988og7rVr1RfOkiKvcU+f8xnenMjEnbgzUnLnnXeWaXQgO5xUYkwMmKWe6vAa91S5kvmZCftMgjHTF7ypTOrcoQM5aNAgbXzALo2SER3MC/bt25faY5annri7kRJv454FWCleQ9zJN2TEzp07dQ+CFi1alMOyyWYUK0w+tMMT9/RE0/Io1bVQNO7BtNNJe+yxx6RLly6q1GATRUxhDVusGrdr166gl3L3nriXy45IPyqDuBcXNVTiXlzUyGvcI5VCyNGJTNyphEzc69WrVxlxN8JjBOjmm2/WzVhCyfYa93CGRPjtiXuETAo5gZRkM5XBDThFaxQk7Wjb2cyGDo/L4Ym7J+5RcZOUPEPcUaJwffDBBxXHZh5jmDbZDM7vvvvuMrOcpGF7jXvUUj7uzmQ5MsLlqA6Nu8WTic6s+d6jR4+ydt/ae2Rm37595YsvvjDn5a6euJfLjkg/KoO416nTWEqKGwnruftVZSIVQ3lHJypxR9gTd4bGaCCCjYM1EFRmliVjKI3NKoKH17gHcyPavQl78t7l8Br39Ll233336SiRYZcRIzaz2bt3b0b7+PRfFJ3M6leVyZRDqd95jXvqfMn0NGgqA4F/4YUXpGvXrmXmX0aswDfkql+/frriEd/0xN1Nnhaixh2s0Ha/8cYbulwkozfBth+cwQcwqaEehw9P3MM5kv13ZRD3oqJGuvlSvXpNPXHPXgQVXZyoxJ2UUHmZlGKV1xoHrjzjHDZsmK7IwXKAwcMT92BuRLv3xD1aPgVd0dBk07jjnlU4mJNhWGaHXyZboV2CCLkcXuPupk30xD0+2oLE3Xyb/bHJYuSynZg3HDt2TJ164u6Ju2EmyvWzzz6TESNGlHUKg8Sde/AGvoLLP9t3PXG3nIh+rQziXsKuqUUNhavXuEcvizKXJzJxnz9/flnltQYBbY7Zt7PtNhrHVIcn7qlyJfMzT9wz50+qt1GJO7tMsvQjOAa/dEjRtnOk0hylCiv8zBN3T9zDmEj3Oyl5TkXcCQutMLtWsywkstnkNFrRWbNmaXSShu1NZdKVavrnJsuRES5HdZnKgJVHH31UZSR4AkcQdXBlBN5kKPbvr7/+ernkeeJeLjsi/ags4l5S0lBKiv067pEKIezoRCXu3333nW7mQeWlwkJ20FKyOgcV+6uvvgontdxvT9zLZUekHybsEZ4uhzeVSZ9r3377rXTr1k0bITA9fvx4NSGgofHEPX2+pXrDCAUddldS4jXuqXI187N0xB1fyItt27ZJ//79dTMdiBbyGlMaiD1HkqUoPXHPXDap3posd60j1UXcSQsbMz355JMyZcoUufTSS1W7zhrv1jE0Ag+pv/LKK8sp7zxxT4WGzM8qg7gXl9SX4pIGUlRc32vcM2d/6rcnInEHSPfff79WVBoBKui5556r67e/++67qRMaeuqJeyhDIvw0Ye+Je4TM+t0JeRXFVOaXX36RgQMHKqGh4Xn11Vf1CxAiT9yj5zcuPXGPr0UFp0nIcybibqX30Ucfya233qpEC+J++umny/bt2/V1krA9cbccjn41WX6iEXdwyqZM4I3j+++/VzPDyZMn66RUG9kxLTzcYOrUqSqDce+Je3SMmMvKIO5FRfWlVu26pcQdEkpPEFDGOYkY/tDSULBx/JpbwqaBtd9xrjQ0CJ9sYacjTPhzPQgb0uB6UIHSxSvbN/HnEnds3NhSm+XGMC+466675P33388WXLn3lBd57nqY4HDxb+Uc1S/4NDwRrjVy9izOFaFHecfxY26j4tTch69R6ki6hgSsJMlzbMVd/bvi1MqXfIty2Moy1113XVm9sLKP4j+VGzSalIPLgT+X+mlhxfFLHgfxklSWMxmd8g5+M+p9FJym+5ZLHSHtdpBnwd/2PMqV9IJz1wP/rmHjL0p500Ziwghph7zPnTtXo5skbNpuFDGuB2G7HuAgSrpTfR9/SWU55Z0Oi5mek+YonCPdN1zriOVDkjyn/UqlzGDp5/379+uCFfADMIbZDNeXXnrJgnYuLz5A/XatI5Q3+ZYuTzM9xy/8FP/WJmRyH35HHUkSNjilzMLfjfKbsDmDbotq15PatepK7dr15A9UXk4CiXtSAei9Aea4fnGfJGz8AsZM4ZLpP/zwg07IZMOh4Mkkn+DvOPeHDx/WXRldv4G/yvZ79OhROXTokIbz5ptvqs0kW2djWoDmnfdMhGKyatS0Hzx4UNMd1X3YnWua+U6cPPvTn/6kGgbKH3yAT1eM4x9Cw0TdTFhL946wwWll1RHSSNwoy1T57Zrn+GPnUbAe/m7U365hxynv66+/XreEX716dVkexMFKOC34ZQ14lk4Lv4vyO0nYlu4o4VBvrVEy7CWRpybLXetJkrDxm02WWxq5huV6EpydCLIc+Y1MmzdvnhIqRpkgW9giu6adtoH6HQVrqdy4hmsYd/HPnBZbFSaIhzj31Bk2uorjx9xWtiy3cMLXTz75JFb7Fy4v8jqVLEeGgCvjAXv27FGMDRgwQOcLsacL5B13LuVl8cCvq3+WqHRtO/EH/wMz4TyN8juJTOP7+HeNe6qwi4vqSyl5/91Uhp4YPZI4Jz0o/FER6BXE8WtuEcAuhYHfUQAAIABJREFUYeOfngyZkyls3rE+LhsMsD16h/Ydys7w7+C7bPf4Teq/Q4fjcckWXvB91LAZ/sJ8AO06/ulFQ9zP6nyWni7hRw07GN/gfZI80/hGyLP27dqrCdCmTZtUWwBWgr12w16cq2nc4/gxt6YhyoRTc5vqSh1BY5HqHc84WEbunHPOqYjJDh0qPgvUgWDZpLqvzvJWrGQp7zPPPFMxzmoIQfeJ4m15liXsVPmlz8x/jHwOfkvTkcUvbpiIu2zZsjKMgwU0NC7yNCjLwWs6rGV67ho23zRNZtQ6EpbrUfIsmMfB+0RYaf97/XLESqywO3TQMjeN6Bmnn1HallVF2CnwmCTPo8rycuXUrr0qndgoCHkYFSthzFa3LI9TP6mXn3/+uVx11VWCrEuS5xmxBoY6dFCexHK6TFBFvsAXWrdqrThLGnZsvvG7HGUHbMqMvAiXZbbfYAR+imxy8U9Z4TdbOKneEzZtdxJ5Gg67uKiB1K6F1j3Pbdyp4MOHD1fzkNPaniZtT29bMCekHbLe5rQ2mubTzzhdTj/zdGl7Rn7nQavWrdR+n1EFO6hYVCIqr8uB4KAH7HJQgelguoZN5c02RMp65mzQ0rpN64LBN3WZ9IJxTXee4zoou6jT2KHaZFzDJQ0Np8uBrKSRo664HITLN1wOGjc0U1HrSKHKdcoduV5oeAf7p7YqXRZz6dKlSoaiYiWMR9PYh59H+W2y3LWOIMvj1hFGuVE8Mok0KAMq/f6MtsoX4A2VHlYKXgZfwyyMDaO+/PLLKMVTwQ3lhExLIhMpM5fDOIcrVlLJ8qLaDaTWH+tJ7dp5vqoMleSKK66Qpk2aytOvPy2Hfj0k+3/dn/cn6bx48MXSqH4jmbl6phz79Vjep5lyPfLrEZn48EQVcgwr22GVyFXY13TiTielScMmcs/ye+TgrwcLoqwP/3pYJjw4QdM9ZvYYee3X1woi3Ud/PSr3rb1PV9KZMGFCOaKdSthbHch2RVaeSMS90OQ6Mv3x7Y+rIqb/lf1lz9/3yIFfD+Q95kkj5y3Tb5FTTzlVCpG4M/LQtVfXguEvtGEbPtogHc/uKD179PTE/XfhXatWfSkqaqhnXq/jHiTu695dJ2/IG3K0AP5I5yVDL5FG9RrJnDVz5G15uwBSfVT+JH+SKY9PKVjiPvPJmfK6vF4QZf2mvCmTHpmkxH3cfePkHXmnINL9lrwlD2x8wBP33xUyhSLXkelLX12qxH3A1QPk4H8OyjE5lveYJ438jb53dEET9wt6X1Aw/IU2bPOXm6XjOZ64BxUuxcUNpai4odSuXQCmMqaZWfvOWiU1RyT//wB+GXF/Zo7Q2Od/qo8IZG7KwgIm7qtnymvyWkGUNURm0sPHiTud00LAOJ3TBzZ44l5och2ZvmTPkjLifuDfB5S05zvmTdHmifsFBcNfaMNe/OJFT9xDZo91ShoJGzAV5fsGTEGNuyfu+S7iPXHHLMoT9/zGuSfupcvLeeLuiXtQGxn1/kS0ccdUBo07nbf8lm6lqfPEvXTn77Btfklx6a6pJcWN8nsDpppE3E1zYNfKrIA1TeNeFWkmP73GvfKJu5Ul11QYzvY+lR+XZ1WtcY+SLnPjkp6ofjxxrz7ing3zUcvQxV1Va9wNy3ZNFedM71K5d3lmYXiNuyfuUTtn5i7vJqcW1ReWhCzxGncXUZLaDwIGMnH4t8Ny6L+HypEanu37f/tk9y+7ZdfPu/Tkd+ovJX9a1cSd8Eg/dpfB2PMM+8RX//Gq7PrbLjn474OVqhH2xL3yiDtlSdnu+WWP4pfJcWZ/amXO7wP/OqDvKXP8mD9zk6trVRJ30kV9pe6S7nC6eA/2wTjvSWNlpTsfiTsNbZxVn6pDIUN5gu2gbKfcD//vsOz+ebfKduQ8z3KF8eB3qpK4k6ZM7ZVi+7cjmmbSTp5UVrqtruUDcbelAY1YRrmyqozXuPtVZcAKtu1FxfWluOQEWVUGwG/ZskXWrVsnbAHNskwcCPBMR1UJeIZ2Dv3nkKw4sEJGjBohD216qEyQ8W7dO+uk98De0vfyvjLkuiEycORAmfP0nEpr3KuKuCOs+Vvzxhqd9T/xoYnacSkjLf85Ig+98JAMvm6w9L+qv1w36Tp54fMXyvIm2DDl4t6VuEMa2EX2+eef141gwpiqqlVl2MzslVdeETYaseUnwTr4z3TYqjKVZSpDeR7+92F5cMODMmDkABly7RDpNaCXzHpyluz9x17FMTjY/NVmuXbitcLkucuGXyb3r79fjv2vcohMlRH3344oZm+bfZsMunqQXDrsUrl78d2y/5/7laCR7ld+fEWxfdmIy6TfFf3k3pX3an6V1YMcUrkkxJ2NZ9gU5emnn66AKWRlVa8qwzJvzz77rOKdTc6iHlUl100mIcOR7V26dZH5z89XkwXKfddfd8nt825XvF86/FK5/f7bZe8/91aKfKsq4k44z7z5jPTq30tIk7VX96+7v6zDeuD/HZBpj0+Tflf1k35X9pPRM0Zr54U8sTzL1TUJcWdTMTYYAu9s8MVRXaYybJa1efNm+fDDDyvUvUy498Q93qoyyJFXX31VnnnmGfnmm290DfiwyUmm/A6+Q87UpOUga9WuJ0XFnCfQ5NRp06ZJkyZNpGvXrjJx4kR57rnn5IMPPsi4xnVVCHiE+qZPNikRZ3WLTud0kgeee6BMs4wgXHFwhQwfNVx2/LRDJ4pCMPGXK+EW/k5VEHeE9PY/b5d5z82TyY9MlvN7nC9jZo3RNCFseb9071IZNHKQbP1mq65sw3KFI8ePVK1kZQj5bMQ9WCm5/+yzz4QdN0ePHi3du3fXlTpSrRlbVcQd4c5udeeee67ccMMN8vDDD+uuddnWca9s4k5ZoWmnE7b3//Yqhl/+7mXtiN6z7B7FMu9vnHqj3PfsfVrWdNAgsYt2LaoUrFcFcdcOy2+HZc1ba2THX3boyjUvffuSXHTpRdo5pw7bUnVTF07VdEPiB10zqJwMCNfPJL/jEneGi9m1cP78+bqnxVlnnaW7b4Ybs+og7uxQ27RpU8U8eGdDKXZKzHZUhVy3MgL7jB4NuX6ItDyppTy48UEl7pQ78n78A+MV3yxhd9OdN8ldS+6SI/8z37m7ViVxZxLsFbdeoRp1FjYItlfUidlPz5YbptwgB/91UI7+dlRuvutmGXf/ODn070M5V0a5EHcUHwsXLpRrrrlGZWmLFi2UxIGr6iLuDz30kLRp00YuvvhiueOOO1RJRFyyHZ64ZyfudNDIpwULFsjQoUN14yh44nvvvSe8C8u6bHlu72scca9VXyDvxdVt4x5n6Oiee+6Rxo0b66L8CHurBGPGjFHyBeEKL3ZfFQIewbL9L9tl08eblNRAVu5fe38ZWUHgQl6MuFcGYQ03D1VB3Ek3DdqG9zeolp1Gi+FM4sI7SA0a+GvGX6PvIVp0cAZeM1A2fLihUrRS6Yg7FRGsQYDp7NEbHzt2rPTs2VPJerNmzRRXbHJBLz18oK1BK+96RBUcNDgIHDZTspPfo0aNkhUrVqhmks2cwkdlE3fKFDMAypSy5TcYu2vRXXLjtBv1GZ3ToTcOlW0/bivTSN4x/w4tf0ajzF8Yq66/q4K4W9xIN/WWNPB3w+QbNO3EgUnvjD689M1Lmj+aL4vvkuG3DFdzg1ynOxNxZ58CcA5Wjxw5Io8//riMHDlSunTpImAcAsOmJuyCaKOWhiV+00F1PQg3/M1s3zp06JAqY4iT1UHqJHUTLSl1NdU3q0KuB8t+1upZKrd69uupHTLkzPr31wvrqSPTKHOwwF4hjCy+/P3LOcc7YVTFqjKE89jLj8kVY0qJe7C9Ass7/7ZTBl87WJUylu7l+5dLn6F95IXPcj+aWlrjjpZbDjKMCfDw5ptvasfvpptuUhkK1pGhYIuT0UwORjKrQpaHsU9HgniwcZrxl0GDBsndd98tL774orY7qfYZ8cQ9NXGnDHfv3i0zZ86UESNG6G6vlDkneXzhhReqdQbtZRgv4bJJ9xt/NUnjDmFn86WioiqanErF+uSTT1QQI4ztfOutt5SM2O9UV4aWMI9BmCPc2TmO85RTTtH1uiFb7J7Ilrq33nqrVgIIEDvxcbBdMBswVeaqMgg3BPfOv+7UofQwcX9s22Ny9bir1Q72XXlX3VrDUBlXBGpVLAeJUCUsSN11E6+rQNzR0PYZ0kdNCd6X92XhtoVy1dirZPuP2yuduKPh4KCCf/zxx7Jhwwa58sorlbS0bt26HHbAD5hCsGIyg3CHrNtJpxBCT+89fKI1SXVCgjgxP/j666/lp59+0t9c050M8Z133nkaN8M5+DaMt2vXTvr16yerVq1SbYIRLbSpbMBUWaYyqTBKuU95ZIqMmjFKScqUx6ao5g37WMMFJmN9h/XVkSaepfqO67OqJO7EHcJM3YWgD7p2kK6pTRzuXXWv1m3sfC3di3Yu0tEItPO5TneQuKO5swMMIk+XLFkil1xyiZxxxhkqF2nEDD/gnBPijtkMODesg1NGoPhOGOP8ToXx4DOI0Q8//KAYN+ynwzlh8+7ll18uJ9OJm8WXOko8kd+YSdIOBDutVbGqDB225957TobcMERWHV6lWvd56+epBhqyijnJ1q+3aoeNNoBRqIv6XiSsLR8kvK4YD/qjvlUVcV/w4gK55o5r5LAcVsyDc+JCfpAPmNBY54R4Mbp2yeBLlMznOt3UH/7Mxn3lypWqoEM2g4m1a9fKgAED5Mwzz0yJd5PrcAiw/tVXX8m3335bJtv5TlS8g1vaAa6Gcbumw7o9R7kCZ7G2hnuwTptz2mmnCSNh48aNk8OHD2sc4UwcdMAL2ca9V89eKlfo1FBuplnv1auXICPIP+QbV2szuT///PNl586dZfzy888/l08//VRPuCgnvMBO8GEnuIKLIs9qEnEvKWksnMVVNTkVwYsmpVu3buVOzAI4w8/Dv+k9QcwN9FZAwSvvrAAhPzfeeKMOnUB0mjVtVqnEHaGGwEpF3BF2mA90u7ibYCc7bs44WbZ3WTntZVBA5+IeYVoVxJ24IlQP/e9QBeLO8yP/OSLTl01Xsj52zlh18+zbz2rac5HO8DfQhGGygFC8dfStsnjxYrntttu0EtMTDxIYw04QU9xDFMDO9ddfX3ZeffXVqrm87rrr5Nprry13MhxrJ9pNTtzbSWcBjQDf5eQ3J8QjePIMrJ5++unlcG7x48pJ2kgLpIa4oMm55ZZbpFmTZlVG3MHXc+8/p/M2Ht78sHbesHPF3pehc8oF3LNhTLfe3ZTc5LpBryriDo4xD4Kgj5k5Rs3BHn3p0d/pxFGZuGCijJo+SjuvpJu8eerYU5o3z334XM4JnBF3toBnJGb79u1CJxUsICPRMhpBCGPHMA9RAMvgHBMVsI5/8Mk1G84N74ZxroZrw3kY60HMUx/4femll2pcLV4WX34b3qmz4P3ss88WRlfZOZPGe/jw4Yr5ylLIUO77/99+NRmBrDO6iDade7C38eONSmDXvr1Wf/MMwt61Z1dZ/976nJc7uKoK4k49BesXXnKhjJ07VsbNHaemntRn0og2njksTMQmj3iOIubiQRerKR2/w3I5yW/C4A/i3urUVjJp4iR55JFH5Oabb1ZMmFbd8JIOS+ARbTzyGfyCeXBuJ7gPnoZxrkG5Dm6DGLd7w7/h3K7IeO7hNBY3w7f9trhbp7V3794yefJkNQdmdLhjh44FuRxkpy6d1ISVOj9lyhTp37+/oLxCJpiMszwMX9u2bata9x49eij3hOjDQTl5xnnRRRfpiZmsnXBNTnjpnXfeqQoLU47Eudpu7WErkKjfYJQ+PFJfStwbSVFVmcrQ20RbTsMCgI2wYwbAab8zXSEqQcEeLCieU5AUKOCnJ0bBTJo0Sfr27VupAt6EUjrijtDBPhZNxbI9y5TEM1EVO3jemf9cXmsCcSc/IDDDRw9Xu9Blu5apTSh28BChXBM58s+IO9jo26evIADBhg2fWWVPhyP84YYeOyf3wRN/wTOIQe7BXfAZv4Mn5l3BEwIVPHkX9B+8D4YLxkkT7xEyCKXmTZtXOnEHrzTeq4+slu59uut8hf2/7teyvHXmrYLW3cqVBhyi0f2S7jrHwZ7nCufEoyo2YCLNbHbz5LEnZfGOxXLf2vvkyrFXyvp3S8nZxIcnyvh548vqMXXvyaNPKnFn2+5cp9uIe6vWrZSATJ06tWyUBkwEO6eZcG4Yj4LzTN8xjAZxzn0Q59wHcc49DStX8x++Gt6pf4Z3vkudxpb18ssvrzS5rnL5f0fkzkV3yvVTrldyuu/XfToxm8mpbPYFJpjTgQnktu+26Tny9pFyZrszK8UUsKqIO/XzlT+/IqsOrZLle5br3C1MwRa8sEDlK8R92M3DdBIu+UQ9f+WHV+TiwRfLgs0L9Heu6jjfIQz+IO6tW7VW8gbhAhcm1w0rmXCKe8O6XU22B/2n+ga4C+MziPcw1sN4B+upvmHftPCJF2niZMRs2LBhMnv2bOnUsVNBEveOXTpK9wu7y9y5c7WjDgc0jkdepSory1PKAPcdO3aUTp06SefOnXVUg5GNc845R09MCDmZU4ayFy09fJRnyJyBAwdKnEnzQVJeGcQdTTsTU4uKGsgfMCnhZEgg7snQE8MJmCOk80sCAF/Dhg11ghRuGZblxC+n/U51tWFVJqRiG2YFw5WCs8aKQqJCo5XZs2dP2dAu2p3KNpVBwNBAp9K42zuIBn80vAh/hlRZhQOhlEtBx7dqAnFnWTwm6bHCBulmkhOTWVlZhxUKcq2ZId1m435yy5MVc5i47NixQ2bMmKGVEAGKhoZKidA2DBmmeMYqF9jO4c/OrVu3yrZt22TXrl168j58gjl7xj1mL5z2nPu9e/eWnUzM49y/f79eGRJloixCBaFkcTOhTpyJO88hLxA24sVkvlmzZkmTRpVrKqM4/e8RmblqpnQ8u6Nq41geD9zzbszsMdq4mqkM5bt833IZcNUArRe5xjmYqgribnWTOgW+SAfhXn371boMHiM8191xnY468Q53dFgHXj2wzJzAvpGLqxF3sMrQOkP1DPFu3LhRJkyYoJ043plcNPxYI8cVUoCZCkPJnOCc1YxY9YLf2XAOpoMn2Ab7PAti3O4N68Hr0aNH1ayHeFr9szgSf8M7dXbQoEGKceKFqQPmB5Up18E0Kyh1uaCLzF0zV1a8ukIe2fKI9Lish9BBXfvmWjn8n8OqkafTxgpKmADO3zRfht4wVLZ+uzXncr0qiTvpL22tStsr5HWPfj1UAbV492IdaWASNninnm/7cZvavS/btyznHVXC4M9MZZi3gdkDso8FK1DMgR+T64Yhu/IOPK1fv14xij9Ow34UvJtc5woGwXlYnmfDOvyFOIVPI+vEH4KJdh8NMyYzmPAQXod2hb0BEyZ8mMlh3kKnHUJNO2nlbu2lyRF+owQ+cOCAmJmrcU2ukPFUJ/wT0ylGMSmLwYMH69wIzJbS8dt0z+G58OpM3DidX56n4uXFxQ11KUhdx50M4SRycU4m+vFxMgKVfjq/GPjTY2rQoIEO69MrwS+nJcp+p7rin5NhC1aVAfjWMHGP5gUbXyojBYwtFJ0FJksRv8oU8MGGOBNxD7pD0DGUet5F5+kykfgLvs/FfXUTd9LIRCXSiKaS3whfSB2TWGn8KiPdRtzpld93332KG5vwQ0V94YUXdDIQmGHIDdIAlsARlZ4Kb6tagCE7EaB0Uu13lKvh1nBuk/fsefhKvWBVGXr8Qa0pBAb7Tew4aajWrFmj5AX3Fg/qV6XbuP/viC7/2L5jex1BofysDCnfGStnqAbebL15xgocaCErY8+CqibuVi+VQO1eokSFkSM0kazAQScGjPMereSI0SPK1nw3v7m4Bon7+NvHq+wFS4YFZCBzICDxffr0UVyDoSBhQMlB42CyEr/IbwgxOLVvRb0SvrUBYVyn+w1+IfI2byko16mbrA4xffp07UzQmBre+Z7JdczDcm0qQxke+e2ILNm9RJhcPeHBCTqigpkUy0Eyv+H+Z+9XTIN/yhu5gxYeU5lR94yS/f8qXSo0F+Vt31Dc7VkibU5ro6YqaPw1rjlvPSzE0iv1+Nm3nlVZzkRcFhZgxHjLV1vK8M7IEhPTK8O2nzTyB3FHVmP+aBgFE/APlok2UwpGcZDrhneT68wz4nCR5VYPCJd6kw7T6Z4TLuY91tYQN9oa5DyaXsxx5s2bp50BwuLgWxx0CNq3a59zjXsQO8F7Sj38O4iI4Lt090H3Lvdg7sUvXpSO53SUnj16aptMfpD/HMytoWPDfIfbb7+9nMkUeUy+MhL9zjvvaHnDM/Eb5UQmQvjR0KMwAF/4S8dv0z1HHiKnTC6mc5fueSpeXlKnoZTUaSAlVbUcJKCEuD/xxBOa8faPSkDEoxyQFrT2CHV62Qh1ekaZhjL4dlVMYgKcCPF0GnfIDGBEwPOHNocJPpjQBMHvAvJUfhDy1W3jbhp3JkySZjTuO3/aqRp3zA3Ij1RxT/KMcKYsnKIVF8zZgTCkAnFwT2WEJDORDzMThDsVHq0HGr3wgVYT4u5yIHCohNaByPSNN954Q4fpiAdDq9j13nvvvWrTy8QcE+bhb1T2qjKUFY3zJUMuETRukBTyGvIM1vhbfXS1mhIwivSOvKMTsSHtc5+dWyllXVXEnboLSSKNpJm8mPLoFLlq3FWqcYfIsH47V/KF+nz95Otl6mNTyzo2STAd9hsk7pBza+jBBBg3jHBPJxRyfNddd+mQMYSBRo15FGG5y280TsHvhXGW6bc1UJnchN8x2oRMN40Zdqa0EdQDJrumi0tVyHXwRXkitxTP/z6oK8swcZNJypQLm26ZXD/838O6ihadNuvQhssuyW/wVxU27sSROUuWLjDPHC3Wa2ezJdapZ18ORiDIG/A4+6nZcv2k6ytlFSXqE3+mcUcbDZEKy1MUJEwchdAhDzF3MIJM5xD5yQHpSyrL0+EyjO/gb5b2NUURZhxoc21Ja9qXdEdlrCrDYhJ0LpFtlDdKB9s8kSvyLhVWcY8//Ns3UMZxH96cLJX/qM/AXpC4ozVPd8AhmUjKqmvMUaAjhDzB7MV1OUhGv424IxNdDjBCh8EFK4SHPOUMHsUlpZsvFdVuKH+IQ56DH+EeAYopS7bIJSXufH/RokW69A9CHaBTeamsmY6qEPAGRoQ167SzZNicp+ao4EPgsBTe1Eenqr3kyt0r1badyT1Ldi1RN+Y/l1eEfFUT96tuu0qXBiQdpJvKt/rwajWXQfNqNu6YFUDgK6Nxy0TcqURhYQ92eI5WY86cOWpTaAI+iKuqIu4IGiYc0inFdAGhAYazHZVN3MHTo1sf1VU0aLCX7lmqJGLxrsVqz80kPialTn18qmqfl+xcIncvvVsnY7O+O3jIJb75VlUQdzC65cstMmPFDHli5xOyfNdyJSksh8emarznj87p5TddLot2LBKWDrzl7lvU7pd3uU53NuIeFvaGHTqrmAswZA9pCOOK31VN3NkMignZdE4x3THNusU53bUq5brJM5QydFwxnQF77AL9+PbHdXRl2c5lOime/SyY81EZeK8K4k68IWCTFkyS6UunC+0VZjJMyl2xb4XKdJPrdFaZp4U8uGHqDbLmzTWV0p4RJ/6yEfcwVpDZLIrBSP1ll11WthxkdRH3J598UjXrTCSHw8Bfohy5Ju6U3+YvNqsG3yZd9x7QW5irw7ub775ZZRn4Jt9NfvGO1fKYfM1qWSyH2rVXV8E8itWU4D3z1s3LCQYIKypxD+Yhsg8zKsxdUVZgWkN5p5OJQb/B+5pK3M2+vaio6YlB3AG5aZIsg3mWTZNZlQIekGMSQGVg+LZU3JQCH00JG1Swsx5rm2/8aKMKf6sUub5WJXEn7vS4H3/lcSVzwbRQAangDDezqgwbd9Bj53nQXa7uXYi74YkrlTyVQK0q4g5ew9ogOtbZOqiVTdwhoJh3MfkUm147WXECExlWmKBM0cgwmsIEZMhsZU1CBi9VQdwJh3Rh9gUpA8PTl0/XjWkMw9Rz8M/qOqSbXVXRTNr7XGHbvuNK3A3nKEHQZoc7sdVB3Ok0m+InTuNalXLd8h3ZjgLCzEGoE9h5U963zblNCWxQ5pu/XF2ririDZZYzLWuvFkyUTZ9uKtdegW1G2KgPmBM9/+nzOiKVq7QGv2N5Gpe4G965Mipvcr26iDtynXYkzGOC8Ux1n2viDm53/bxLFRDr3lunHTVkNotn8I4RVWQZspy8t7LgHdhnt2xG05mvNuupWbL5y836m5FVqxvmx/UKvlyIezj/KHOUEXFkC9+o0cS9uKHUqlVF67gn1biHC4TfNY24A1KATsMabrRt2NWGXsPvXQGezl9VE3fiQRr5C8eJtDKkStrJm6AwCLtN+jspcU+FM55VFXFPFX5NIO6US7AcKc9UZWr4r4qyBmtVNTk1mHYwTCMWxirYq4p0JyXuqTDGs+og7hYXZDn2oOHOhL0PX6uDuINtyjgou8EB5UG58y6MiVz+rgribvGlbpEm/qjnwTSbG+KT6b25S3ol3/lLQtyD+Kku4k4cwC1nnCPXxJ3yID/BrZUr95Qn7yj7dFjGPW7xb9jnGv5e0jInnFwQd5QU+UTci0sa6gZMf/zjCWIqkwroNZG4JwVsrvxXB3HPVdyTfAeBk87GPZ2pTCpshZ954p6kVCrHb1US98pJgdtXaTgf2PCAzslIZeMeV7tkWPfE3a08qspXVRL3qkpTlHAghfzlA3F3MUuuDOIeJd+r040n7qlt3IuKGsof/1hPyfsJYeNujUvw6ol7+qrliXtLnaVveKHn7Yl7eryciG88cT9FV44B23ZA2j1xPxHRnD3OnriPllNPOVWXSqTtjzo6Y3XDrtWpcffEPTvOceGJezri3lhq124oEHhP3Ct1gDMaUHPtyhN3T9zTrLtzAAAgAElEQVRzjama9j1P3D1xr4r9OWoK7j1x98QdDNQUPFZmPDxxT03ca9duLEVF7JzaoHCIOxNs3pf3f7fONSvd/LySzr7D+krDug11WP1j+bgg0v2hfCh3Lb0r5XKQ+axxZw4J67izbNt78l5BlPUH8oFMe2KaNG7QWCfIfSKfFES6P5KP5OEtD3tTmSuu0I31CkWuI9OZQMg67qwlD4ljmcr8bMGOp4o08jd27ljVuC9btkzntxWaxr3bJd0Khr/QhrF7b6cunXQd90zLQdpISqprvtm416rVWGrVqi+1i+rlP3Fn2+AWzVvoMkfTHp2mazCzDnM+n6TznAvOkRbNWujSTnc9eldep9fK8s5H75T+V/dX4s7yjnbku6kMO6c2b9pchtwwRJcetfzI5ysYZ23pk5qfpJ3UQsL48FHDda3isWPHlluKt5BMZdhErZDkOni/ZsI1ur8DG9sxMZtlhvO5jpM20sh58eCLdV12dk4tJFMZ9mHo0L6DdDirgxQKf6G8WaGr7ZltdSMlT9xLmYxq24tKJ6jmtakMWlY22GFzncYNG0mDuvWkQb36+X/WracNO5v4NGvStKDS3bxZM93oYvLkycbbldzks8YdAsemE82aUtYFgG/qcN160rxZ6UZVLZo3LyiMU6fZDZXt0YPLyxUKcS9IuV63njRp1Lh0h+eWLaVhIbRjgTRSx9k8DIUMmC8Ujfu2bduE3WBPbtmygGRcfWnUoKGccvLJunEc67G7HPmmcS8ubqT27bVr57mpDA3ZoEGDpGXLk6RXrwHSv/8V0q9f/p+ks127DnLyyS2la9deMmBA/qeZciXd557bXQX8zJkzy+p6vmvc2bDppJNaSNeuPQsC38fL+kI55ZST5ZxzLigojHfr1lsxPnr06ILUuBeiXEe2XXTRpdKqVWtp376TXHbZiIKp69T3s88+X0499RR59NFHC0rj/uqrr0r79u2kbdszCoa/UN4XXzxYWrduI127dtUdoMsa8xg3+UbcmZQKac974l623m/TJrJx48fyzjsib76Z/yfp7NNnmDRqVFfmzVsvH36Y/2mmXN97T+TOOxcrqcHu2458J+5q496kocydu0befrswyvrdd0WmTl0oTZo0kAkTHpSPPiqMdH/wgciCBS96G3ds3AtIriPTV6w4KG3anCaDBl0jx46J/OlP+Y950sh5221zlLgvXbq0oIi7LgfZob1063ZxwfAX2rCXX/5eOnXqIj179hBvKlPKZCDunGje89pUJkjc1659R15/nV2x8v8knZdcMlQaNaonc+Y8I2+9lf9pplwh71OmLCw44q47pzZpKDNnrpbXXiuMsn7jDZFJkx6WJk0ayrhx92mHpRDqNiTmgQc2eOL+O3EvFLmOTF+yZI8S9wEDrpYDB/4tR4/mf10njZyjR99b0MT9ggt6Fwx/oQ178cUvpGPHczxxN+2jSBlpLylpLH/AXpD1RbEbi3vil+2E2ZI9nV9s0e677z5p0KCBMLGEw9wmCRtSzjbCTFSx7wWvpmUdMWKEamYKRcBDXjxxbymQWTDACVb++c9/psVKEDep7n/66Sf5+eefU+IslfvgM8JmV8h0OA26TXVPHcE0INU7npE+6hcE1hP3/CcyQeI+fvx4lb1gACwkkae0AdlkeToMJg07mywPhktaSecVnrgXJHFfsmSJYt5VnrKZXk2V5UGccw930smpHdpLIRP3L774Qtu5cP5k+w1GkGnIi2xu7T15zihH586d1cwa/yZfzU2UK5wYzpGJG2f6DvI4zMsxkSkqbiTFxY3lD5BfiAWJi3Py0V9++UW+//57jWA6v0SOCSUNGzZU+zSIu7klXJew8U+mEL59K3wlfmy2MHz4cE/cC1DjDuYM/GAFnIcxEvU32yYj8KO6D7qzsLkGn0e9J96Z/CIYSGuTJo08cS+A0bQgcR83bpzKT3AOnpLIU3D2ww8/OMvjJGGD70yyPFhXgnK9WbMmUigKGa9xv1dHmRYtWqSKjCAm4tz/5S9/ERQxcfyYW8NpJnlsblNdqSNx/EIYd+/erTbuhUzcP/vsM6cyJ6/hp8gWk5GpyiX4jDzfu3evdOrUSYn7d999p4q/oJuo90k4Ryp5WoyZjNq5NyrVuKPRo6cR98QfpAZyns4vRB3tZ1Djbm7JTNewrUdDRtv3wle+XdmaGYZ1app5QlVo3GtiuoOmMmDO8AA+qWyZsGJuU10h7VT+VO+yPaPXjwBxDZt4o5FMF47Vr8rUuDNUDaZq0tB8VZjK1MR0B4n7hAkTyux9wQfylDMdVjI9jyLLM/lPKstpqKLWkcqW61bu2JHXFPOrqiDulu6aVM+JC2fYVCYqVsKYRZmXVJZn4jvh8IK/49YRZPuBAwekQ4Fr3LFxD+Zj1HvKCX4aRyaS54cPHy6ncY8aXtCdcY4kWAnHuwRtOxsw1fI27okF84svfi4vvPB5pO/QEEAuK1swVgVxJ92bN38ZKd2ktyrSHSTuhTQ5tTJt3Cm7vXv/KevXvy+vvvqPSNiFVFd2Z7YqiPurr/5T1q59W/bu/b9I6abecVYm2QsTdwiMHRBaTpeDziGNXPB7cb5DuHzD5aBzC3Gn4YtyEE5lKmQOHPiX4n3Xrr/VmHKvCuK+f/+vivfdu3+pMelG/nCGiXtUrITxBHFHE+pyQMJMCePiHyIWt47Y5NRC1rj7yamlaEPbXoS5TL4vB1mZAh5hcuTIb3L99ZPl2mvvkMOHf8so7HD/yis/yiOPbJF9+/5fRrdJG/7KJu6klXSPGnWPpqM0L1ITFt7t3v2zPPTQJtmz5x+VSmo8cc/95FQI+LPPviW9evWXp59+PRIhZ/ULTBgy4SIpxiubuNPJfuaZN6RLlwtk3bp3s6abtK5efVSeeebNSk23J+6i5KeyiDvluHXrN9Kr10B5/PHtWTti4IR68eSTxyq13CubuJMOlDHgffny/Vnxjns6tStXHqpUmU55cHri7ienxu0soYRAGRFXmXHkyJEyjTv+XQ7CtlF+F/+plDBq4/77yjJ+VZmYdrEILEgDJJH7m2++S268cWoZcbf3uEHYInQgKbh/9NGt0rv3QNVg8t7IC+SI35y50FRWBnEPpos0ke7bbput6eN38H043StWHNB079z513INIe5ymW5P3HNH3K1sIIoQ1759L1dSavi095QfZQ+WuR48+B8ZOvRGmTdvna5mZPjnamXN1Z5bHYh75RuVsaqMpQss0WG54IJeqn1NlW57RroPH/6fXHnlGJk+fWm5dKerF3HTa+49ca8c4k5ZginK/eWXv5O+fYfJokW7yuRVuBwpD5N7KG5YmpSyMVznGu/gsjJWlQnifcuWLxXvK1ceLGuHLF/IG9wG0z169AxdppF0kz/2Drd2Wn4YfuNe8c/pibsn7nEJcL4Rd1sOkqsn7jGIO0IMc4GlS/fK4sW75aWXvpFbb51ZRtwRbDt2/OX397u04Uc7jbDatOljufXWGSoYH354s2za9JEKJL65fv17+j0EM9oensUVcEH3xCOXy0HyvV27fpZly/bJ4sV75KWXvpVbb723jLgTX4ZXeU9j9/TTb8ihQ/9VYb5ly2cyfvw8XYf2wQc3ynPPva8jFQhjtLK4L83Lb8uEfzAtce49cU9O3CkXynvdOjBJWR7VcrrssuFK3HlHmaBZpuzALCNJYGDPnr/rMzaKGTNmlqxadUDri72zeoN2EnwQVpzyDbqFGOSSuBMXyMezz74tTzyxU5555nVZs+ZPilvMhEg3bqirixbtlKVLX9V6QNr27fs/WbZsr3ZOb7hhqqxcuV8ws7B6s3x5ab1Ag5803Z645564U07PP/+J4h3SylJ0l112hWKZd5QxMg+sUyeee+4DxQqmJWic+/QZKtdeO0mWL98rKCdKMfGrrruObMPNvn2/JsI78cglcbd6vnHjR/LEEzvkySePyPPPfywXXniJGHEnHVu2fKV4L033+5puOueMLrEs5YgRozTd27b9oOnGrAz/yIYnnzwq5JGR+mD9jXpPPDk9cffEvdCJu22+VFAbMCVdfaBUeH8tI0feLtdcM0EmTLhPZsxYIRdd1Fe1zwiXbdu+lblzn5U77nhIxo6dK/37X6WbpSC4Fi/eKYMHXytnn32eoKlYtGiHCjRIzJ13LpLx4+/TDsCAASMFzUcSYYeQzxVxJx5btnyhab7hhskyceI8mT59mZIU0sj73bv/KrNnP6NEaty4uTJgwFW6wsnRo/+TVav2yeWX36g736Glf+yxrUpeIPeTJz8iEybMkWuuGS/Dh4/STkuSdHvinpy4Y/61YMELMmjQtUJZgs0xY2bqro1ooI8d+01WrTosEyc+JBMmzJUrr7xNrr56nOza9WfZtu07LVOG24cMuV6mTXtMtm//Ud9hKjV+/AMyfvz92uDPmvWkHDnyvxpB3Km7hw//V+67b63G7bbbZslddy2Wm266S847r7usX/+BkvCnnnpNpk17QsaPnyPXXz9JNewvvfS17NnzV7nrrkXqtl+/K2Xq1Edl69avZNeuH+X++9fJpEkPaV4OHHiNzJ37TCIC54l7bok7ZQ8hHjz4OlVEoDm/4475uvwepJsO4osvfqay/o475smtt86SSy8druYke/b8ItOnL9cdi9nJdNKkBbJ58+eyb98v8thjL8uECfO1naAuIOsOHfq3M95zTdyRs8Rx4MCRqoS5884ndD+Ezp3P1fpdmu4v5O67l8jtt89RN/36jZDVq4/IgQO/CvW3e/c+cvHFgxTfKGT27fu7zJ//vKYVP0OH3qAjEYcO/ccZ85QPpyfunrh74t5A13L3GveI2nYEx8GD/5Ybbpiitt38ZufG7dv/rLa/EFIID4Ice252N2Qnx/nzN8mQITcIk9zYDQxC1LfvUDUnoAFG68CwLEKU3U3pHFx11Vi5557lNYK4k04mapFuRhaIJ+l+6aXv5OKLB5Zp3NE4onV9//3SdKPBGTz4ekELg3u0k5deOkzzgXQzCoF7vv/xx6X5AHGfM+fpROn2xD0ZcQd/kNM+fYao3S67NVJeNNJMjiol7nRQS7VrlN3+/f/SnRzZzZPGHo0yJIjflD2YAf87d/6kO9uC81WrDkmPHpfpd3gfVfsWdJdLjTvpRit6ySVDZM2aNzWefB+zFzohkBLi+corP5RhFuxefvnNSujAHXEbMWK05hXp5puMzu3Y8ddAvdipHYMdO35yJjKeuOeOuFNGaJnZYn3hwld0Z0rk9GOPbZNzz+2uI4EQZrTolCXYZXdmOmnXXTdJO3u8R5kDgae+8E2067QN/KYd2LDhI9VkE5Yr3nNJ3InDhg0fyiWXDNYRBPDKJn10rjt1OkfrJ+lg1IiJ6aQBN4xw3XTTNK3j1A/aPXYtDqabOoJbZAOjcoxcbNr0mXO6qWecnrh74l7oxN2bykQk7EYUEGIvvPCZDoliDoIQRZggANFGmo17qbvPdah83rz10qVLN9XCQXTxg90vwhKBiF9OiDFD8itW7JUxY2ZL69ZtVLtB2IRhcYhzJaxcaNyJH0PIxBktK8KaePAcIm827qSbIVWGSB9++EU1Bzr77PPVL0Rj4cJtmncQPss3Jugi2DExGDVqhpx8cku5/fZ52vDFSWvQrSfu7sSdcuGcOHGBatEPHfqf/qZsIR6QG8oLDEDEMSVZtuxV7chSdmjmwR3mMmjxwD9+DS/gA8LO5Ozzz79I2rfvFGnSZ7B8g/fEI1emMuCZ3VdHjhyntuqGUUxkGFEzUxk6KZi7UFfBf9OmjRSz+MdE4PLLb9LRqIrpPqCdduzl2cY7CZHxxD23xJ2dpQcNukZN/ShHyh7SzWgpJlEm8zApwQTq3ntXSceOZ2knD1KL2QhzGxiJwb/hHVn35JOHdYIr8vPUU08V5voYNoJYjnJP3cqVqQxxmDFjpfTvf6WaeRFvzpdf/lZH1pDjhEdegP0VK0j3SjnttNM0r8A6yhcUOjbqejzd32s78Pjjr+io7Omnn6nKAMubKGkNuiEOnJ64e+Je6MTdm8o4EHfINROWsIE14YswmjLlURVgCBcE3plndlBiMnHiA0romYyK3TqCMEjc+cbBg7/KhAkPSPPmTdVUZPLk+dpgYD+O8OKbQSEW9Z6wckXcn376NdWuG3khDsR98uRHdWIS95ghde58jpx9dlc1h7jllunSq9cA1eqEiTt5Rroh/S1bnqQkcdKk+Zq32MK7Cnji5Yl7MuLOqNGNN05Trdrhw6X4ozxY9hNtMsT94MH/UzeUHZPyMJlhuJyhdnAXJu6Gj/POu0i1eXTOaIQhxOCG91FxHXSXS+LOd2+8cYqas1i6qXvYOkPgsGs/evS/ilk6KVdcMUZKMXu5Enfchok76YLkd+p0tpqJUc9vueVuHWnYuNFd8+qJe+6IO9ieNOkRHTkxW2zKkvk8V145Vm2/kSl0Nlu3bq0rzUya9KCahmHfjRY+TNwp9xdf/FLrxOmnnyFjx87RTmG3br2FuQ6ueKdu5ZK4Y8YzcuQEOXDg39rOkG5GxTDnMuKOBp4OBzb8Eyc+KFdccasMG3azdtzDxJ28ZFWarl17Srt2HZXQI+Op56tWHXGW68SL0xN3T9wLnbjXqlVf7PSTUyOQeIRtOo07JJvhQwTgtddO1CFUbH0xl9m06VPVamzZ8nU54o45DcRj7dp3VZv9wAPPyeHD/1Y/99yzTG3gIRMIrCBZiXqfS+JeqnEfUkHjjiC97bY5GkfyAKGOXS9DyZj/YC6BiYERd1YlwTyGuGFy0bNnPx2aPXbsv2pKQEfAE/eKoom1f9lsLNORi3XcrYHETveqq26TgwdLJ4+CfYbVseFl+TfmZNApQ6PGO4bFISfTpi0sR9zBNGVNZ4BJ2Wij2e+AYXWIEdq+YCc4KrbNXS6JO6SjVON+uwRHGiDsEA/SD9nG3p2J5UeO/EdxPmXKY3L77fdpHTDijpkb6T569DehA0u9oP5jRka9IN18jzAtLXGunrjnjriD31KN+7XlNO7IKeYqYOMOoWeVJOZ77Nnzk5rLMPqICSSdVCPujDhRpnyTe+zgWY0J05tS87FrdXSR93HK29yCqVwSdzTozEVi1IB4czIBl4nlpI9RNUbZGNV69dW/adtE+HRaWdbXiDv1xtLN/ADwzegE9Zw6gZ07y8PixtIS52pyyRP33BF38hQ8WZlwb7jkyu9UZYR73lmZhO/te6n8xnlGHFCadOx4jvTs2UP8Ou6lrb/XuEcg60GgAVRs3JmUSmMMYCEszz//qaBJHDVqupq8YPcI8Ya04wahxwSerVu/1d+sqoEGHoGPfzSOaG4gNPihwUC7MXr0PVpxCDcYj6j3hJ0LjTvhY8pDuhHQkCXiDaHB3IFh0lJiNlM1r5B2bCUhLxdc0FPJDhorJqKild227UcV6IxeMNGJkQjsJ7du/Vo1kXQETIBETWvQnde4u2vcyUdww2oRPXv2V9JBefIMrTqTqin3VauOqikMdr9gFrtdtGyQWNzSgQUvs2c/rVhBmFM/wArYgXjOnLlazjmna43RuIO55ctZsnSArhgCyWYSLpgnnhARzu7d++r8DmydwS52+tZ5hcgwWjFt2uOK8dJ031NWL0h36UTGHmpC5trIeeKeW+JOuTK3AVIK3pFxTCDGlIu5OZj0Mf9mwYLNStqPHPmv2najiIDAIiMxl6SOIPvwD4EdOXK8jgBCYFkGGBOpmqJxB3soVVCeYL4D3pGdyO0OHTrpBFRGE2ib6LyAdyaYYkpGhwZST51hEQYWWrB0IwMwG+U36WaiKp1dZIor3slfTk/cc0PcyUs6o3APTMLoVCLXkWe8gzCjpECeBdtW3uEef3ACOmXcs5ocMp9VyHiPu6A/l3tP3EXXng+vP++Je0ziDvgQPGjK0CQjnMaPnyszZiwXhkBZbQXAYq+NZhIhwxAsS8OxvNaWLaVLPELM0d6gtVi6dIccOvSrauzQStx++yydjY+m5uab764RxN3SjaaVVUZI9+TJD+mkPTQzaNqpZJhQMPkUIc4QLBszke7nnvtA3+/Z87NqXJnMt3DhVm0MMR1g2PWOO+5XsxuIvSfuFfXqVaVxp6zBMCtfQD7pQIJxVhCiswo5p8N14MA/Fd+YzrDKBjiHwNJogwXqCSupYNfLKMrOnaXCHjtiCDyrazCpjY4fIy/4cRHuudS4k+6DB/+lq4lgnz9u3GxdTeOmm+6Uzp27aMOGlh3MUn/BLCZy1AFGG6yeMKmRjarosLPaDB1WOqikm3yyfGTOgCuR8cQ9d8S9FHe/yX33PauKhXHj5siddy7Wkb9zz+2my4JCaCGgaJ/Hjp2lc0BYRQmzSRYjAL8sfUi5Ywa2desXSn6GD79FTSgpd0xG6ADSEXDFO53iXGncS+v6/3RidWm6ZqupG6MK7dp1UA054Vm6b799ruJ92LBbZNCg61TxxHtMYFBE0SnfsOEDeeGFT5Xs0+5RB0g39ZyJ3654p25yeuKeG+IO/lAUooiZM2eNliVzb2x+2XXXTVTzQBSV5LvJZvzNnv2UykMUbYwmsQLRkiWly2Kff34PHb1yxbeFw5VveI17xV2wbXKqXw4yJoEHULaeL8Ka1SEY/saMplQYosn4QG0jWZ0DjQwaHSa12Xt6tmgxeI4wQ6ODYGPtaMBKrxWb4iCQ494jVHOhcbdwSTeTC6mkjBqgbWXCrcWTdNg6yAyLopHhN71yvsF7JmvR8GArj0DADbaU5AXfplODSYGF6XL1GvdkGnfynLJB20KjDMbXrHlL8UunFS0cWMDUi90VS9f0/07rAPUCv5yYD4B/3FDOlD9mY6wFzXf5Dlod3uHepaxzSdwJnzjSWGEKRF1Em4Rmat26dxTHvAfPhlmwX4rZr8rij5kNZJ10Yw6EH+oBkxxZRo+RNtJt9cIl3Z6455a4G2ZRPlBO4BZ5jXy2RQSoD7a+P51XypFyxZyMMuQ9z1Hc2DrukBtkGyM5YAH8U29c8Z574n483uCd3V/BO9pXtKjEk3SBZ+QA9YF0kw4zoyPt1A86JNQFaydK071fv1Oa7l/K6khczFv5eOKeG+JOfnqNe0UFWfBJTd051Yi7LgfJtqyo5H/77bfYJ/7+8pe/yH//+9+0fskQbHAbNGggjz/+uOaPhYU20TVs7H7/+c9/Crtj2ffCV76d662xEU6QBk4aZn5zmkBCwPKOK++5BoW1+Tc/vLPv2bfsnX0z7pUwc0ncCd/inS3d9j5busmbXKc7SNzBnOEBfGbDirlNdf3rX/8qf//738u+l8pNumf/+c9/EoVNHfnXv/6VMexc2LgHMRbEpJWjXXEXLDurA1ztG0H/hn3DD9/BbfB75i/OFeyg1WvSpKGatGBLHMd/KrfBeFv87Ir7YLpT1dWgf0s3/okr11ykO0zcg7IXrHCmw2Km58jKH3/8MaMsz+Q/qSz/xz/+kVGWB8POtVynrILlZL8N0/Y7XI6GoeB77nlueMdPLsqd+OVS404cg/Hm+/bb0mC/g+kmXZZurpZvlle5Tjdx4AwT90ztfhAr4Xtk+S+//OJUR0yWB+tc+PuZfsetI5ClAwcOSIcO7XU5XvI6mPeu91auVmZ818qVa7pwgji2b1j54Me+5xov80ccwhr3TPma7h3l9Oc//zmWTCTPDx8+LJ07d5ZBgwapTEz3/UzPCRtunQQrYVlupjJK3AEyJwQ87kmmfPvtt5o56fxCeGbMmCGNGjWS+fPnayaa27/97W/OYRPnn3/+WX766aeU8eb5d999J5dffrk0a9ZENQbpAGmAyZcr6cw1cT8R8saIOyt/3HvvvYoNcMCZCSuGx3RXcPTDDz+kxFk6P/bccGq/416Jd6b6SR2ifjVp0khtx00AnwjllSSOkIlcE/ck8akqv8eJ+6kyZswYbVhMBoIFzrgYw30UWZ7pu5Upy4PhFqpcR6bnmrhXFWaThGPEEOJ+yikny8KFC1URYpgPYiPKPbL8+++/d6oj1o5ECSeVm2yyPOyHzuy2bdukXbszc0rck5RHVfgNEvcePS6Sjz/+OGMbGM43+20yDYWEPct2Jc937NghHTt2lMGDB8tXX33lFDZYQSa64jSVLIe416rF2Uj+ALHmJMJxTjSYfJxKkMk/mvHZs2dLw4YN5ZFHHhF6rRZOJn/mJt01W7yJH5k2fPhwadrUE/eqqHDVHYYR95YtWyrmwAAnGEqCNav46bCY7Xk2rGbyny3e9MpnzZrliXsONO7Vjd8o4R8n7qfI2LFjtUOaC4xDKpDlaCMz4THdu6QYjxquyfVhw4YVlFz3xP1eOfXUU+SJJ55Q5V86HGZ7DpmDvGVzl+59Nnmczh/P4/qFO+3cuVPat29XwMS9h3z66aeqvc6Ut6nekd/INHhqqvepnpHne/bskU6dOqnGnY4emvNUbrM9iyrTUn0nlTy1pSC9jXtMG/coDWtNcFPoGneI+7x589Qsi38Mq1L5GNpyOdB4U5FcDobKIBuuYUPMESaZjlybytQEDGeLg9e4nyITJkxQbBs2MCHhdDkwx4LUUFdcDsLlGy6HKXOi1hHCybUJZDa8Vfd7T9xLifvSpUtV+RcVK2E8QuKSynLXOoIsj1tHDh48mHNTmerGcrbwgxp3vxzkcQRD3CHtairjAib7FCCk95oNyJAobNzpLQePJGGbvVmmChwU8EwKY4kqtLL5fpLOPn2GSaNGdXUHS5bzyvc0kz6Wc2NViEIl7nPnrtF1owuhrFlakmX3mjRpoNuus6xoIaSbJTgXLHhRTjnFE3dGUgtFriPTmfjfpk3p7qXYEzP6ku+YJ42crDiGxr1QiXu3bhcXDH9hvtLLL3+vS6h64n6cMRfVbqikvSCIO6YyLVq00LWpWZqN5Rrz/SSd7OCKrff55/fUJenyPc2kj3Sfc043Je5ooe3Id4373LlzpXnzZsKSXOvg9FcAABekSURBVIVQzlbWXbp0k5NPPlmX2uvfP//rtaWb5dvonI4fP76c0qSQNO6FJteRbewJ0qpVK11jnmWDC6Wuk87Onc+TVq1OlSVLlhSUxr10cmoHadOmbcG045R3796DpFWr1tKjh9+AyXhM7aIGqnFH857XO6dipjBx4kRt3E86qbm0aNGsYE62pG/evLmcdFKLgkkz5Ut627RpIytXrjS8K7nJZ1MZ0kqDTpkXEsYp62bNmqmtMx2XQkl7y5YtVOMe7JwC9kIh7oUq18vjvWnB4L1Urp8kZ57ZTjZt2qSmg5lG2ssEf4qbE81U5r333pPevXvLSScVmmxvrryNuSzMMXM5UNhh/hfXfLCmLgdZu3Z9gbT/sVad/CbuFPZnn30m69atkzVr1pQ7n3zySXn66afLPQu7Sfd79erVsmzZMie/fBP/rmE/9dRTQtzTxc2e44ZhRcJ59tln1f0zzzwjq1atcg4bgrh8+fKsYVscwlfSTRzCz6P8Jj1R0s33n3/+ea2wVtnzXeOOcNq4cWOFfKXsKe8o+Rt2Qz6C8Sh5HvbL76g4TeWXZ1FwSvoWLVqk8QziKknYfId6wzfSxS3T86g4TfUNwo5aR9avXy9ff/21QVyvhULcw3KdPE9SXuA8iJ9UZZPuWRScpvMbF6fEEY3z4sWLNb1J2hHiXdNleTDfSPvmzZt1oiEmtoVC3DEJRusOVlxlOfkIxl39I2dd2wHCTlJHjh07ppORywm6iD/yjbjXql1XatWqJ1zzWuMesXydnCE8TsTDVeCRVjRdcSfX1IQ8ynfinimPk5R3dWKcMquug1n+J+JRSMQ9l+WTBOdJ6lfSNCQJm/oVVxOZNL658p9k9PRE07gH8yxJeSfp7ATj4HKfJN6E51o/8424//GP9VTjjua9YIk7YKA363IgOFhq0gWQ+MG/a9isMJIEyKxwAgF3OZiNj+BzOSzdrmGTZteGplCJe5QJ3OnKkjwD465YS4JTsAJ5dsUKYSfBCiMYrh1UwnXNM8MpV5eDsF3TTXpPlFVlwnlDfmdbeSnsx37jF5y75Dk4RZ5WhyxPGjb1i9WyXI6ksjwXdYQ4uBwnKnFPIsvJKzAOVl0OwnaVaUlxmqQdoU7nl6lMqY173i8HmQmkANFV4HrinilnU79LKuwpL1dSYoTIVdjX9OUgU+e4KL5dl6IkzzxxT5ez6Z/ngpS4kEhiRNiudcQT9/idpeokJUnD9sQ9fR1O9wZFAvLUtX7ShrkqBP5/e+eyI0exhOHzGrh7jg7YwwIQbJDYWTwFG/wIbLiDxBtYGHZcxAMg7tc3ACEegwXgGcuL8QvU0VdDTJfL1V0Z/992NXak1FPV1ZkVGZF//BkVlVVTgfu2Udl+nHF6mAJ33iYTn8q4bx/3rb9U4L7VNFt/qMBdyxBB9mo20SH7Cty1d5JX4L6VArb+AE4JJNULa8dHaFsZ961DM/mDy+X78BEVK5VxnxzSnQfxT/xEKYzTUnelHrrAfX3crf95JWQF7gIaK3DPG80le4hDzSbiwIyZSvaVcc+Pt3OLk3GqpTJ5m+Mfqo9Uxr0y7q2Ic7m8AvdWS2/qOUkYxquWymxsObd3qG+VOVodd0erJ7v/Hh3XGve5QZz6vQL3KavsPuaSfQXuu+079atD9pVxr4z7FKa2HSMYc5YBVMZ9m2Wnj8OnTiazlspM23XX0Voqs8s607+5OHUSQA9dxr0C9/MnlQlslFKBe95qFbjXUplW1ICVyri3WmtTrzLuG1u07tVSmVZLbeq5XF4Z940tW/ecJAzjVRn3Vkt33aFm3NeXnqyMO4RdgXs7mKlZb5XJ2YvakaWBPJUCTmuNe85y2IvgQCmRpVGzx/sISuiDUipwz1utAve8zSpw1/wTrKm8UoF7HqfB5dm54FAD99VjVzqWy/RLZcge8wEY2Q/t+K9WgHFbW5z8xo0b3ZUrV7pPP/20t37U5VZfBNBxrHWLTLJyTNKtbYb1kL2r38O6433k8rSyIps2yAZM4/O2fKdd3CJtqT+sEzZT9ebBHq7ch+ds3Udv7KbKRmcVp6G3Ml7od/v27e7s7EzS25WN3qqPgBXVR+g3GKd96xgP69FnFaeMExeJKlbQ28EKnKa2p52qN/rSVtUb2U6/57h8OL7jfeSqOEVfxlv1T8dHaIt/KzYPTlO53PURByvwGXqPx7Hle+it2Izzuz6ichqyeV7J5XJVbwenyKS94iO0gcvxsZbxHdcJ2ePjLd9drLjxDpyG3Vr6Sh3i1d9//727evVqd+3atT6+JfnW2j7qhc1UrExx+eqx467PurPGncHEEaJiZnvnzp3u9PS0N8y2dih9/fr17vj4uPv444/7wD3qIleVzWDQ9zhXdotczpFtR30C2ACE0t6RvQ+bqXoTtEP2is60YbxU2fvQW+03pAfhK+2XxKkjm7ZgnElO1ZsxU9rSZkmswGlwm9J3B6fIo/0SPoK+Jycni8h2cOraDHzPzWG7cODgFL2X8hH4DF7bpduu3xy9HR9xsYLOzGO7dNv2W8hmu63OruNL6U1/4XLill392/Yb7ZfCqWuzLJcTr/76668XgfvNmzf7JOs22+w6vm8fWV867o5YLlMPp9Ya98wNKICI8yvFvb1Kdoqrb6VwywwHow9KqbfK5K1GpoUxUwrjBGFDokpBtoMVJncyJUpBrqp34LSWyuQsj70Zc6XQlkBOsTk4Jaghy6YU10cc2fgXvKYUl8v34SMqlzN/MY8pBT7C5gpWkAfWVF4BY8hW9KYNGKe9UpCtchqyHZw6PsI4weXZueBgl8qsLvf/OXW1qv+cquC4DwJxBNWJCCKXIHuAjBOpAVEF7nm4BNkrWEGaE5Q4ZA9WwLhK2A7hYqsK3PNYY4LKTlIhhYCCSU4NSpDrBCWM9xI+Ar4rcA8UtG0ZJ+YwdR4BKyqvgE8nCVOBe9sYD2tV4D60Rtt+4NTh0zGXr48ud+v1efBe73FvG4e7akEcFbjfZZLZLy7ZQ/RjIM8K/adCOJEaGFTGvdXSm3oVuG9s0boXON0n2bfKrsA9/8AhfLJUNtGVXRn3Vs/Y1IskjOqfzGHOxS1YU+Yw2hCv0F4pFbjnrXY/uJyHUuNTgXt+TCrjLtgM8nCyNBW4541eGfe8zSDcWiqTt1tl3PM2cy9unYuGCtzz41WBe95m7gWm4yPB5dmE36EulYmgvX+rjHMVyNUjDyvOXYF++OGH/VtlPvvss7tG3pHtBCV0AtmcQymVcc9brQJ3bX09OIW8lOL4CD5dS2XyVmeSYMyUgs3hljk+3XZuZGcnqThXZdwr4x5YmNu6XL4PH6EPSqmlMnmrMY+onFaBe55XGKEpLl+vHu+O1k9061rjXoF7xo1rjXvGWud1I0ujTjQVuOdtzoWOGsASNFfGPW9z7O0sA6g17jmbuwFRZdxz9qZ2cLl6YQ2XOz5SS2VyYxZcnp0LDjXjTsC+uvRE/6mlMjks9LUr4543GhNNLZXJ260C97zNKnDP26wy7vnMmBs8O8sAXNkVuOd9pAL3vM1cnDo+8rAF7iyR6YP3yrhXxj3jipVxz1jrvG6QPQSmlArc81arwD1vswrcK3BvRQ1c5iRhyIDCa0ohGEO2yqe1VCZv9Voqk7dZ4JStUvCR8Z2CWOO+Xl/pKuMuWLUy7nmjuWQP0Y+B3NqLcCKV7OutMq2W3tRzMiWMExlBLnqUUoF73moVuOcnWHDqPCDq+ogjuzLueR+JJIwajDGH1VKZnN0dH2GcHqb3uPOPl/jUw6n1cGrKiyrjnjJXXznIXr1oqIx73uYVuOdtVoF7Be6tqIHLKuPeaq1NvQrcN7Zo3avAfWOpCNyPKuNeS2U2sJjfq8B93kbjGhW4jy0y/70y7vkgEqtO3V6dt/Z5jQrc8zavjLt2RwycEsQqxb17Wktl8lavpTJ5mwVO1bszU1x+EbgfHddSmfyQdH22of4BU85ybpYGoq+lMjmb1+sgc/aidtxeVW9p7yMo2SfZt1qgAvcK3Fux4nL5PnyEPiilAve81Spwz9vsfgTuPJhKtr0y7rVUJoXIyrinzNVXrox73mZMyrXGPW+3qSxN61kqcK/AvRUrFbjnsYJta6lMK8I29WqpzMYWEbRfvMcdwscZMx9OR7v4B0zb2lLvgw8+uOsfMEXdAHJ8z2wjm8iVTaZd1EU2oIjvmS0PBZFxV2THlZgqO4Cc6W/URXY80BTHMtsI3DNtom7oTSAbxzJbxotPpk3URSZrMpXx4hzxcGqcL7NdEqeObGwFxrEbJaMzdV2cErjT/6xc6hOEOlgZPtCUlR/ZxGw76gdOVR+JwD0rm/GNwN2RzTmysqnPODPeqn+qXI7e8aIBRW/6C5/+W7kcXlPGC71jjbvSfh8+omIlMu5Kvx0+RR44dXwErCl60wYup72it8vlTszxoLkcTph6j3vWbveDy1kqE+9y/w/BGKSJI2Y/d+7c6U5PT3tAbGsL2K9fv94dHx93n3zyCXa5WIvJgNIuJpzMFieg35k2w7rR3+Gx1v2zs7P+aWX60NpmWM/R2+k3/UW22m9IDwIY6tK6H7Jb64/roTd9Hx9v/e60RWd0b5U1rIfe4FS1+T7Ge9if1n36SwCLj7e2GdZz+s15XJup402/b926JXPLkjhFZ+QPx6F1n7bo7bRX24aPtPZ1XA+5qmzwDc5V/3Rs7vSb/iJb7Td8RtJtbMvW78hurTuu5+jNuRy9H1UuZ6yJW8Zj0fLdHa99cLmCc9rg25k4kYuc3377rbt69Wr38ssvdzdv3uxtFjbIbImtM/WHdafi8rsy7kE8BNjZD4Ige66KtrUlUH///ff7jPtHH310kV3BmFzxAyb2sx8IFycMBbPtaavKxgn+/vtvSTb9RTb9z/aZ+vQZuyltXdmMNUB2ZKvjhc6q3i5W0DmCuazuruylfIRxAuNgPasz9ZfEqSv7r7/+krFGQKTiFJvT1vER5GfHizmAdujtyFb5dEkfgYv/jVzOGDvzyD64XJ3DXB9BbxWnJycnjySX49sOl2PzLK9Qn3FycOpy+Z9//tlzKhzX0n9iWQL3F198sQ/cSUyTPd8W3247zl0KZLLdVmfX8Qjih3XWK/5r6uP954G8x/3GjRvdU0891b300kvde++9173zzjv958033+zeeuuti+9xvGVLuzfeeKN7++23pfaObNq+9tprkmz6S3u13+hN+xYbjesg07EZbdF7fN6W765sdHb0dmyOzujeoue4zj70Vn0E2aretEVv1eZL4tSV/eqrr1q8pNrMGS9wh1wVK7RDb/owxnDLd1e2w0uObNr+G7mcMXFs5nI5dnOwQvsWXI3rINPR+/XXXy8u/yf+Gtt223eXTxkvh5ccrMBpmfbvvvtu98orr3QvvPBCd+3atT5j3y8TSf4hc0/wzVYpcSdk2Ha1erxbrwjc//dg3irz1Vdfdc8//3z33HPP9QH8008/3dWnbFAYKAwcIgaeeeaZR5KfHlW9DxGD1afixsKAjwGF02jz7LPP9gE8d4eUcj8Cd/5j6qVLT3Sr1eUHE7hzq+GXX37pfvzxx+6nn366+Hz77bfd999/f/F9+Nvc/g8//NB98803UlvOjWzOMSdn6nfkfvHFF/foM1V36hjtVdnYi75PnXfuGPZH9ngc5trF719//XX35ZdfLiIbnb/77rtFZKMzuocdMlvX5g5OHR+h32BcxRqy1bbIxt4qTpHtYOXzzz+XeQm5jt60VfVGtqo3vILejmyHy53xxmYqn9J2KS53fcTlcvTOcFnUBSOObNdHHNlLc7njI+gdY5DZMl6MtdrewSn9RK7qn45s9IbTFE78+eefuz/++KNf335IgTtB+wML3Lcpzvod9VYC52Q9klqQrRbWLbG+Ty20VwtPNzt9d2zGwx6sE1OLozc6cwGoFkc26/TQXS2OzdGbMVeLIxuMq1hzccqtQrUg28EKWRaVl2I9pNp3B6fIVvVGXzW7hK7IVW1Ge2e8HR+hrcPljn+5PuLIxt7wmlpcnKq8Qn8d2cxfS3K54yPOeINxp70zXo5c10fgNJUT0VnFCuO876Uy/Vtl1lc6Mu8PZI37NnLAKOqgYlQW/zOwSkG2CkYGhAcuFNm0ob0qG9JywITNVCBD9OrkHnqrstFZndzDiZTxAlvxwKCCM/R1capOVI6PYDMwrmLNwSnjxASrYgXZDlZ4E4HKS8hVbRY4ZasUZKt6oy96O7JVm4FTxlv1T+yt+ghtwbmiN/3Ft5fgclc29obXlIJs5jDVP/fhIypWmL/UC5bgcgUr2BmsOT6iziPYCozTXingW+U0F6fOPMI4wWkOJ6p6I7sC9wm0OUFJOJFKuBW4TwzIzCGX7HEg1QHDiVSyr8B9ZnAnfnYIl3GqwH3CqDOH8A/VRypwz18sLRmUuLIrcJ9xpomfK3CfMMrMIRenzjzysAXuZNrjUxn3GeBN/VyB+5RVdh/DgZ0sTQXuu+079atzcQvpVcZ9yqq7jxE4H1KWZndvN79W4F6B+wYNu/dcLt+Hj9AHpVTGPW+1yrjnbRbJQrZKmUrCsLadh1P5VOAuWLUC97zRXLKvwD1v8wrc8zaLLI16S3sfQck+yb7VAhW45ydYOK2WyrQibFNvHz5SgfvGnnN72KqWysxZ6d7f4cRDSsLwD5hWvFWmAnftAdUK3O8F+dyRCty1DBHEoa7frcB9DpX3/l6Bez6AxYoEY+rFDjitNe73YnHXEfeioZbK7LLu9G+1VGbaLruOujitpTIb665Xlzs+FbiLb5apwH0Dpta9CtwrcM9gpda4t1prU2/q9urm1917lXHPX7AsGZS4sitw3+0PU79W4D5lld3HXJxW4L6xL0tkWOO++OsgySY6WRr1KWtMgWwyPUqpwD1vtQrcK3BvRQ1YqcC91VqbehW4b2zRusc8UG+VabXWeT2Xy2upTM7e1HbunjJetVQmb/NDWypDwM4rIfnUGvf8ePYPWeIIOES2BOmpFw3uFSgXO2QOlFKvg8xbLbI0ClaQVktl8jbHRwgOlFJLZfKZZ+yMvZ0kDBdqS/hIBe55L4k5TJ1HKnDP27wC97zNgsvVueAQA/d6q0xl3NOeUIF72mT9RZJ7Z4hAVCkO2UN6XJwS2CjFucAkMKiMe97qTFDOJFXvcc/ZHJzWw6k5m1G7Ave8zRwuB6eVcc/b/NAC93ijTL9UBuJh6QcTbeYTQLp161afacm0jbrIjoxiHGvd4vxM7q31x/WQzTnGx1u+E8DGP2lpqT+sAxjotyobe9H34Tkz+/SdPmTaRF1epQUBxPfM1tVbxSl9DNmq3rdv3+7/8VRG36jryl7KR+g3GAer+Hro07p1cIpscOr4iMJp6IZMOE31MeSqbdGbtmxb7Tysh2xVb9qht2pzRzYyHV5SfQRcg2+Vy7H9UlwORhzZZ2dnHbw2xE/rvisbrDg+gt6qjzB/MY+16jqsF3qrslWc0gd8BL2H/Wndp79gnP+e2tpmWA/Z6nhxHgen7jxyenra912Zw5bE6RSf8lBqv859dbn7D0blExVbtxgUsg3DtLYb1kMugBgea92nHfJb64/rqbLRG8ePyX183pbv9FvVWx2v6JcjG9KDAOJc2a07XgpOo4+ObHRG9zhXZrsPnKp6O7JpC8aZ4MF8Rmfq0l7tN+2ZZDhHVi71HR9B5snJSS9f0duRTd8dnKqyg8vReymbM97KWMd4q/0G38Xl5xd8Gfu7OHXaO225WFmSy1Wc0k7Vm7ZgnLhF4TTaO1xOv1W9VU4Dy8gkPoVbFL0d2cFLGZ8a1p2SzRtlLgJ3FOKKTCm0wxG4ra4UR3Zk/LkNpBRkcw6lYGCcX9Gb/tJelc0VLH1XCv0FzOraRBwQ51cKstFblY3OXPkrJWSrWKn/nJq3uoNTxgnicnxExQr4jAxsXuv9LANQeIW+orOqd2TlVP9ErjqPMM6Mt6o33ADelEJbh8vhU1W26yPIVn0Ee8NrSok5zMGKM4cxj6hYYf5iHlMK+mJzVTY6Oz6CbGUOow0Yp71SwJg6Xsh2cOr4COMElzucqOqNbAenU1zevwqS10GuLnf/B7h0CcAltIVgAAAAAElFTkSuQmCC;" parent="1" vertex="1">
          <mxGeometry x="200" y="560" width="840" height="361.76" as="geometry" />
        </mxCell>
        <mxCell id="2je93HJne1XDMkjmb065-7" value="&lt;font style=&quot;font-size: 24px&quot;&gt;&lt;b style=&quot;background-color: rgb(255 , 51 , 51)&quot;&gt;B+树&lt;/b&gt;&lt;/font&gt;" style="text;html=1;align=center;verticalAlign=middle;resizable=0;points=[];autosize=1;strokeColor=none;fillColor=none;" parent="1" vertex="1">
          <mxGeometry x="50" y="414" width="70" height="20" as="geometry" />
        </mxCell>
        <mxCell id="2je93HJne1XDMkjmb065-12" style="edgeStyle=none;curved=1;rounded=0;orthogonalLoop=1;jettySize=auto;html=1;entryX=0;entryY=0.412;entryDx=0;entryDy=0;entryPerimeter=0;endArrow=open;startSize=14;endSize=14;sourcePerimeterSpacing=8;targetPerimeterSpacing=8;" parent="1" source="2je93HJne1XDMkjmb065-8" target="2je93HJne1XDMkjmb065-9" edge="1">
          <mxGeometry relative="1" as="geometry" />
        </mxCell>
        <mxCell id="2je93HJne1XDMkjmb065-8" value="show GLOBAL STATUS like &#39;Innodb_page_size&#39;" style="text;html=1;align=center;verticalAlign=middle;resizable=0;points=[];autosize=1;strokeColor=none;fillColor=none;" parent="1" vertex="1">
          <mxGeometry x="190" y="307" width="270" height="20" as="geometry" />
        </mxCell>
        <mxCell id="2je93HJne1XDMkjmb065-9" value="" style="shape=image;verticalLabelPosition=bottom;labelBackgroundColor=#ffffff;verticalAlign=top;aspect=fixed;imageAspect=0;image=data:image/png,iVBORw0KGgoAAAANSUhEUgAAAV4AAADCCAYAAAAB+KqWAAAbbklEQVR4Ae2dP2/cRhqH83FUurpaQFLYwBUKfIWuiJHDWVdEjV1FwSGAgcMBgVeFi5QWkMKtAAUIEDfuUriTCwEqch9iv8Ec3iFf8p3h8N96OSK5T7HYXZIz8847v3nmx+HK/uLo6MjJ6/j4uPX14sULf41ey3uRM/IwfR5Ee1abaHH6nKPrdI5jLVpdjv38hSa5qyBiTw+E5o736fITix0tTpdrdNyd21iLXczsOzcYvNIoL3LwEBqwIn6I9mkT3asGrBY/5/Mg8H5OA5Rt38IhN+QGDRymBgBvx942k+IwJwXjzrhPrQHAC3iDh1dTC476gRoaOHaAF/ACXjSABjJrIAnefTzddM65o5MLXuQADaCB+Wig/PnsPhj3OXUAXibFfCYFY8FYTK0BwIsb5o4goYF//ubO/9i6Z98nzk09Kan/4cD/t1fuz+9+cr//feJxP2zw/uKe/fHRfZlV6Jfu61+37oc/9PU/9/U/i0H+y+v/ufPXl2nRlSDQcjUQpA9aV/Fen6vr/eGPuh0FbWd7XTmJYvnh6pci5u8/mn5pTGG70mYjlq5yck7rL2P68soAsS2WrvhP7Bi0jH8SvFIu7I/m8rPf/YT/r/v5b3bC/9v9/K+fnPvOvP7xY1ofnf21dY75/KP7/bv/uBe+bvt5TB0Lu3YK8KbGFvC2TLxJhFxO+AgkOmnbQShwNRPeQ0G/R4uHP2f7JG1+dF9+/7EB9fb2uiZLFEsyT1FM1TXtsRQ5SJTrBO+QWPr6YnPVda2cyw1ejeehoGfbtZ81Lt517na+Hyx4I1dUu8pion/tXVjCLUbl1EmmgJU61hgMgcivv7m/VCAKhdtWhxyPXV99bQSruA3pg4Be3qO26zrCOBpx23h9ThT6beWimLR8RyxFm4lyXeAdFEtbjHI80V6nGw7B68fFLoi+PnX6xpVr/zvfu8CWOlcc+/mb/1aO+M9v/l264a5zF+6odHXqpIPb6uicixxvur2uHHfH8uIfxs3Ht/iNWH5yYR/rskEfuvIc1VnXZ+8u1OVrv6QPdVuSt7qcXBOeb8ZS5KC4cyjrPATH2357KBNvW0MtgJOcM4Cxk7yCQT1xZRIqmNvA5Sdq6XaLSSuTtG5DjtWLgg76hQturVVUQQz1ZP8h2jqp4wqhITG2tdcWvx6vYo9ArufTQCvaK3LUjKUoW+ezqqvqZzof/bHU5ao6NYdJ8Or1iViM4/XtBv2XPln3nCqvdY99T0xcney69SBA+dcr91fftxIErefMloYHkX6XcvpZYrTtRnX6c/batj6NKOdjUehFsfz9P85pf04EknpdHGdbHHJcyvXFbPucqutH93uVZ61zh1gOAbw6OZtQiyeH+d414Y1ze/ZrAdwvr2qANid4MYASRxhDCKDm+aJcP3jNhPcLhH7vrr+tvbb44+Oa19iNp8HbHUtRt8m/wrFrHPSachH5wS6i5lwcd/090V5VLnVO+lAucgF0L4o7imiv3S6qdZupydx3LAWD+Jj9bj9L3eZ7ALCiXXGd3qU1zplytg6fo8IhNt1d3Bdbh5yLykmbgZtUiEk5A0kbW+Rai/Lm2moM41gu3F/LO4TQsdrr4njtuRj4zbuHwbEcAnhV9E1QxJPLfO+a8KUz/vL1R/f197+5Z69/GfbQReoMJuwQGKWdaQ1NE7MXnKnTQ9i64W3Qfl2HFdfYz9J+vOjEMbWAKciFtJso1xiHAn7pu4tULF39SbRXTdrUuTK3r+Uhoi5uZf2lJtq2kVSDu72nYBAfs9/tZ4nPfLcAK/u6O3iHwM607duzrlPO2TrCa8NtCAVyCbvAdXaNcfqcArh20XpdGIMdLynTWGiCOw2tY8D7IYHXJzGYIPHkMt89tAxQgu/Fdc9ey37tpfv66qN7FtxmtiVeym2N6zWQ7Lr1D9pWiOnENzGLsP21xbkmWMNrm+fb4u44HsfmJ1fYjuS92VbzmiR4TX+q8YuhVwKk6LsZMz3e+p6KQfuaOmfGSxaEIA65fuy+rrbV956CQXzMfrefpW7zPdhaUMdWwi+41S+cabzHW+1TeqdqYNiaY9O2XBOUk3M1eAvQlnV2Ak3K7eEnX8k2oni1X3JttdVhx2vHWA4BvOHPrezEjCdX9N1PLnWMtlzhuvQWW7YCQidrByb+XExQf1vsb03regVO9XFpV+F64Y5aY2mrr4gxdoZ226KzPRVc/B7EITHW8dfuIMpj+cCqK5aibFyuzF3QpmkvON4WS5x/+R7nzI5f1zkDXslL2X7VL79IqF5snakYhhxT+JkHO9XkjwFhv9vP0k703cNP66zBJ2NQOUEPNltOPmsZeR8CXW27vZx1tX9+88r8fO3C2XONW3i/SJh6BznguA+27/G5n5yr6kyMQ3VOF6+RsRwCeGsgDBE715AvNLA/DVh4j8irLA4WbicFiNv3ZkfUHZuJh/gOeBc2YA8hEtrM+EcLS9NjwimqM/bufEfwepduXKTUWbn9thz1xdJW7gGOA94HSDogA2Ro4LA1sHbwfs6/3EPZ7v/7ifyQHzSwbA1M9q+TIYxlC4PxY/zQwHQaALwzufVA5NOJnNyS27lpAPACXjc3URIPoFy7BgAv4AW8aAANZNYA4M2c8LWv5PQPt4oG+jUAeAEvbgcNoIHMGgC8mROOG+h3A+SIHK1dA4AX8OJ20AAayKwBwJs54WtfyekfbhUN9GsA8AJe3A4aQAOZNQB4MyccN9DvBsgROVq7BgAv4MXtoAE0kFkDgDdzwte+ktM/3Coa6NcA4AW8uB00gAYyawDwZk44bqDfDZAjcrR2DQBewIvbQQNoILMGAG/mhK99Jad/uFU00K8BwAt4cTtoAA1k1gDgzZxw3EC/GyBH5GjtGgC8gBe3gwbQQGYNAN7MCV/7Sk7/cKtooF8DgBfw4nbQABrIrAHAmznhuIF+N0COyNHaNQB4AS9uBw2ggcwaALyZE772lZz+4VbRQL8GAC/gxe2gATSQWQOAN3PCcQP9boAckaO1awDwAl7cDhpAA5k1AHgzJ3ztKzn9w62igX4NAF7Ai9tBA2ggswYAb+aE4wb63QA5Ikdr1wDgBby4HTSABjJrAPBmTvjaV3L6h1tFA/0aALyAF7eDBtBAZg0A3swJxw30uwFyRI7WrgHAC3hxO2gADWTWAODNnPC1r+T0D7eKBvo1AHgBL24HDaCBzBoAvJkTjhvodwPkiBytXQOAF/DidtAAGsisAcCbOeFrX8npH24VDfRrAPACXtwOGkADmTUAeDMnHDfQ7wbIETlauwYAL+DF7aABNJBZA4A3c8LXvpLTP9wqGujXAOAFvLgdNIAGMmsA8GZOOG6g3w2QI3K0dg0AXsCL20EDaCCzBgBv5oSvfSWnf7hVNNCvAcALeHE7aAANZNYA4M2ccNxAvxsgR+Ro7RoAvIAXt4MG0EBmDQDezAlf+0pO/3CraKBfA4AX8OJ20AAayKwBwJs54biBfjdAjsjR2jUAeAEvbgcNoIHMGgC8mRO+9pWc/uFW0UC/BgAv4MXtoAE0kFkDgDdzwnED/W6AHJGjtWsA8AJe3A4aQAOZNQB4Myd87Ss5/cOtooF+DQBewIvbQQNoILMGAG/mhOMG+t0AOSJHa9cA4AW8uB00gAYyawDwZk742ldy+odbRQP9GgC8gBe3gwbQQGYNAN7MCccN9LsBckSO1q4BwAt4cTtoAA1k1gDgzZzwta/k9A+3igb6NQB4AS9uBw2ggcwaALyZE44b6HcD5IgcrV0DgBfw4nbQABrIrAHAmznha1/J6R9uFQ30awDwAl7cDhpAA5k1AHgzJxw30O8GyBE5WrsGAC/gxe2gATSQWQOAN3PC176S0z/cKhro1wDgBby4HTSABjJrAPBmTjhuoN8NkCNytHYNAF7Ai9tBA2ggswYAb+aEr30lp3+4VTTQrwHAC3hxO2gADWTWAODNnHDcQL8bIEfkaO0aALyAF7eDBtBAZg0A3swJX/tKTv9wq2igXwNJ8B4fHzte5AANoAE0MI0GAC+LDIssGkADmTUAeDMnHAcxjYMgr+R1SRpIgvfRo0duya+TkxO3pteSx4LYlz2XGL9pxm+14F2LYGQBWUtf6Mc0k5i8Li+vneBdsmtcixiXPAZriH0tOqIf84JzL3iXtG+isa7JJUpftF9Le19y7JLrNekI8ALeyUGypgmzZHgtOXbAOy9QrW3hwPHO/EHikuG15NgBL+CdEvYHDN4X7mZ7415E4D1588ndvGiKTo5vt9vO16c3+38QtmR4LTl2wNucA1OC6NDq/uKrr75y8hKh6UuTkH3inG3c1cXTKg6NZ+y7xK19aHsXkKZA2QVee31cPv6ebldgv022m77+kd9nHNv/uVyfXT9Gw/vIwRAdtY0bxwF3lwamAe/Zxt1szmqAyverC/c0NTHk3M1N52tzVi8KQyZU/4SxbvfEvfnU4WQ/vXEnjx45AevujlfbkH7mAO+Z29xs3Fkq38dP3cWVPdd3rcR85S6ejhsDGaedwfv0wl1Z/TRi7ohlT4u3xt81eTgHXHfVwCTgPdtcuc3mqhOmFYhjSEewONvcuH2Dt3a1AsRP7s1JLaD6XH1Mkhs72r7vbQPyIgt4j93Ti6uWu4cu8Mq5cBEcm3u7MO4dvALk1gWlgHF7vztgHWlO+9C/gIcaaRtzjpOnWAP7B69MjjZ3mxJ4dsdb3O4X7rWArkC0zc3qfm/XNVrWbkXEidbvk4K3NZficM/cxo9LDV5Z1OzdxtXFmbu42s3dKqzs+1jwCjT9nVKX47Xwbe1v2C/p4y4LCOAFmDpv9/2+Z/AWjqnYp226p3qSm1tdmTzBbWXoTKZwvJLEkzdvGg/WxiQ3drxDy04K3uPC6VrI1PlrgtdD0oLM39I/HHiPZXGQbY2zHbca/KK/cZtNy7ZWauHvOAZ4Ae/QeT32ur2C1zuWm5uWW9wQqJUzGuBaLEiqcjtPGN1v1X3dG/fi5I37lPzFQvGrhyFuV13v9uZF54O9qcF7bOAp41HnLg1eHbNiH7djsRxzF1OOzVjHK2Mr8VxtNu5qc9HY9qgX7oTG7ALiAfz58AW8gHcsUIdev1fwnm027qx6uNExie0+3QM53iBBAt4GMAXQzZ+bPXpU7Avf3Hxyn+Sh4MifkE0J3njrwIJqc5YCrxy7KvdN5fPGf68epPWMTd8iuAt4fZ0CzuAuqHTCyQd8pc6uLtyZbFXoAuFBnAB0x4Id9wfwAt6AE9FPTz/n3F7B64VbgbfF4cbCz+54SzEZl3vzZgh41SnX+8Kyp6tuWPeC+wZjSvDG4Ai/N8FbOGL7qwaB2PBtoLD+5njvBl6J5ybcfmqBaLHQhFsj3jGbnySqo9/lZ4qAF/D2zeddz08K3nYHZiZ3DOI9fO+eMOXDtfJnYj5xBsLVloHfeigcr8Byu23++sE+TCuu2bqH3WpI32UU0GmC9+xCbscteO3nY3ec3fFK+8093mKfOloUkjqJ4k9e01wg2haQbh0BpV2hQ7lHbmLwhm6kELidHPrZQiH63egO+3WjJ8yorYZiwu36cG2s6KQvbWBoHk/AqboDsTm2C5+OQQK0mcFbAPbYHdutBolBtw8S8dRQVq1Jf/TzsZPzu7hdye1oHe3xVnSsTrh+WQvhg4K3mmjVT51CN1LdNo6E75omzHjwNn9KFYInhrOCt3DL9cO4BIhHOshxsZuxV/DKu30ecFyAVH8F47cR/F6wxF7DtliQ6mP1daaNAX1Zk44A87zAPDF4mxAoHvhYxyWToZj09mFQ+rphE2dNE2YcvCSPUW6t49W/EFQH6eFTgldhZ4GUcJhNl90+JuNiN/V44Ip2or6UscmCrfDVePwx7Z++B/009ds+dnxek44A70GBN3YhIn51WOMngk6yvvc1TZid4dUBlL787ev8kmOXHKxJR4B37eCdyYRfi9CWDK8lxw545wWqtcxn7cf+txoAb+cfUGjih74vGV5Ljh3wAt6hc3SX6wDvzJ9ELxleS44d8ALeXYA6tAzgBbwjfq42bl8e8AKvoSA6tOuS4JUJs/TXWgZy6eNA/MufS4zh/scwCd61QIt+4LjQABqYowYA78y3GuYoGmICZmjg8zTQ+Z9dktzPSy75I39oAA2kNAB4cbx7/flbSmQcAz5oINQA4AW8gBcNoIHMGkiC9/Hjx27o69tvv3Wnp6e8yMHeNSDaGqrDtV8nuTg6OuK1khwAXoC5d2DuayEGvLUBArzrWnQAL+AFvCPu8B7KWQNewBvc/okg9uVwqIctG6sBHC+Od63bKzheHO9sF07AC3gBb8vt2N4d78t37n5779697HJ/G/dh+8FtktDsOtdVJ+es25zD588H7yv3fvvevWrR7kNtG+zSruRirRA6xH7t1fFuPmzd/buXoYPafHDb+3fuZRKSu8KuC65d53Ztj3IPAWIL3lfvt+7u7fNgm+vxq/due/fWPW8FK+A9RKgtoc97Be9pArIC4w+bfYOrC65d5/YdB/VNCWQL3hRkBcbvX9W3400nCXiXAKFDjHG/4D0V6NltAgtB+Sz/TXr5+rApnLHfWvjgPnyQ47J9MKCMXiOgL+urnbYtf+r8YqBtdjrvslxrne2xv3t3X8ah8Ud9FLdv6t3/HcA6F4AAvI8Fonfu7XMFrYWqfDbj8/5V6YzNNc/furtg28GcE8cs7lnr6HTR2n7ed7Ya+FVDcLsngrCuJ9huENgoYIOtBoFcCWgPXuuKI3BW5UwZD96tqVvOaR2mvNRtYPvy3X1zKySo39RZLgjNfWQTRxm7Ql/6XiweAsLousFxrBOiViNDP4fgfeyC7QYBZQVYC0EBqgLawLULvHLOwPb527vmtkbrdoZte7rPgBfwdoLXbjc0txleunf3tTPxWxANwBlweigmyqjjraB56mrg1+UFtJWLUTeTXAgUlPaBnbRr3Xsijih2315Vf3G99HFcHIBXwRyD1243NLcZnru3d7W2ii2IYeAV0DZ0koT6dGBtbpOEbQFewNsN3srp1QD0E8nfaivIaiidRvAqnGIJwLYyY8BbgbAPaFG8pwa8bXFEsXeCd3AcfXEezvkGeKvtBgPUaptAXW4B4NHgnRloYxADXsDbA97Sfd7fm62A0vUpfDywyq2BCF4WvAHIbBkPXt1aOHUFvBXqBqC+jB6XfdZ3HT9TM+Uqp12UbY0jij24zoPb9nFoHIcDVnW2be9N8JbbDXd3wTaDd6wKTr+loA/dLKDls8L5sStcbvlTM1+mPvf41Vuzlxw6zxiIub4DXsDbC159kBT+mkHAVt4K3n9wH+4tlOwtvgVgS5nS8RYP5Io667Zs+eg2X8FvtijqSR+WO7WOtwS9vx3tiL0VvKdj4gC8OiYp8OpDsPDXDALVUlt37937uxR4FbbFdXdv3wa/8Q22GxTiD7yva6EOeAFvP3iTYAMoChTeh2khCd4ZwdCCcerPgBfwAl4WluCXLFMtJIC33uYAvIB34eA12xd6e9r658fDnNlU4Dn0egEv4F3rH1fs+Q8oANWhw3Kf/Qe8gBfwtuytyeTY52SjLhYv1QDgBbyAF/CywGTe2wa8gPegwCuC50UO0MC8NLBWCB1iv5J7vHqrN+RdJuchJo4+T/+U+fj4GG2V/7kjuZhebznnNOBdyf9amlM0udoCNjVsyEWdi1z6m7IdwAt4Z+sqgU0NG3JR52JKIOaqG/ACXsC7AA0A3gMDr/z7BF17vezxrksQuVb8Ie0Am1pb5KLOxRDtzP2aXser/05pG3wfFrzn7np76y6fyKDI52t3vgD3khTFk0t3W/VlXSJL9nfAOAGbWgfkos7FrnqaU7nB4G1zviF4c8NvReAdAKI5CSdHLEnYnF+7bWOBfeIub8t/ncwuXv7a4vjt5ZNqS+XJ5W39D59fn1fHtU/n11u3vb10T2Y0JslczCg+zR3vwxaIUeBNwRfwDks0ghyfpxA2JVxvb91tBF4BpQVrketzd61Q9XcT5d2Q/XxU1Hl9bmLz5wEvejWamGCBGw3eGL7t4C3db9J1dJ07ckcq/vIfsQkmhqlve33d3Gow55uT0SazKwY5pw5q67Y6gWUATP1h+9G5TsdkHdrWFf0r4zk6coEjkzi0Ltu2HptAFHOZdCF4y7ELwFlqpS8XUqa6ps7zUQO8Mi637vLyus75TPKbzMVMYpuLXpYUx07gtfDtBq+BVjBhSrAp0Ow5/1n3bRXC5ff4nAeRXhvV6fd8FWoWuPp56PVy3YD2JbZqchfwbAW/xK19ryaPtBPvUUdtD62/qlP7usz3JGysVqSfPpeX9VZDlCPRarVwaV7MAmbHqHLOct7UM4cJncyF9of3xnbRHMasK4adwGsftHWD14KkdBPJB2HmXAJKMiG8K2ycM2BKPFyrJlJSmE3QhdcnXGlH+w2XKhO+AdcSgB4eMRDS8ajbH1V/sr/Lg28SNhF4i7zo4nvkwjG0+TaLZwXVYowb2gK8iwNZF+TmeG40eC105XNO8PpJFsBsIvDKxFOXa25Hu9pvnhsAOt+OuvIQvHF98fc5imnfMQ0Bb+F4zQOyxuJYjIMu3pJH63IbjtluMTXuQAaM6USLXjIXE7W173GkvqZuRoE3hu4k4PWOpnYwxX6vcSsVEHUvVK8VcCnEoi2KpEDbrw8gV7pT74qi2Px1Gk907uj8svyZWzPpR+fn1c/eahAY8Pq67N1Coj9d9Sf7m4hj5tclYRPnJvpeOd7z63LvPMpd4GYLxxuAWHISXDOPvCVzMfPxA7jt2hkM3hR0JwGvCr9yHgrWohMF7MoHX4mHa9fyU6CyrN6mpwVQgC59fQHlYn/w2l3f1kC37d9eXgb7svZc6zaDnyym/spVKXjDLQ67Rzm8/vYBT+dintcnYROB1venvHPwuTJ3RALhlBbs8eReLuBlq2HiRW0QeNug2wTvPCdwGjYKut1j9iCs9gt3rycdH/UlwTvxhJjrWJCLdc2HXvB2QffwwGudqripaDvgQKEwFayATQ0bclHnYiq95az3AMAbwzInMB+y7eULFdjUY0gu6lzkBORUbR0AeNc1YFMJYY71Aptau+SizsUctTo2JsDL9sBsH6QAmxo25KLOxVjIzfF6wAt4Ae8CNAB4DwC88kcRY14iCl7kAA1Mq4E5Ojdi2m1BSDpekrlbMskbeUMDaGCIBgDvAm4zhwwk1zDh0cByNAB4Ae9s93gByXJAwliNGyvAC3gBLxpAA5k1AHgzJxxnMM4ZkC/ytUYNAF7Ai9tBA2ggswYAb+aEr3H1pk+4UjQwTgOAF/DidtAAGsisAcCbOeE4g3HOgHyRrzVqAPACXtwOGkADmTUAeDMnfI2rN33ClaKBcRoAvIAXt4MG0EBmDfwfli8+W4Pu8VIAAAAASUVORK5CYII=;" parent="1" vertex="1">
          <mxGeometry x="710" y="240" width="350" height="194" as="geometry" />
        </mxCell>
        <mxCell id="2je93HJne1XDMkjmb065-13" value="" style="endArrow=classic;html=1;startSize=14;endSize=14;sourcePerimeterSpacing=8;targetPerimeterSpacing=8;entryX=0.5;entryY=1;entryDx=0;entryDy=0;" parent="1" source="2je93HJne1XDMkjmb065-6" target="2je93HJne1XDMkjmb065-9" edge="1">
          <mxGeometry width="50" height="50" relative="1" as="geometry">
            <mxPoint x="470" y="620" as="sourcePoint" />
            <mxPoint x="520" y="570" as="targetPoint" />
          </mxGeometry>
        </mxCell>
        <mxCell id="2je93HJne1XDMkjmb065-14" value="每一页有16KB" style="text;html=1;align=center;verticalAlign=middle;resizable=0;points=[];autosize=1;strokeColor=none;fillColor=none;" parent="1" vertex="1">
          <mxGeometry x="825" y="490" width="90" height="20" as="geometry" />
        </mxCell>
        <mxCell id="2je93HJne1XDMkjmb065-16" style="edgeStyle=none;curved=1;rounded=0;orthogonalLoop=1;jettySize=auto;html=1;endArrow=open;startSize=14;endSize=14;sourcePerimeterSpacing=8;targetPerimeterSpacing=8;exitX=0.592;exitY=1.067;exitDx=0;exitDy=0;exitPerimeter=0;" parent="1" source="2je93HJne1XDMkjmb065-15" edge="1">
          <mxGeometry relative="1" as="geometry">
            <mxPoint x="490" y="540" as="sourcePoint" />
            <mxPoint x="530" y="600" as="targetPoint" />
          </mxGeometry>
        </mxCell>
        <mxCell id="2je93HJne1XDMkjmb065-15" value="大约8个字节" style="text;html=1;align=center;verticalAlign=middle;resizable=0;points=[];autosize=1;strokeColor=none;fillColor=none;" parent="1" vertex="1">
          <mxGeometry x="450" y="500" width="80" height="20" as="geometry" />
        </mxCell>
        <mxCell id="2je93HJne1XDMkjmb065-17" value="大约6个字节" style="text;html=1;align=center;verticalAlign=middle;resizable=0;points=[];autosize=1;strokeColor=none;fillColor=none;" parent="1" vertex="1">
          <mxGeometry x="570" y="500" width="80" height="20" as="geometry" />
        </mxCell>
        <mxCell id="2je93HJne1XDMkjmb065-19" style="edgeStyle=none;curved=1;rounded=0;orthogonalLoop=1;jettySize=auto;html=1;entryX=0.5;entryY=0.111;entryDx=0;entryDy=0;entryPerimeter=0;endArrow=open;startSize=14;endSize=14;sourcePerimeterSpacing=8;targetPerimeterSpacing=8;" parent="1" source="2je93HJne1XDMkjmb065-17" target="2je93HJne1XDMkjmb065-6" edge="1">
          <mxGeometry relative="1" as="geometry" />
        </mxCell>
        <mxCell id="2je93HJne1XDMkjmb065-21" style="edgeStyle=none;curved=1;rounded=0;orthogonalLoop=1;jettySize=auto;html=1;entryX=0.119;entryY=0.829;entryDx=0;entryDy=0;entryPerimeter=0;endArrow=open;startSize=14;endSize=14;sourcePerimeterSpacing=8;targetPerimeterSpacing=8;" parent="1" source="2je93HJne1XDMkjmb065-20" target="2je93HJne1XDMkjmb065-6" edge="1">
          <mxGeometry relative="1" as="geometry" />
        </mxCell>
        <mxCell id="2je93HJne1XDMkjmb065-20" value="大约1KB,叶子节点大约能放16个数据" style="text;html=1;align=center;verticalAlign=middle;resizable=0;points=[];autosize=1;strokeColor=none;fillColor=none;" parent="1" vertex="1">
          <mxGeometry x="165" y="940" width="210" height="20" as="geometry" />
        </mxCell>
        <mxCell id="2je93HJne1XDMkjmb065-22" value="&lt;font style=&quot;font-size: 14px&quot; color=&quot;#ff3333&quot;&gt;每一页大约有1170个数据[16KB/(8B+6B)]&lt;/font&gt;" style="text;html=1;align=center;verticalAlign=middle;resizable=0;points=[];autosize=1;strokeColor=none;fillColor=none;" parent="1" vertex="1">
          <mxGeometry x="885" y="510" width="270" height="20" as="geometry" />
        </mxCell>
        <mxCell id="2je93HJne1XDMkjmb065-23" value="一共有1170*1170*16个数据&lt;br&gt;大约有两千多万条数据" style="text;html=1;align=center;verticalAlign=middle;resizable=0;points=[];autosize=1;strokeColor=none;fillColor=none;" parent="1" vertex="1">
          <mxGeometry x="20" y="725.88" width="160" height="30" as="geometry" />
        </mxCell>
      </root>
    </mxGraphModel>
  </diagram>
</mxfile>
